<svg xmlns="http://www.w3.org/2000/svg" width="23" height="23" viewBox="0 0 23 23"><defs><style>.a{fill:#d3262a;}</style></defs><g transform="translate(0 -0.001)"><path class="a" d="M0,11.5A11.5,11.5,0,0,1,18.642,2.484a.958.958,0,1,1-1.193,1.5A9.467,9.467,0,0,0,11.5,1.917,9.583,9.583,0,1,0,21.083,11.5a9.493,9.493,0,0,0-.949-4.169A.958.958,0,0,1,21.86,6.5a11.389,11.389,0,0,1,1.14,5,11.5,11.5,0,0,1-23,0Zm11.5,1.958a.959.959,0,0,1-.958-.958V5.792a.958.958,0,1,1,1.917,0v5.75h3.833a.958.958,0,1,1,0,1.917Z" transform="translate(0 0.001)"/></g></svg>