<svg xmlns="http://www.w3.org/2000/svg" width="23.527" height="23.527" viewBox="0 0 23.527 23.527"><defs><style>.a{fill:#d3262a;}</style></defs><g transform="translate(-2202.739 -995.989)"><path class="a" d="M2214.53,995.99h9.031a2.531,2.531,0,0,1,2.7,2.707q0,9.1,0,18.192a2.509,2.509,0,0,1-1.876,2.535,2.87,2.87,0,0,1-.725.088q-9.161.007-18.323,0a2.516,2.516,0,0,1-2.6-2.6q0-9.162,0-18.323a2.516,2.516,0,0,1,2.6-2.6Q2209.936,995.986,2214.53,995.99Zm-10.09,5.893v11.73h20.131v-11.73Zm5.033-1.711h4.168v-2.488h-4.168Zm10.06-2.481h-4.177v2.486h4.177Zm-10.053,17.636v2.488h4.169v-2.488Zm5.875,2.49h4.168v-2.489h-4.168Zm-10.932-17.646h3.344v-2.495c-.878,0-1.743-.014-2.607.006a.8.8,0,0,0-.733.767C2204.412,999.017,2204.423,999.585,2204.423,1000.171Zm3.348,15.162h-3.35c0,.558,0,1.1,0,1.638a.838.838,0,0,0,.86.863c.559.007,1.118,0,1.677,0h.813Zm16.811,0h-3.343v2.494c.878,0,1.743.015,2.606-.007a.787.787,0,0,0,.732-.766C2224.593,1016.489,2224.581,1015.921,2224.581,1015.335Zm-3.345-15.157h3.318c.012-.027.025-.042.025-.057,0-.506.006-1.013,0-1.519a.853.853,0,0,0-.925-.931q-1.1,0-2.2,0c-.075,0-.15.01-.223.015Z" transform="translate(0 0)"/><path class="a" d="M2322.723,1108.328q0-1.627,0-3.253a.848.848,0,0,1,1.319-.816q3.247,1.619,6.492,3.241a.884.884,0,0,1,.589.821.9.9,0,0,1-.593.819q-3.26,1.622-6.515,3.252a.844.844,0,0,1-1.292-.809c0-1.084,0-2.169,0-3.254Zm1.694,1.985,3.989-2-3.989-2Z" transform="translate(-111.581 -100.565)"/></g></svg>