<svg xmlns="http://www.w3.org/2000/svg" width="23" height="23.254" viewBox="0 0 23 23.254"><defs><style>.a{fill:#d3262a;}</style></defs><g transform="translate(338.506 -80.685)"><g transform="translate(-338.506 80.685)"><path class="a" d="M-272.938,262.192h-8.731a.341.341,0,0,0-.341.341.341.341,0,0,0,.341.341h8.731a.341.341,0,0,0,.341-.341A.341.341,0,0,0-272.938,262.192Z" transform="translate(284.579 -253.949)"/><path class="a" d="M-272.938,314.888h-8.731a.341.341,0,0,0-.341.341.341.341,0,0,0,.341.341h8.731a.341.341,0,0,0,.341-.341A.341.341,0,0,0-272.938,314.888Z" transform="translate(284.579 -304.252)"/><path class="a" d="M-272.938,367.583h-8.731a.341.341,0,0,0-.341.341.341.341,0,0,0,.341.341h8.731a.341.341,0,0,0,.341-.341A.341.341,0,0,0-272.938,367.583Z" transform="translate(284.579 -354.553)"/><path class="a" d="M-272.6,420.621a.341.341,0,0,0-.341-.341h-8.731a.341.341,0,0,0-.341.341.341.341,0,0,0,.341.341h8.731A.341.341,0,0,0-272.6,420.621Z" transform="translate(284.579 -404.857)"/><path class="a" d="M-281.669,497.507a.341.341,0,0,0-.341.341.341.341,0,0,0,.341.341h4.377a.341.341,0,0,0,.341-.341.341.341,0,0,0-.341-.341Z" transform="translate(284.579 -478.582)"/><path class="a" d="M-175.165,134.264v-1.107a.765.765,0,0,0-.765-.765h-7a.765.765,0,0,0-.765.765v1.107a.765.765,0,0,0,.765.765h.591a.341.341,0,0,0,.341-.341.341.341,0,0,0-.341-.341h-.591a.083.083,0,0,1-.082-.082v-1.107a.083.083,0,0,1,.082-.082h7a.083.083,0,0,1,.082.082v1.107a.083.083,0,0,1-.082.082h-4.816a.341.341,0,0,0-.341.341.341.341,0,0,0,.341.341h4.816A.765.765,0,0,0-175.165,134.264Z" transform="translate(190.722 -130.041)"/><path class="a" d="M-320.414,101.454a.341.341,0,0,0-.34.341v.459a1,1,0,0,1-1,1h-15.063a1,1,0,0,1-1-1V85.882a1.012,1.012,0,0,1,.024-.216h3.1a1.175,1.175,0,0,0,1.174-1.174v-3.1a1.01,1.01,0,0,1,.216-.024h11.552a1,1,0,0,1,1,1V86.9a.341.341,0,0,0,.34.341.34.34,0,0,0,.34-.341V82.37a1.687,1.687,0,0,0-1.685-1.685h-11.552a1.674,1.674,0,0,0-1.191.494l-3.511,3.512a1.675,1.675,0,0,0-.493,1.192v16.371a1.687,1.687,0,0,0,1.685,1.685h15.063a1.687,1.687,0,0,0,1.685-1.685v-.459a.341.341,0,0,0-.34-.341Zm-13.794-19.606v2.644a.494.494,0,0,1-.493.493h-2.643Z" transform="translate(338.506 -80.685)"/><path class="a" d="M-38.39,249.9a1.355,1.355,0,0,0,.17-1.189,1.354,1.354,0,0,0-.837-.862.678.678,0,0,1-.451-.621,1.355,1.355,0,0,0-.562-1.062,1.355,1.355,0,0,0-1.183-.206.678.678,0,0,1-.73-.237,1.354,1.354,0,0,0-1.078-.529,1.355,1.355,0,0,0-1.079.529.678.678,0,0,1-.73.237,1.355,1.355,0,0,0-1.184.206,1.355,1.355,0,0,0-.562,1.062.678.678,0,0,1-.451.621,1.354,1.354,0,0,0-.836.862,1.355,1.355,0,0,0,.17,1.189.678.678,0,0,1,0,.768,1.355,1.355,0,0,0-.17,1.189,1.354,1.354,0,0,0,.836.862.678.678,0,0,1,.451.621,1.363,1.363,0,0,0,.492,1.008,1.366,1.366,0,0,0,.686.3v3.105a.724.724,0,0,0,.371.632.724.724,0,0,0,.733-.016l1.251-.77a.036.036,0,0,1,.044,0l1.251.77a.725.725,0,0,0,.733.015.724.724,0,0,0,.371-.632v-3.105a1.366,1.366,0,0,0,.686-.3,1.363,1.363,0,0,0,.492-1.008.678.678,0,0,1,.451-.621,1.354,1.354,0,0,0,.837-.862,1.355,1.355,0,0,0-.17-1.189.677.677,0,0,1,0-.767Zm-3.041,7.89-1.251-.77a.724.724,0,0,0-.759,0l-1.251.77a.041.041,0,0,1-.064-.036v-3.17a.677.677,0,0,1,.615.26,1.355,1.355,0,0,0,1.079.529,1.354,1.354,0,0,0,1.078-.529.677.677,0,0,1,.615-.26v3.17a.042.042,0,0,1-.064.036Zm2.477-6.739a.677.677,0,0,1,.085.594.677.677,0,0,1-.418.431,1.356,1.356,0,0,0-.9,1.242.672.672,0,0,1-.245.5.679.679,0,0,1-.627.13,1.356,1.356,0,0,0-1.461.474.677.677,0,0,1-.539.264.677.677,0,0,1-.539-.264,1.355,1.355,0,0,0-1.074-.53,1.375,1.375,0,0,0-.386.056.679.679,0,0,1-.627-.13.672.672,0,0,1-.245-.5,1.356,1.356,0,0,0-.9-1.242.677.677,0,0,1-.418-.431.677.677,0,0,1,.085-.594,1.356,1.356,0,0,0,0-1.536.677.677,0,0,1-.085-.594.677.677,0,0,1,.418-.431,1.356,1.356,0,0,0,.9-1.242.677.677,0,0,1,.281-.531.677.677,0,0,1,.592-.1,1.356,1.356,0,0,0,1.46-.475.677.677,0,0,1,.539-.264.677.677,0,0,1,.539.264,1.356,1.356,0,0,0,1.461.475.677.677,0,0,1,.592.1.677.677,0,0,1,.281.531,1.356,1.356,0,0,0,.9,1.242.677.677,0,0,1,.418.431.677.677,0,0,1-.085.594,1.356,1.356,0,0,0,0,1.536Z" transform="translate(61.152 -237.742)"/><path class="a" d="M-.028,294.268a2.862,2.862,0,0,0-2.858,2.858,2.862,2.862,0,0,0,2.858,2.858,2.862,2.862,0,0,0,2.858-2.858,2.862,2.862,0,0,0-2.858-2.858Zm0,5.035A2.179,2.179,0,0,1-2.2,297.127,2.179,2.179,0,0,1-.028,294.95a2.179,2.179,0,0,1,2.176,2.176A2.179,2.179,0,0,1-.028,299.3Z" transform="translate(18.119 -284.572)"/></g></g></svg>