<svg xmlns="http://www.w3.org/2000/svg" xmlns:xlink="http://www.w3.org/1999/xlink" width="524.492" height="312" viewBox="0 0 524.492 312"><defs><style>.a{fill:none;}.b{fill:#e7f3fe;}.c{fill:#303c60;}.d{fill:#e38540;}.e{fill:#6791c9;}.f{clip-path:url(#a);}.g{fill:#75a1de;}.h{fill:#2e5b9a;}.i{fill:#f09959;}.j{fill:#a8ceff;}.k{fill:#d3262a;}.l{fill:#f39892;}.m{fill:#f2e5de;}.n{fill:#9ec8ff;}.o{fill:#fff;}.p{fill:#9cd499;}.q{fill:#74b570;}.r{fill:#d54a41;}</style><clipPath id="a"><path class="a" d="M2271.852-677.63c-133.6-7.776-240.746-149.121-169.653-231.152,55.137-63.62,128.653,28.983,197.221-17.672,105.49-71.776,276.392-84.827,299.013,5.655S2546.124-688.94,2490.28-680.457,2271.852-677.63,2271.852-677.63Z" transform="translate(-2079.542 984.505)"/></clipPath></defs><g transform="translate(-2079.542 984.505)"><path class="b" d="M2271.852-677.63c-133.6-7.776-240.746-149.121-169.653-231.152,55.137-63.62,128.653,28.983,197.221-17.672,105.49-71.776,276.392-84.827,299.013,5.655S2546.124-688.94,2490.28-680.457,2271.852-677.63,2271.852-677.63Z" transform="translate(0 0)"/><path class="c" d="M2358.58-772.213c1.414,33.931,1.06,52.31-11.31,66.448s-47.008,10.6-47.008,10.6-3.417,49.953-51.838,52.074-55.373-62.206-17.436-78.7c36.113-15.7,47.6-20.264,60.085-59.143,11.409-35.517,47.008-28.747,55.49-13.9S2358.58-772.213,2358.58-772.213Z" transform="translate(-69.41 -96.983)"/><path class="d" d="M2506.2-355.836s22.856,4.477,24.034,4.241,26.155-11.31,28.747-9.661,17.672,8.011,20.971,9.425-1.885,1.885-4.477,1.885-17.437-6.126-19.086-4.948,12.959,3.535,12.959,4.477-39.115,9.9-41.47,9.9-20.5-1.649-20.5-1.649Z" transform="translate(-232.936 -340.173)"/><path class="e" d="M2464.426-624.033c12.312,2.416,19.557,15.444,21.914,26.856S2464.426-624.033,2464.426-624.033Z" transform="translate(-210.128 -196.8)"/><g transform="translate(2079.542 -984.505)"><g class="f"><path class="g" d="M2369.726-646.992s-23.68,15.9-36.4,23.681,4.594,91.542,8.836,122.645,77.758,2.828,77.758,2.828-4.948-26.155,1.413-68.215c4.557-30.127-12.135-49.011-21.677-62.088C2375.565-661.148,2369.726-646.992,2369.726-646.992Z" transform="translate(-2215.587 801.887)"/><path class="e" d="M2342.568-590.431c27.215,33.224,36.415,39.435,29.69,61.853-5.3,17.672-7.069,24.034-8.129,30.042s50.542-3.888,50.542-3.888l-.354,19.439s-40.646,19.44-60.439,23.327-32.163-.706-32.163-.706Z" transform="translate(-2211.757 769.359)"/></g></g><path class="h" d="M2725.97-307.474h-322a4.209,4.209,0,0,1-4.209-4.209,4.209,4.209,0,0,1,4.209-4.209h322a4.209,4.209,0,0,1,4.209,4.209A4.209,4.209,0,0,1,2725.97-307.474Z" transform="translate(-174.824 -365.03)"/><path class="i" d="M2423.486-717.055l-12.252,36.287s13.431,36.4,24.741,28.276c3.861-2.776-1.414-24.741-1.414-24.741l8.247-29.454Z" transform="translate(-181.088 -146.015)"/><path class="i" d="M2314.4-593.575c-16.92,1.88-18.379,24.741-26.155,62.913s-5.439,63.367-1.768,68.214c8.836,11.664,108.154-28.982,120.524-28.629,8.538.244,1.414-14.138,1.414-14.138l-94.723,14.491s13.431-44.181,13.431-66.8S2320.759-594.282,2314.4-593.575Z" transform="translate(-111.113 -213.415)"/><path class="i" d="M2517.853-404.918c9.9-2.474,24.387-8.129,27.215-5.655s14.491,20.147,18.379,25.095-1.767,1.06-6.009-2.828a54,54,0,0,0-7.776-6.008,66.85,66.85,0,0,1-10.25,7.776c-4.948,2.827-6.716-2.828-15.2-4.242s-29.689,6.009-29.689,6.009Z" transform="translate(-226.561 -313.005)"/><path class="g" d="M2317.358-600.154c-10.368.471-18.379,9.189-21.207,22.62s-11.075,56.08-11.075,56.08-1.649,1.178,15.552,4.241a82.852,82.852,0,0,0,31.339-.471s3.535-24.27,2.592-41-4.712-32.517-10.838-37.936S2317.358-600.154,2317.358-600.154Z" transform="translate(-112.189 -209.664)"/><path class="d" d="M2445.7-677.234l8.247-29.454-19.322-10.368-2.951,8.74c-.642,29.262,6.854,39.048,11.905,42.626,1.577,1.117,2.935.254,4.072-1.571C2446.819-672.564,2445.7-677.234,2445.7-677.234Z" transform="translate(-192.225 -146.015)"/><path class="i" d="M2488.749-741.829c0,15.764-1.882,35.093-15.552,34.637-21.206-.707-34.569-17.192-34.569-32.956s11.088-28.544,24.766-28.544S2488.749-757.593,2488.749-741.829Z" transform="translate(-196.044 -117.824)"/><path class="j" d="M2801.981-406.567h-79.5l32.7-71.94a5.88,5.88,0,0,1,5.354-3.447h72.147a2.3,2.3,0,0,1,2.09,3.246Z" transform="translate(-351.015 -274.369)"/><path class="j" d="M2720.846-327.046H2574.184a9.252,9.252,0,0,1,9.252-9.252h137.41Z" transform="translate(-270.051 -353.89)"/><path class="g" d="M2842.983-481.954H2779.4a5.88,5.88,0,0,0-5.353,3.447l-32.7,71.94h70.932l32.792-72.141A2.3,2.3,0,0,0,2842.983-481.954Z" transform="translate(-361.315 -274.369)"/><path class="c" d="M2469.462-780.826c15.021-1.061,23.917,12.665,26.508,24.682,1.87,8.671.943,10.368.943,10.368s-1.649,2.357-13.431,3.063-13.2.471-13.2.471l-.707-13.666-3.535,13.2s-1.885,2.592-9.189-.943-10.6-15.316-10.6-15.316-1.65-7.776,4.006-12.959S2469.462-780.826,2469.462-780.826Z" transform="translate(-200.084 -111.167)"/><path class="k" d="M2438.135-726.206c-1.441,9.535-9.052,16.291-17,15.09s-13.222-9.9-11.781-19.44,9.051-16.291,17-15.09S2439.575-735.741,2438.135-726.206Z" transform="translate(-179.932 -130.33)"/><path class="l" d="M2432.324-724.661c-1.334,8.829-7.583,15.206-13.957,14.243s-10.459-8.9-9.125-17.73,7.583-15.206,13.957-14.242S2433.658-733.49,2432.324-724.661Z" transform="translate(-179.863 -132.13)"/><path class="m" d="M2427.7-719c-.733,4.851-3.375,8.473-5.9,8.092s-3.981-4.624-3.248-9.474,3.375-8.474,5.9-8.092S2428.431-723.847,2427.7-719Z" transform="translate(-184.977 -139.767)"/><path class="k" d="M2438.089-770.034c6.892-25.625,30.684-21.887,36.7-18.32,5.066,3,5.772,7.246,5.772,7.246s-6.539-5.3-17.672-3.358c-10.564,1.844-16.847,8.07-17.731,14.962C2444.708-765.99,2438.089-770.034,2438.089-770.034Z" transform="translate(-195.75 -105.701)"/><g transform="translate(2136.056 -880.816)"><path class="c" d="M2204.555-668.337l-.052,0a.545.545,0,0,1-.491-.594c.619-6.48,3.858-13.141,9.12-18.756,5.95-6.349,14.417-11.351,24.486-14.465,22.437-6.939,42.009-15.762,54.308-53.607a.546.546,0,0,1,.687-.35.545.545,0,0,1,.35.687c-5.653,17.393-13.347,30.056-23.521,38.713-8.975,7.635-19.083,11.758-31.5,15.6-9.889,3.058-18.192,7.958-24.012,14.169-5.1,5.44-8.234,11.873-8.83,18.115A.546.546,0,0,1,2204.555-668.337Z" transform="translate(-2204.009 756.139)"/></g><g transform="translate(2146.188 -877.281)"><path class="c" d="M2226.87-690.242a.545.545,0,0,1-.431-.211.545.545,0,0,1,.1-.764,65.426,65.426,0,0,1,23.544-10.469c26.612-5.864,44.479-21.866,51.668-46.276a.545.545,0,0,1,.677-.369.545.545,0,0,1,.369.677c-4.442,15.08-12.8,26.981-24.834,35.372a76.948,76.948,0,0,1-27.645,11.66,64.276,64.276,0,0,0-23.111,10.266A.544.544,0,0,1,2226.87-690.242Z" transform="translate(-2226.324 748.354)"/></g><g transform="translate(2359.506 -914.575)"><path class="n" d="M2914.578-695.08l-74.492,1.107a1.191,1.191,0,0,1-1.257-1.155l.257-38.549a1.254,1.254,0,0,1,1.272-1.193l74.492-1.107a1.19,1.19,0,0,1,1.256,1.155l-.257,38.549A1.254,1.254,0,0,1,2914.578-695.08Z" transform="translate(-2774.041 778.891)"/><path class="o" d="M2915.03-694.663l-71.281,1.059a1.111,1.111,0,0,1-1.173-1.078l.234-35.1A1.171,1.171,0,0,1,2844-730.9l71.281-1.059a1.111,1.111,0,0,1,1.173,1.078l-.234,35.1A1.171,1.171,0,0,1,2915.03-694.663Z" transform="translate(-2776.086 776.696)"/><path class="n" d="M2915.329-694.129l-66.917.994a1.25,1.25,0,0,1-1.32-1.213l.2-30.257a1.316,1.316,0,0,1,1.335-1.252l66.918-.994a1.249,1.249,0,0,1,1.319,1.213l-.2,30.257A1.317,1.317,0,0,1,2915.329-694.129Z" transform="translate(-2778.552 773.908)"/><ellipse class="o" cx="12.245" cy="11.335" rx="12.245" ry="11.335" transform="matrix(0.989, -0.145, 0.145, 0.989, 89.667, 54.476)"/><path class="n" d="M2921.8-701.635c-.036,5.4-4.779,9.846-10.594,9.933s-10.5-4.22-10.463-9.62,4.779-9.846,10.593-9.932S2921.833-707.034,2921.8-701.635Z" transform="translate(-2807.842 765.394)"/><path class="o" d="M2926.077-695.867l-3.862,2.121-3.863,2.12.028-4.127.027-4.127,3.835,2.006Z" transform="translate(-2817.457 759.183)"/><g transform="translate(0.309 28.703)"><path class="p" d="M2707.574-753.6l-5.869.087a5.086,5.086,0,0,1-3.353-1.229,4.2,4.2,0,0,1-1.533-3.173l.036-5.449a4,4,0,0,1,4.118-3.817l5.868-.087a5.09,5.09,0,0,1,3.354,1.229,4.2,4.2,0,0,1,1.532,3.173l-.037,5.449A4,4,0,0,1,2707.574-753.6Zm-5.792-11.493a2.576,2.576,0,0,0-2.525,2.412l-.036,5.449a1.638,1.638,0,0,0,.52,1.265,1.724,1.724,0,0,0,1.156.366l5.869-.087a2.543,2.543,0,0,0,2.525-2.412l.037-5.449a1.637,1.637,0,0,0-.519-1.265,1.725,1.725,0,0,0-1.156-.366Z" transform="translate(-2696.819 767.273)"/></g><g transform="translate(0.154 51.864)"><path class="p" d="M2707.234-702.594l-5.869.087a5.091,5.091,0,0,1-3.354-1.229,4.2,4.2,0,0,1-1.533-3.173l.036-5.449a4,4,0,0,1,4.118-3.817l5.869-.087a5.09,5.09,0,0,1,3.354,1.229,4.2,4.2,0,0,1,1.532,3.173l-.036,5.45A4,4,0,0,1,2707.234-702.594Zm-5.792-11.494a2.577,2.577,0,0,0-2.525,2.412l-.036,5.45a1.636,1.636,0,0,0,.52,1.265,1.727,1.727,0,0,0,1.155.366l5.869-.087a2.544,2.544,0,0,0,2.525-2.412l.036-5.45a1.634,1.634,0,0,0-.519-1.265,1.725,1.725,0,0,0-1.156-.366Z" transform="translate(-2696.479 716.263)"/></g><g transform="translate(0 75.025)"><path class="n" d="M2706.894-651.584l-5.869.087a5.089,5.089,0,0,1-3.354-1.229,4.2,4.2,0,0,1-1.533-3.172l.036-5.449a4,4,0,0,1,4.118-3.818l5.869-.087a5.089,5.089,0,0,1,3.354,1.229,4.2,4.2,0,0,1,1.533,3.172l-.036,5.449A4,4,0,0,1,2706.894-651.584Zm-5.791-11.493a2.543,2.543,0,0,0-2.525,2.411l-.037,5.449a1.639,1.639,0,0,0,.52,1.266,1.724,1.724,0,0,0,1.156.366l5.869-.087a2.543,2.543,0,0,0,2.525-2.411l.037-5.45a1.637,1.637,0,0,0-.52-1.265,1.722,1.722,0,0,0-1.155-.366Z" transform="translate(-2696.139 665.253)"/></g><path class="n" d="M2782.944-750.964l-32.279.479a1.039,1.039,0,0,1-1.094-1.005,1.1,1.1,0,0,1,1.107-1.038l32.279-.479a1.039,1.039,0,0,1,1.094,1.005A1.094,1.094,0,0,1,2782.944-750.964Z" transform="translate(-2725.31 788.188)"/><path class="n" d="M2782.884-741.962l-32.278.48a1.039,1.039,0,0,1-1.094-1.005,1.094,1.094,0,0,1,1.107-1.038l32.279-.479a1.039,1.039,0,0,1,1.094,1.005A1.094,1.094,0,0,1,2782.884-741.962Z" transform="translate(-2725.278 783.273)"/><path class="n" d="M2782.628-703.7l-32.279.48a1.039,1.039,0,0,1-1.093-1.006,1.094,1.094,0,0,1,1.107-1.038l32.279-.48a1.04,1.04,0,0,1,1.094,1.006A1.1,1.1,0,0,1,2782.628-703.7Z" transform="translate(-2725.138 762.387)"/><path class="n" d="M2782.568-694.7l-32.279.479a1.039,1.039,0,0,1-1.094-1.005,1.094,1.094,0,0,1,1.107-1.038l32.279-.48a1.039,1.039,0,0,1,1.093,1.006A1.094,1.094,0,0,1,2782.568-694.7Z" transform="translate(-2725.105 757.472)"/><path class="n" d="M2782.278-651.193l-32.279.479a1.039,1.039,0,0,1-1.093-1.005,1.094,1.094,0,0,1,1.107-1.038l32.279-.479a1.038,1.038,0,0,1,1.094,1.005A1.1,1.1,0,0,1,2782.278-651.193Z" transform="translate(-2724.947 733.718)"/><path class="n" d="M2782.218-642.193l-32.279.48a1.039,1.039,0,0,1-1.094-1.005,1.1,1.1,0,0,1,1.107-1.038l32.279-.48a1.039,1.039,0,0,1,1.094,1.006A1.1,1.1,0,0,1,2782.218-642.193Z" transform="translate(-2724.914 728.804)"/><g transform="translate(2.727 26.886)"><path class="k" d="M2707.935-758.816a1.392,1.392,0,0,1-.311-.032,1.822,1.822,0,0,1-.991-.606l-4.184-5.046c-.441-.532-.4-1.144.1-1.368a1.577,1.577,0,0,1,1.7.557l3.132,3.777,9.482-9.512a1.312,1.312,0,0,1,1.659.166c.558.451.72,1.108.362,1.468l-10.339,10.37A.859.859,0,0,1,2707.935-758.816Z" transform="translate(-2702.145 771.275)"/></g><g transform="translate(2.573 50.047)"><path class="k" d="M2707.6-707.806a1.363,1.363,0,0,1-.312-.032,1.827,1.827,0,0,1-.991-.607l-4.184-5.046c-.44-.532-.4-1.144.1-1.368a1.575,1.575,0,0,1,1.7.557l3.131,3.776,9.482-9.512a1.313,1.313,0,0,1,1.66.166c.558.451.72,1.108.362,1.467L2708.2-708.033A.858.858,0,0,1,2707.6-707.806Z" transform="translate(-2701.805 720.265)"/></g><path class="n" d="M2991.877-822.316l-123.98,1.843.055-8.174,123.979-1.843Z" transform="translate(-2789.911 830.49)"/><path class="n" d="M2991.7-795.31l-123.979,1.843.054-8.174,123.979-1.843Z" transform="translate(-2789.813 815.746)"/><path class="n" d="M2809.239-571.183,2718.2-569.83a2.043,2.043,0,0,1-2.15-1.976,2.152,2.152,0,0,1,2.177-2.041l91.043-1.353a2.042,2.042,0,0,1,2.149,1.976A2.151,2.151,0,0,1,2809.239-571.183Z" transform="translate(-2707.007 691.113)"/><path class="n" d="M2809.108-551.524l-91.043,1.353a2.042,2.042,0,0,1-2.149-1.977,2.151,2.151,0,0,1,2.176-2.04l91.043-1.353a2.043,2.043,0,0,1,2.15,1.977A2.151,2.151,0,0,1,2809.108-551.524Z" transform="translate(-2706.936 680.381)"/></g><g transform="translate(2498.463 -835.03)"><path class="p" d="M3026.306-520.482c0-1.473,17.729-50.47,5.742-82.012-8.393-22.086-9.718-48.589-9.718-48.589s-16.344,23.411-5.3,59.191c6.8,22.022,9.571,28.123,10.159,34.6s-2.65,38.871-2.65,38.871Z" transform="translate(-3008.196 652.998)"/><g transform="translate(4.479 1.369)"><path class="q" d="M3023.908-518.531a.543.543,0,0,1-.214-.044.544.544,0,0,1-.328-.555c.032-.323,3.227-32.415,2.65-38.768-.384-4.227-1.69-8.222-4.55-16.977-1.465-4.484-3.289-10.064-5.587-17.513-5.742-18.605-3.984-33.822-1.5-43.312,2.7-10.3,6.7-16.11,6.872-16.352a.546.546,0,0,1,.6-.212.546.546,0,0,1,.394.5c.013.264,1.418,26.674,9.683,48.423,4.482,11.8,5.382,27.35,2.675,46.232a230.438,230.438,0,0,1-7.662,33.463c-.375,1.254-.7,2.337-.721,2.536a.481.481,0,0,1-.13.33l-1.767,2.061A.545.545,0,0,1,3023.908-518.531Zm-2.64-131.476a59.726,59.726,0,0,0-5.846,14.635c-2.441,9.342-4.162,24.327,1.5,42.663,2.3,7.44,4.118,13.016,5.582,17.5,2.887,8.835,4.2,12.867,4.6,17.217.515,5.668-1.815,30.4-2.481,37.253l.539-.628c.063-.324.253-.97.738-2.589,10.238-34.227,11.925-60.8,5.012-79C3023.8-621.668,3021.729-643.78,3021.268-650.008Z" transform="translate(-3012.043 652.284)"/></g><path class="p" d="M3050.091-517.778c-2.651-54.479,10.307-84.221,36.81-107.78s27.68-29.742,27.68-29.742-4.123,45.939-19.436,61.841-37.693,27.681-40.933,35.927-2.062,35.927-2.062,35.927l-2.061,5.006Z" transform="translate(-3028.151 655.3)"/><path class="p" d="M3043.352-413.213c-.295-.884,5.595-50.945,27.092-53.89s26.5,2.061,41.227-.295a91.935,91.935,0,0,0,18.552-5.006s-5.577,14.194-24.737,20.025c-13.546,4.123-31.215-2.651-41.521-.884s-15.607,23.853-15.607,23.853l-1.767,11.485Z" transform="translate(-3024.652 555.447)"/><g transform="translate(20.824 16.83)"><path class="q" d="M3048.862-500.236a.544.544,0,0,1-.541-.494c-.033-.352-3.083-35.522,11.845-62.45,7.711-13.909,16.131-21.97,24.273-29.766,7.586-7.262,14.75-14.122,20.183-24.987a.545.545,0,0,1,.731-.244.545.545,0,0,1,.244.731c-5.518,11.035-12.749,17.958-20.4,25.287-8.084,7.74-16.444,15.742-24.074,29.507-14.762,26.629-11.745,61.472-11.714,61.821a.545.545,0,0,1-.492.593Z" transform="translate(-3048.043 618.234)"/></g><g transform="translate(19.627 88.399)"><path class="q" d="M3045.951-421.248a.533.533,0,0,1-.152-.022.544.544,0,0,1-.372-.675c5.637-19.43,12.107-30.765,20.359-35.675,7.378-4.39,15-3.042,23.077-1.616,1.977.349,4.02.71,6.042.975,17.543,2.3,26.1-1.962,26.183-2.006a.546.546,0,0,1,.733.235.545.545,0,0,1-.233.734c-.355.184-8.9,4.469-26.825,2.118-2.046-.268-4.1-.632-6.09-.983-7.867-1.39-15.3-2.7-22.33,1.479-8,4.759-14.315,15.894-19.87,35.042A.545.545,0,0,1,3045.951-421.248Z" transform="translate(-3045.405 460.609)"/></g><g transform="translate(47.75 40.388)"><path class="q" d="M3107.889-554.511a.544.544,0,0,1-.432-.212.545.545,0,0,1,.1-.764,66,66,0,0,1,25.113-10.853.546.546,0,0,1,.638.433.545.545,0,0,1-.432.637,64.776,64.776,0,0,0-24.653,10.645A.543.543,0,0,1,3107.889-554.511Z" transform="translate(-3107.344 566.349)"/></g><g transform="translate(31.112 52.756)"><path class="q" d="M3071.245-515.934a.543.543,0,0,1-.277-.076.545.545,0,0,1-.191-.747c7.669-12.931,16.649-16.19,36.232-22.328a.546.546,0,0,1,.683.357.546.546,0,0,1-.357.683c-19.306,6.051-28.156,9.257-35.621,21.844A.543.543,0,0,1,3071.245-515.934Z" transform="translate(-3070.7 539.11)"/></g><path class="l" d="M3029.074-348.649h-13.151a9.676,9.676,0,0,1-9.5-7.859l-4.24-22.178h40.638l-4.24,22.178A9.676,9.676,0,0,1,3029.074-348.649Z" transform="translate(-3002.179 504.282)"/><g transform="translate(0.236 129.071)"><path class="r" d="M3042.07-368.854h-38.282a1.09,1.09,0,0,1-1.09-1.09,1.09,1.09,0,0,1,1.09-1.09h38.282a1.09,1.09,0,0,1,1.09,1.09A1.09,1.09,0,0,1,3042.07-368.854Z" transform="translate(-3002.698 371.033)"/></g></g></g></svg>