<svg xmlns="http://www.w3.org/2000/svg" width="56.567" height="56.566" viewBox="0 0 56.567 56.566"><defs><style>.a{fill:#3d6d93;}.b{fill:#335e80;}.c{fill:#e9f5ff;}.d{fill:#2e5973;}.e{fill:#aee69c;}.f{fill:#89daa4;}.g{fill:#ffcebf;}.h{fill:#ffb09e;}.i{fill:#e19974;}.j{fill:#dc8758;}.k{fill:#f58a97;}.l{fill:#f07281;}.m{fill:#fff;}</style></defs><g transform="translate(0 18.732)"><path class="a" d="M68.605,203.968H15.453V172.962a3.414,3.414,0,0,1,3.414-3.414H65.191a3.414,3.414,0,0,1,3.414,3.414Z" transform="translate(-13.746 -169.548)"/><path class="b" d="M438.151,169.548h-3.414a3.414,3.414,0,0,1,3.414,3.414v29.3h3.414v-29.3A3.414,3.414,0,0,0,438.151,169.548Z" transform="translate(-386.707 -169.548)"/><path class="c" d="M46.358,231.46V201.251a.8.8,0,0,1,.8-.8h44.73a.8.8,0,0,1,.8.8V231.46Z" transform="translate(-41.236 -197.039)"/><path class="b" d="M55.77,465.642H.8a.8.8,0,0,0-.8.8,4.325,4.325,0,0,0,4.325,4.325H52.242a4.325,4.325,0,0,0,4.325-4.325A.8.8,0,0,0,55.77,465.642Z" transform="translate(0 -432.929)"/><path class="d" d="M448.891,465.642h-3.414a.8.8,0,0,1,.8.8,4.325,4.325,0,0,1-4.325,4.325h3.414a4.325,4.325,0,0,0,4.325-4.325A.8.8,0,0,0,448.891,465.642Z" transform="translate(-393.121 -432.929)"/></g><path class="e" d="M92.8,227.463V211.757a5.349,5.349,0,0,1,3.462-5.005l8.651-3.261a2.273,2.273,0,0,0,.956-.685c.327-.4,2.225-.906,2.225-1.445v-3.48h5.474v3.48c0,.474,1.854.923,2.112,1.295a2.273,2.273,0,0,0,1.069.835l8.651,3.261a5.349,5.349,0,0,1,3.462,5.005v15.706H92.8Z" transform="translate(-82.545 -176.018)"/><g transform="translate(29.313 21.862)"><path class="f" d="M278.86,206.752l-8.651-3.261a2.273,2.273,0,0,1-.956-.685c-.327-.4-2.225-.906-2.225-1.445v-3.48h-1.707v5.188a2.276,2.276,0,0,0,1.473,2.13l8.651,3.261a5.349,5.349,0,0,1,3.462,5.005v14h3.414V211.757A5.349,5.349,0,0,0,278.86,206.752Z" transform="translate(-265.321 -197.88)"/></g><path class="g" d="M216.046,205.708a5.691,5.691,0,0,0,4.962-2.9,2.274,2.274,0,0,1-.518-1.445v-3.48H211.6v3.48a2.274,2.274,0,0,1-.518,1.445A5.691,5.691,0,0,0,216.046,205.708Z" transform="translate(-187.763 -176.018)"/><path class="h" d="M266.72,205.165a5.721,5.721,0,0,0,2.536-2.36h0a2.295,2.295,0,0,1-.518-1.445v-3.48h-3.414v5.188a2.274,2.274,0,0,0,1.4,2.1Z" transform="translate(-236.01 -176.018)"/><g transform="translate(16.753)"><g transform="translate(0 10.812)"><path class="h" d="M153.82,102.233h2.845V97.862H153.82a2.186,2.186,0,0,0,0,4.371Z" transform="translate(-151.634 -97.862)"/><path class="g" d="M317.68,102.233h-2.845V97.862h2.845a2.186,2.186,0,0,1,0,4.371Z" transform="translate(-296.804 -97.862)"/></g><g transform="translate(3.323)"><path class="i" d="M198.127,10.882H181.712V3.672A3.672,3.672,0,0,1,185.384,0h9.071a3.672,3.672,0,0,1,3.672,3.672Z" transform="translate(-181.712)"/><path class="j" d="M269.562,0h-3.414a3.672,3.672,0,0,1,3.672,3.672v7.21h3.414V3.672A3.672,3.672,0,0,0,269.562,0Z" transform="translate(-256.819)"/><path class="g" d="M198.128,73.608a4.238,4.238,0,0,0-2.354-2.216c-1.418-.421-2.161.549-4.087.543-2.191-.007-2.709-1.267-4.476-1.406-1.27-.1-3.1.387-5.5,3.08V79.4a7.417,7.417,0,0,0,8.3,7.8s3.071-.075,4.352-.9a8.2,8.2,0,0,0,3.76-6.9V73.608Z" transform="translate(-181.713 -62.726)"/><g transform="translate(3.763 8.56)"><path class="h" d="M226.071,77.582c-1-.3-1.666.1-2.649.355A4.933,4.933,0,0,1,225.01,79.8v5.787a6.847,6.847,0,0,1-9.237,6.9,8.6,8.6,0,0,0,3.953,1.292q.251.015.492.015a8.209,8.209,0,0,0,8.207-8.21V79.8A4.239,4.239,0,0,0,226.071,77.582Z" transform="translate(-215.773 -77.476)"/></g><g transform="translate(3.394 12.968)"><path class="d" d="M213.286,120.665a.854.854,0,0,1-.854-.854v-1.585a.854.854,0,1,1,1.707,0v1.585A.854.854,0,0,1,213.286,120.665Z" transform="translate(-212.432 -117.373)"/></g><g transform="translate(11.314 12.968)"><path class="d" d="M284.971,120.665a.854.854,0,0,1-.854-.854v-1.585a.854.854,0,0,1,1.707,0v1.585A.854.854,0,0,1,284.971,120.665Z" transform="translate(-284.117 -117.373)"/></g><g transform="translate(5.77 19.193)"><path class="h" d="M236.373,175.839h-.044a4.161,4.161,0,0,1-1.951-.511.854.854,0,1,1,.821-1.5,2.436,2.436,0,0,0,2.347,0,.854.854,0,1,1,.821,1.5A4.16,4.16,0,0,1,236.373,175.839Z" transform="translate(-233.935 -173.725)"/></g></g></g><g transform="translate(8.798 33.104)"><g transform="translate(4.803)"><path class="k" d="M149.055,319.684H126.519a3.414,3.414,0,0,1-3.414-3.414V303.05a3.414,3.414,0,0,1,3.414-3.414h22.536a3.414,3.414,0,0,1,3.414,3.414v13.219A3.415,3.415,0,0,1,149.055,319.684Z" transform="translate(-123.105 -299.636)"/><path class="l" d="M330.5,299.635h-3.414a3.414,3.414,0,0,1,3.414,3.414v13.219a3.414,3.414,0,0,1-3.414,3.414H330.5a3.414,3.414,0,0,0,3.414-3.414V303.05A3.415,3.415,0,0,0,330.5,299.635Z" transform="translate(-304.549 -299.635)"/><rect class="m" width="20" height="3" rx="1.5" transform="translate(3.399 1.896)"/><rect class="m" width="14" height="2" rx="1" transform="translate(3.399 6.896)"/><rect class="m" width="12" height="2" rx="1" transform="translate(3.399 10.896)"/></g><g transform="translate(0 7.045)"><path class="g" d="M84.4,371.064H81.938a2.307,2.307,0,0,1-2.307-2.307v-3.051a2.307,2.307,0,0,1,2.307-2.307H84.4a1.11,1.11,0,0,1,1.11,1.11v5.446A1.11,1.11,0,0,1,84.4,371.064Z" transform="translate(-79.631 -363.398)"/><path class="h" d="M102.845,363.4h-2.482a1.109,1.109,0,0,1,1.093,1.109v5.446a1.109,1.109,0,0,1-1.093,1.109h2.482a1.11,1.11,0,0,0,1.11-1.11v-5.446a1.11,1.11,0,0,0-1.11-1.11Z" transform="translate(-98.072 -363.399)"/><g transform="translate(33.089)"><path class="g" d="M380.239,371.064H382.7a2.307,2.307,0,0,0,2.307-2.307v-3.051A2.307,2.307,0,0,0,382.7,363.4h-2.465a1.11,1.11,0,0,0-1.11,1.11v5.446A1.11,1.11,0,0,0,380.239,371.064Z" transform="translate(-379.129 -363.398)"/></g><path class="h" d="M390.662,363.4H388.2a1.107,1.107,0,0,0-.121.007,2.305,2.305,0,0,1,2.17,2.3v3.051a2.305,2.305,0,0,1-2.17,2.3,1.122,1.122,0,0,0,.121.007h2.465a2.307,2.307,0,0,0,2.307-2.307v-3.051A2.307,2.307,0,0,0,390.662,363.4Z" transform="translate(-353.998 -363.399)"/></g></g></svg>