<svg xmlns="http://www.w3.org/2000/svg" xmlns:xlink="http://www.w3.org/1999/xlink" width="17" height="17.479" viewBox="0 0 17 17.479"><defs><style>.a{fill:#ffc107;}.b{filter:url(#a);}</style><filter id="a" x="0" y="0" width="17" height="17.479" filterUnits="userSpaceOnUse"><feOffset dy="2" input="SourceAlpha"/><feGaussianBlur stdDeviation="0.5" result="b"/><feFlood flood-opacity="0.161"/><feComposite operator="in" in2="b"/><feComposite in="SourceGraphic"/></filter></defs><g class="b" transform="matrix(1, 0, 0, 1, 0, 0)"><path class="a" d="M13.628,5.015l-4.3-.657L7.4.249a.455.455,0,0,0-.792,0L4.675,4.358l-4.3.657a.437.437,0,0,0-.247.738l3.127,3.2-.739,4.531a.438.438,0,0,0,.643.453L7,11.817l3.844,2.125a.438.438,0,0,0,.643-.453l-.739-4.531,3.127-3.2a.438.438,0,0,0-.247-.738Z" transform="translate(1.5 -0.02)"/></g></svg>