<svg xmlns="http://www.w3.org/2000/svg" width="626.539" height="353.769" viewBox="0 0 626.539 353.769"><defs><style>.a{fill:#e7f3fe;}.b{fill:#75a1de;}.c{fill:#f09959;}.d{fill:#e38540;}.e{fill:#a2dff2;}.f{fill:#96cfe0;}.g{fill:#fff;}.h{fill:#d3262a;}.i{fill:#6791c9;}.j{fill:#95bef5;}.k,.l{fill:#2e5b9a;}.l{opacity:0.5;}.m{fill:#9ec8ff;}.n{fill:#9cd499;}.o{fill:#74b570;}.p{fill:#f39892;}</style></defs><g transform="translate(-216.758 -1044.058)"><path class="a" d="M316.753,1388s-130.6-235.2-32.84-290.086c77.995-43.787,146.411,32.84,229.879-20.525,107.685-68.847,189.318-22.756,247.668,62.943,43.786,64.312,66.977,105.912,88.941,155.989,34.208,77.995-38.313,95.783-38.313,95.783Z" transform="translate(-16.273)"/><path class="b" d="M1089.509,1765l-59.541.108a2.064,2.064,0,0,1-.182-3.977l59.3-5.326c4.815-.433,9.2,1.432,9.325,4.181S1094.344,1764.989,1089.509,1765Z" transform="translate(-428.18 -375.466)"/><g transform="translate(503.414 1345.411)"><path class="c" d="M904.358,1717.634c2.052-.513,5.816-11.745,5.816-11.745s-43-14.5-61.233-23.946l-25.405,29.386C856.169,1719.458,902.836,1718.014,904.358,1717.634Z" transform="translate(-823.535 -1681.943)"/><path class="c" d="M977.306,1719.343c10.581,2.737,27.416-4.1,30.562-3.42s16.3,7.525,19.447,10.946,14.3,14.026,12.3,14.709-16.015-9.577-17.731-9.92-2.574,2.053-16.587,4.79-30.953-4.333-30.953-4.333Z" transform="translate(-903.096 -1699.844)"/><path class="d" d="M1016.252,1741.758s16.3-4.1,18.3-3.42,14.156,3.42,22.592,13c-8.007-2.4-19.447-3.079-22.592-3.079S1016.252,1741.758,1016.252,1741.758Z" transform="translate(-925.208 -1711.655)"/><path class="c" d="M994.6,1731.183c6.961,8.895,24.632,11.631,27.309,14.709s-6.437,1.772-11.245,1.368c-12.238-1.026-20.788,3.934-30.694.855s-12.144-10.433-12.144-10.433Z" transform="translate(-899.658 -1707.921)"/></g><path class="e" d="M677.033,1395.554c-31.4,15.428-45.765,26.716-55.514,68.791s-10.261,82.1-5.131,111.854c34.851,1.012,134.739,4.775,134.739,4.775s-1.9-61.1-12.109-109.446c-9.749-46.179-23.6-64.137-35.4-72.347S677.033,1395.554,677.033,1395.554Z" transform="translate(-209.137 -184.768)"/><path class="f" d="M684.636,1563.7c-11.255-11.286-8.209-87.74-26.681-122.117l-34.377,64.137-10.392,53.365a241.951,241.951,0,0,0,3.209,42.07,1.366,1.366,0,0,0,1.47,1.121c28.379-2.484,29.961-14.819,120.612-28.5C740.615,1573.452,692.294,1571.38,684.636,1563.7Z" transform="translate(-209.142 -209.724)"/><path class="g" d="M740.887,1395.47c-3.978,9.282,4.1,21.437,16.876,31.015s20.525,4.333,19.841-3.192-1.368-15.508-4.333-20.3-26.682-8.894-26.682-8.894S741.571,1393.873,740.887,1395.47Z" transform="translate(-275.979 -184.668)"/><path class="c" d="M759.735,1298.525l-12.177,46.512a10.658,10.658,0,0,0,.887,9.44c4.96,8.009,15.627,23.4,23.263,21.364,10.263-2.737,3.421-21.893,3.421-21.893l13.683-48.238Z" transform="translate(-279.662 -134.25)"/><path class="d" d="M795.965,1299.109l-12.157-4.92-3.652,9.495c1.675,40.426,6.825,56.925,14.732,61.524.425-6.235-2.186-13.549-2.186-13.549l9.921-35.923Z" transform="translate(-297.234 -131.963)"/><path class="c" d="M830.209,1302.13c-2.371,16.055-8.7,29.811-20.165,28.118s-31.157-15.129-28.786-31.184,28.113-35.281,39.581-33.587S832.581,1286.074,830.209,1302.13Z" transform="translate(-297.713 -116.76)"/><path class="c" d="M624.578,1466.161c.915-3.646-13.69-5.826-16.013-2.871-22.975,29.22-58.713,108.158-50.689,122.422,9.236,16.42,108.739-5.143,110.792-5.656s-3.592-15.907-3.592-15.907-55.759,1.026-65.167-5.3C629.155,1503.945,617.649,1493.79,624.578,1466.161Z" transform="translate(-179.358 -220.448)"/><path class="e" d="M632.252,1435.149c-24.134,10.819-50.283,81.07-50.283,81.07s6.157,1.539,26.168,8.209c8.318,2.773,16.379,5.344,16.379,5.344s19.156-24.858,25.182-44.34C657.46,1460.337,647.132,1428.479,632.252,1435.149Z" transform="translate(-192.676 -205.856)"/><g transform="translate(391.881 1291.536)"><path class="g" d="M587.447,1587.852c22.573,2.911,36.062,10.771,42.916,16.14,1.03-1.433,2.276-3.2,3.654-5.227a55.97,55.97,0,0,0-30.1-14.484c-6.1-.852-10.744-1.4-14.27-1.755C588.814,1584.5,588.077,1586.295,587.447,1587.852Z" transform="translate(-587.447 -1575.618)"/><path class="g" d="M597.155,1567.9q-.58,1.315-1.124,2.567c19.828-.793,38.853,8.866,43.657,14.762l1.5,1.846q.746-1.143,1.515-2.351c-3.253-3.2-9.03-8.347-14.878-10.9C615.859,1568.607,598.7,1567.954,597.155,1567.9Z" transform="translate(-591.976 -1567.904)"/></g><path class="h" d="M847.375,1668.142H822.061l-3.763-47.265H851.48Z" transform="translate(-317.358 -304.315)"/><path class="c" d="M767.908,1661.146c7.013-.171,18.472-8.21,22.406-10.434s26.169-7.013,27.2-4.618-18.644,7.355-18.644,7.355l14.71.685s4.276,6.5,4.618,10.775-1.369,10.434-1.369,10.434l-6.5-5.815s-5.3,2.907-11.973,6.842-18.643,1.539-23.774.513-17.1-4.79-17.1-4.79Z" transform="translate(-285.268 -317.275)"/><path class="d" d="M585.5,1661.812s11.346-6.556,22.749-4.96c6.535.915,7.243,1.98,6.841,1.711q2.119-3.978,3.957-7.646C613.106,1651.192,597.876,1652.8,585.5,1661.812Z" transform="translate(-194.539 -320.164)"/><path class="i" d="M1298.715,1503.453v116.48c0,3.872-3.65,7.012-8.153,7.012h-24.457c-4.173,0-7.556,2.91-7.556,6.5h35.195c7.577,0,13.72-5.283,13.72-11.8v-118.19Z" transform="translate(-549.624 -242.365)"/><path class="j" d="M1297.194,1572.687l-3.883-.739c-2.562-.488-4.2-2.691-3.627-4.895l30.435-118.234c.567-2.2,3.128-3.609,5.691-3.12l3.883.74c2.563.488,4.195,2.691,3.628,4.895l-30.436,118.233C1302.318,1571.771,1299.757,1573.176,1297.194,1572.687Z" transform="translate(-565.99 -211.844)"/><path class="b" d="M1304.216,1573.868l-.457-.087a3.208,3.208,0,0,1-2.8-3.781l30.906-120.059a3.74,3.74,0,0,1,4.395-2.41l.457.087a3.208,3.208,0,0,1,2.8,3.781l-30.906,120.058A3.74,3.74,0,0,1,1304.216,1573.868Z" transform="translate(-571.951 -212.823)"/><path class="k" d="M890.738,1783.112h-522.8a4.38,4.38,0,0,1,0-8.759h522.8a4.38,4.38,0,0,1,0,8.759Z" transform="translate(-77.451 -385.286)"/><path class="c" d="M768.543,1256.072c-23.688,14.693-8.7,30.585-14.992,57.871,3.87,1.325,8.1-6.3,10.794-12.293s5.1-14.693,6-14.393,2.4,13.793,2.4,13.793l3.6,1.8s5.1-9,4.8-11.094-4.5-12.294.6-17.092c3.275-3.083,16.791,3.6,16.791,3.6l-13.193-18.891Z" transform="translate(-283.199 -111.853)"/><path class="l" d="M768.543,1256.072c-23.688,14.693-8.7,30.585-14.992,57.871,3.87,1.325,8.1-6.3,10.794-12.293s5.1-14.693,6-14.393,2.4,13.793,2.4,13.793l3.6,1.8s5.1-9,4.8-11.094-4.5-12.294.6-17.092c3.275-3.083,16.791,3.6,16.791,3.6l-13.193-18.891Z" transform="translate(-283.199 -111.853)"/><path class="k" d="M819.286,1256.14c-1.2,14.393-23.51,9.889-33.883-3-9.9-12.294-18.036-3.82-27.886.3-16.492,6.9,2.1-32.984,35.383-26.687C817.871,1231.479,820.085,1246.559,819.286,1256.14Z" transform="translate(-282.067 -96.029)"/><path class="c" d="M775.68,1312.474c1.023,5.369-.983,10.26-4.48,10.928s-7.162-3.145-8.186-8.513.983-10.26,4.48-10.927S774.656,1307.106,775.68,1312.474Z" transform="translate(-288.05 -137.079)"/><g transform="translate(621.726 1135.39)"><path class="m" d="M5.074,0H115.5a5.074,5.074,0,0,1,5.074,5.074V66.76a5.074,5.074,0,0,1-5.074,5.074H5.073A5.073,5.073,0,0,1,0,66.761V5.074A5.074,5.074,0,0,1,5.074,0Z" transform="translate(0 0)"/><rect class="g" width="113.187" height="58.08" rx="4.42" transform="translate(3.695 11.552)"/><g transform="translate(4.981 4.056)"><path class="g" d="M2.023,0h.45A2.023,2.023,0,0,1,4.495,2.023v0A2.023,2.023,0,0,1,2.472,4.045h-.45A2.023,2.023,0,0,1,0,2.023v0A2.023,2.023,0,0,1,2.023,0Z"/><path class="g" d="M2.023,0h.45A2.023,2.023,0,0,1,4.495,2.023v0A2.023,2.023,0,0,1,2.472,4.045h-.45A2.023,2.023,0,0,1,0,2.023v0A2.023,2.023,0,0,1,2.023,0Z" transform="translate(8.172)"/><path class="g" d="M2.023,0h.45A2.023,2.023,0,0,1,4.495,2.023v0A2.023,2.023,0,0,1,2.472,4.045h-.45A2.022,2.022,0,0,1,0,2.023v0A2.023,2.023,0,0,1,2.023,0Z" transform="translate(16.344)"/></g><g transform="translate(7.533 14.975)"><path class="m" d="M1195.427,1320.318H1089.916v-51.234h105.511Zm-105.133-.378h104.755v-50.478H1090.294Z" transform="translate(-1089.916 -1269.084)"/><g transform="translate(0.189 40.685)"><rect class="m" width="105.133" height="0.378"/></g><g transform="translate(0.189 30.513)"><rect class="m" width="105.133" height="0.378"/></g><g transform="translate(0.189 20.342)"><rect class="m" width="105.133" height="0.378"/></g><g transform="translate(0.189 10.171)"><rect class="m" width="105.133" height="0.378"/></g><g transform="translate(90.115 0.189)"><rect class="m" width="0.378" height="50.856"/></g><g transform="translate(75.095 0.189)"><rect class="m" width="0.378" height="50.856"/></g><g transform="translate(60.076 0.189)"><rect class="m" width="0.378" height="50.856"/></g><g transform="translate(45.057 0.189)"><rect class="m" width="0.378" height="50.856"/></g><g transform="translate(30.038 0.189)"><rect class="m" width="0.378" height="50.856"/></g><g transform="translate(15.019 0.189)"><rect class="m" width="0.378" height="50.856"/></g></g><path class="h" d="M1297.845,1277.6h-3.535a2.452,2.452,0,1,1,0-4.9h3.535a2.452,2.452,0,1,1,0,4.9Z" transform="translate(-1188.922 -1256.016)"/><path class="h" d="M2.451,0H5.986A2.452,2.452,0,0,1,8.438,2.452v0A2.451,2.451,0,0,1,5.987,4.9H2.451A2.451,2.451,0,0,1,0,2.451v0A2.451,2.451,0,0,1,2.451,0Z" transform="translate(102.936 37.209)"/><path class="m" d="M3.529,0H8.1a3.53,3.53,0,0,1,3.53,3.53v.181A3.529,3.529,0,0,1,8.1,7.24H3.53A3.53,3.53,0,0,1,0,3.711V3.529A3.529,3.529,0,0,1,3.529,0Z" transform="translate(24.257 26.775)"/><rect class="g" width="8.354" height="5.201" rx="2.535" transform="translate(25.895 27.795)"/><path class="m" d="M3.529,0H8.1a3.529,3.529,0,0,1,3.529,3.529v.182A3.529,3.529,0,0,1,8.1,7.24H3.53A3.53,3.53,0,0,1,0,3.711V3.529A3.529,3.529,0,0,1,3.529,0Z" transform="translate(84.464 57.22)"/><path class="g" d="M2.535,0H5.819A2.535,2.535,0,0,1,8.354,2.535v.13A2.536,2.536,0,0,1,5.818,5.2H2.535A2.535,2.535,0,0,1,0,2.666V2.535A2.535,2.535,0,0,1,2.535,0Z" transform="translate(86.102 58.24)"/><path class="m" d="M1204.058,1296.743h-6.5a.8.8,0,1,1,0-1.6h6.5a.8.8,0,0,1,0,1.6Z" transform="translate(-1138.751 -1267.859)"/><path class="m" d="M1204.058,1302.052h-6.5a.8.8,0,1,1,0-1.6h6.5a.8.8,0,0,1,0,1.6Z" transform="translate(-1138.751 -1270.659)"/><path class="m" d="M1173.646,1360.824h-6.5a.8.8,0,1,1,0-1.6h6.5a.8.8,0,0,1,0,1.6Z" transform="translate(-1122.706 -1301.666)"/><path class="m" d="M1173.646,1366.135h-6.5a.8.8,0,1,1,0-1.6h6.5a.8.8,0,0,1,0,1.6Z" transform="translate(-1122.706 -1304.468)"/><path class="m" d="M1102.322,1320.637h-6.5a.8.8,0,1,1,0-1.6h6.5a.8.8,0,0,1,0,1.6Z" transform="translate(-1085.077 -1280.464)"/><path class="m" d="M1102.322,1325.948h-6.5a.8.8,0,1,1,0-1.6h6.5a.8.8,0,1,1,0,1.6Z" transform="translate(-1085.077 -1283.266)"/><path class="m" d="M1235.194,1296.743h-6.5a.8.8,0,1,1,0-1.6h6.5a.8.8,0,1,1,0,1.6Z" transform="translate(-1155.177 -1267.859)"/><path class="m" d="M1235.194,1302.052h-6.5a.8.8,0,1,1,0-1.6h6.5a.8.8,0,1,1,0,1.6Z" transform="translate(-1155.177 -1270.659)"/><g transform="translate(24.086 47.358)"><path class="n" d="M3.206,0H9.452a3.205,3.205,0,0,1,3.205,3.205v.942A3.205,3.205,0,0,1,9.452,7.352H3.205A3.205,3.205,0,0,1,0,4.147V3.206A3.206,3.206,0,0,1,3.206,0Z"/><g transform="translate(3.091 0.862)"><path class="g" d="M1134.053,1344.732h-.028a.759.759,0,0,1-.54-.256l-1.8-2.047a.756.756,0,1,1,1.135-1l1.274,1.448,3.278-3.208a.756.756,0,0,1,1.058,1.08l-3.848,3.766A.755.755,0,0,1,1134.053,1344.732Z" transform="translate(-1131.496 -1339.454)"/></g></g><g transform="translate(69.07 16.4)"><path class="n" d="M3.206,0H9.451a3.205,3.205,0,0,1,3.205,3.205v.942A3.205,3.205,0,0,1,9.452,7.352H3.205A3.205,3.205,0,0,1,0,4.147V3.206A3.206,3.206,0,0,1,3.206,0Z"/><g transform="translate(3.091 0.862)"><path class="g" d="M1229.272,1279.2h-.028a.758.758,0,0,1-.54-.256l-1.8-2.047a.756.756,0,0,1,1.135-1l1.275,1.448,3.278-3.208a.756.756,0,0,1,1.057,1.08l-3.848,3.766A.755.755,0,0,1,1229.272,1279.2Z" transform="translate(-1226.715 -1273.924)"/></g></g><path class="m" d="M1232.445,1341.048a3.421,3.421,0,1,1-3.42-3.421A3.42,3.42,0,0,1,1232.445,1341.048Z" transform="translate(-1153.968 -1290.27)"/><path class="m" d="M1138.675,1363.133a3.421,3.421,0,1,1-3.421-3.421A3.421,3.421,0,0,1,1138.675,1363.133Z" transform="translate(-1104.497 -1301.922)"/></g><g transform="translate(604.724 1196.827)"><path class="m" d="M2.509,0H69.693A2.508,2.508,0,0,1,72.2,2.508v36.27a2.509,2.509,0,0,1-2.509,2.509H2.509A2.509,2.509,0,0,1,0,38.779V2.509A2.509,2.509,0,0,1,2.509,0Z" transform="translate(0 0)"/><path class="g" d="M2.342,0H66.693a2.342,2.342,0,0,1,2.342,2.342V35.307a2.343,2.343,0,0,1-2.343,2.343H2.342A2.342,2.342,0,0,1,0,35.308V2.342A2.342,2.342,0,0,1,2.342,0Z" transform="translate(1.583 1.819)"/><rect class="m" width="65.22" height="33.035" rx="2.634" transform="translate(3.491 4.126)"/><circle class="g" cx="11.462" cy="11.462" r="11.462" transform="translate(24.639 9.182)"/><path class="m" d="M1113.245,1400.106a9.87,9.87,0,1,1-9.87-9.87A9.87,9.87,0,0,1,1113.245,1400.106Z" transform="translate(-1067.275 -1379.462)"/><path class="g" d="M1116.637,1405.359l-3.608,2.083-3.608,2.083v-8.332l3.608,2.084Z" transform="translate(-1075.671 -1385.243)"/></g><path class="m" d="M975.568,1153.466H930.414a2.052,2.052,0,1,1,0-4.1h45.155a2.052,2.052,0,0,1,0,4.1Z" transform="translate(-375.424 -55.555)"/><path class="m" d="M1225.383,1520.584h-45.156a2.053,2.053,0,0,1,0-4.105h45.156a2.053,2.053,0,0,1,0,4.105Z" transform="translate(-507.22 -249.238)"/><path class="m" d="M1225.383,1536.514h-45.156a2.053,2.053,0,0,1,0-4.105h45.156a2.053,2.053,0,0,1,0,4.105Z" transform="translate(-507.22 -257.642)"/><path class="m" d="M1225.383,1553.892h-45.156a2.053,2.053,0,0,1,0-4.105h45.156a2.053,2.053,0,0,1,0,4.105Z" transform="translate(-507.22 -266.81)"/><path class="m" d="M1004.645,1170.121H930.414a2.052,2.052,0,1,1,0-4.1h74.232a2.052,2.052,0,1,1,0,4.1Z" transform="translate(-375.424 -64.342)"/><path class="o" d="M380.666,1415.5c-11.8,10.775-6.67,21.55,2.052,41.561s10.262,93.9,10.262,93.9l-7.183-1.026s1.026-75.938-8.723-96.462-13.854-30.786-22.576-24.115S380.666,1415.5,380.666,1415.5Z" transform="translate(-71.93 -195.966)"/><path class="n" d="M315.219,1348.789c-1.433-6.386-9.945-13.295-21.326-19.156,1.692,9.418,7.118,24.817,1.5,27.976-7.573,4.26-.738-17.241-3.66-29.058a140.627,140.627,0,0,0-35.383-11.607c.017.044.03.086.048.13,6.67,16.932,15.392,23.6,11.8,26.168-2.7,1.93-11.5-17.629-23.126-27.655-8.724-.465-16.1.718-20.47,4.174-6.748,5.342-11.278,10.082-4.49,26.35a30.5,30.5,0,0,0,14.734,5.34c15.393,1.539,22.576,2.052,11.8,7.183-5.277,2.513-14.121-.142-21.291-1.758,2.326,4.286,5.185,9.137,8.66,14.664a54.48,54.48,0,0,0,7.212,9.177c4.961.95,9.286.962,11.576-.02,7.183-3.078,25.655-12.828,30.273-8.722,4.52,4.018-34.209,6.561-31.525,16.771,18.772,10.815,40.253,5.669,44.05-4.262C300.706,1371.148,319.535,1368.01,315.219,1348.789Z" transform="translate(0 -143.201)"/><path class="o" d="M343.028,1533.072c20.524-15.393,41.561-1.026,52.336,15.393s3.079,53.362,3.079,53.362-4.1,0-4.1-1.539,11.288-43.614-15.393-62.6c-16.691-11.877-28.734-6.158-30.272-.513s6.67,15.906,6.67,15.906Z" transform="translate(-66.617 -254.527)"/><path class="n" d="M416.737,1473.429c-20.524,0-27.194,31.813-21.55,50.283s13.341,52.849,13.341,52.849l5.131-5.131s-19.5-48.231-14.88-69.781,15.906-25.142,17.958-25.142S416.737,1473.429,416.737,1473.429Z" transform="translate(-93.12 -226.526)"/><path class="o" d="M400.479,1575.1a14.854,14.854,0,0,0-5.4-4.54,40.482,40.482,0,0,0,1.066,4.4c2.571,8.417,5.569,20.133,8.071,30.4.227-1.315.578-3.339,1.119-6.465.128-.738.228-1.539.3-2.388A198.936,198.936,0,0,1,400.479,1575.1Z" transform="translate(-94.076 -277.769)"/><path class="n" d="M310.641,1548.189c-39-16.42-18.451-38.95-52.828-24.071-2.421,1.048-5.372,3.691-8.327,7.335a25.609,25.609,0,0,0,10.893.874c10.262-1.54,6.67,6.67-10.262,8.722a38.013,38.013,0,0,0-7.934,1.674c-8.067,15.493-11.7,35.879,5.369,42.966a38.7,38.7,0,0,0,12.149,2.493c5.268-4.187-1.285-28.413,6.835-25.07,7.8,3.211-2.443,20.768-1.04,25.192a112.452,112.452,0,0,0,24.359-3.415c3.222-1.806,5.682-4.228,6.441-7.411,2.565-10.775-14.367-17.445-14.88-26.681-.471-8.49,6.206,18.679,23.9,22.678C321.31,1566,328.869,1555.864,310.641,1548.189Z" transform="translate(-9.85 -250.704)"/><path class="n" d="M434.233,1477.506c-4.1-8.722,6.67-10.775,6.157-4.1-.454,5.91-.505,20.277,5.557,24.189a95.114,95.114,0,0,0,35.43-11.767,4.36,4.36,0,0,0-.453-2.674c-4.618-9.235-34.377-16.932-25.142-20.01,7.356-2.452,20.244,12.02,30.631,19.31,6.238-4.734,10.417-10.375,10.417-16.673,0-8.525-10.357-18.174-23.752-22.786-6.028.608-11.628,3.9-20.374,8.86-12.921,7.322-9.933-4.516,2.284-11.541a36.8,36.8,0,0,0-28.816,15.816s.734,4.6-4.136,11.719c-13.286,19.417,2.047,30.752,20.375,30.016C441.374,1492.744,437.069,1483.534,434.233,1477.506Z" transform="translate(-105.656 -209.053)"/><path class="o" d="M294.234,1538.419c-10.034,7.754-21.181,16.819-34.863,22.976s-10.947,26.226-10.947,26.226-2.052-17.332,9.35-23.262,18.929-13,27.595-14.367a125.677,125.677,0,0,0,13.455-2.737s-2.737-5.474-1.14-7.526S294.234,1538.419,294.234,1538.419Z" transform="translate(-16.588 -260.744)"/><path class="o" d="M240.95,1345.833c36.716,9.807,63.627,33.3,68.644,39s5.017,7.3,5.017,7.3l-3.877,7.3-1.824-.912s2.964-6.158-4.789-14.14c-13.372-13.765-29.647-24.63-40.822-29.419S240.95,1345.833,240.95,1345.833Z" transform="translate(-12.763 -159.209)"/><path class="p" d="M0,0H50.15a0,0,0,0,1,0,0V25.216A25.075,25.075,0,0,1,25.075,50.291h0A25.075,25.075,0,0,1,0,25.216V0A0,0,0,0,1,0,0Z" transform="translate(297.448 1339.568)"/></g></svg>