<svg xmlns="http://www.w3.org/2000/svg" width="603.538" height="229.338" viewBox="0 0 603.538 229.338"><defs><style>.a{opacity:0.977;}.b{fill:#9ec8ff;}.c,.d{fill:#75a1de;}.c{stroke:rgba(0,0,0,0);stroke-miterlimit:10;}.e{fill:#3583c5;}</style></defs><g transform="translate(-706 -176.2)"><g class="a" transform="translate(902.965 353.362)"><path class="b" d="M-178.6-37.372a1.426,1.426,0,0,1-1.009-.417l-16.942-16.92a1.427,1.427,0,0,1-.371-1.378,1.428,1.428,0,0,1,1.009-1.01l23.124-6.215a1.426,1.426,0,0,1,1.378.368,1.426,1.426,0,0,1,.37,1.378L-174.126-50h0l-3.09,11.567a1.428,1.428,0,0,1-1.009,1.01A1.417,1.417,0,0,1-178.6-37.372Zm-14.185-17.61,13.444,13.426,2.452-9.178h0l2.454-9.18Z" transform="translate(0)"/></g><g transform="translate(981.17 341.664) rotate(40)"><path class="c" d="M-3549.7-329.258c0-4.234,3.173-5.946,5.49-7.2,2.076-1.12,2.92-1.686,2.92-2.779s-.845-1.66-2.92-2.781c-2.317-1.25-5.49-2.964-5.49-7.2s3.173-5.946,5.49-7.2c2.075-1.12,2.92-1.686,2.92-2.78s-.844-1.66-2.919-2.779c-2.318-1.252-5.491-2.964-5.491-7.2a1.716,1.716,0,0,1,1.716-1.715,1.715,1.715,0,0,1,1.716,1.715c0,2.082,1.4,2.943,3.688,4.178,2.1,1.136,4.722,2.55,4.722,5.8s-2.619,4.664-4.723,5.8c-2.354,1.272-3.687,2.092-3.687,4.177s1.4,2.943,3.687,4.177c2.1,1.136,4.723,2.549,4.723,5.8s-2.619,4.664-4.723,5.8c-2.354,1.271-3.687,2.092-3.687,4.177a1.716,1.716,0,0,1-1.716,1.716A1.717,1.717,0,0,1-3549.7-329.258Z" transform="translate(3699.87 158.492)"/></g><g transform="translate(1151.718 243.889)"><path class="d" d="M149.068,161.649a8.864,8.864,0,0,1-1.962-.222,8.762,8.762,0,1,1,6.616-1.128h0A8.716,8.716,0,0,1,149.068,161.649Zm3.322-3.465h0Zm-3.348-9.071a3.776,3.776,0,1,0,.844.095A3.853,3.853,0,0,0,149.042,149.113Z"/></g><path class="e" d="M415.878,216.059,411.8,212.23l3.829-4.082a1.759,1.759,0,1,0-2.565-2.407l-3.829,4.083-4.084-3.831a1.759,1.759,0,1,0-2.406,2.565l4.083,3.831-3.831,4.084a1.759,1.759,0,0,0,2.566,2.407l3.831-4.085,4.083,3.829a1.759,1.759,0,0,0,2.406-2.566Z" transform="translate(427.041 125.818) rotate(-20)"/></g></svg>