<svg xmlns="http://www.w3.org/2000/svg" xmlns:xlink="http://www.w3.org/1999/xlink" width="71.443" height="41.319" viewBox="0 0 71.443 41.319"><defs><style>.a{fill:#102d51;}.b{fill:#896a5f;}.c{fill:#89a9c9;}.d{fill:none;stroke:#f8c1c5;stroke-miterlimit:10;}.e{fill:#5f90b7;}.f,.k{fill:#00143a;}.f{opacity:0.15;}.g{fill:#133e7c;}.h{fill:#f6ba99;}.i{fill:#ef6c74;}.j{fill:#154593;}.l{fill:#fcd588;}.m{opacity:0.33;}.n{fill:#f2957e;}.o{opacity:0.34;fill:url(#a);}.p{fill:#b4cce9;}.q{fill:#f3f0eb;}</style><linearGradient id="a" x1="114" y1="1.569" x2="113.979" y2="0.195" gradientUnits="objectBoundingBox"><stop offset="0" stop-color="#fff"/><stop offset="0.232" stop-color="#fff" stop-opacity="0.769"/><stop offset="1" stop-color="#fff" stop-opacity="0"/></linearGradient></defs><g transform="translate(-494.809 -354.89)"><path class="a" d="M555.609,459.373l-.294.853s-1.689-.568-1.965-.312,4.918,2.324,4.918,2.324l.7-1.6Z" transform="translate(-37.683 -67.267)"/><path class="b" d="M652.945,454.291l1.431,5.913h-.763l-3.547-5.876Z" transform="translate(-99.955 -63.995)"/><path class="c" d="M503.116,381.207s-3.443-4.591-7.141-1.275,2.55,4.591,2.933,9.947,1.53,8.416,9.182,8.416h24.484l1.513-31.017s-26.507-.353-28.42,1.942S502.606,375.086,503.116,381.207Z" transform="translate(0 -7.962)"/><path class="c" d="M617.028,381.224s3.443-4.591,7.141-1.275-2.55,4.591-2.933,9.947-1.53,8.416-9.181,8.416H587.571l-.991-31.006s25.985-.364,27.9,1.931S617.539,375.1,617.028,381.224Z" transform="translate(-59.083 -7.98)"/><path class="b" d="M525.945,454.291l-1.432,5.913h.763l3.547-5.876Z" transform="translate(-19.124 -63.995)"/><g transform="translate(545.104 382.914)"><path class="d" d="M636.011,433.565" transform="translate(-636.011 -433.565)"/></g><g transform="translate(498.42 373.848)"><path class="e" d="M505.229,408.53c-.016-.012.009-.1.124-.2a.89.89,0,0,1,.621-.212.937.937,0,0,1,.459.132.868.868,0,0,1,.358.438.945.945,0,0,1,.062.3.994.994,0,0,1-.03.316.907.907,0,0,1-1.035.7,1.013,1.013,0,0,1-.3-.089.948.948,0,0,1-.255-.17.852.852,0,0,1-.271-.5.932.932,0,0,1,.057-.476.874.874,0,0,1,.442-.485c.145-.062.234-.049.238-.029s-.067.059-.168.143a.871.871,0,0,0-.282.448.725.725,0,0,0-.007.346.58.58,0,0,0,.2.313.653.653,0,0,0,1.056-.718.593.593,0,0,0-.216-.3.741.741,0,0,0-.323-.128.893.893,0,0,0-.525.08C505.31,408.493,505.25,408.546,505.229,408.53Z" transform="translate(-504.947 -408.112)"/></g><g transform="translate(561.475 373.403)"><path class="e" d="M682.422,407.168c-.014-.014.017-.087.135-.16a.721.721,0,0,1,.571-.056.774.774,0,0,1,.359.223.726.726,0,0,1,.181.468.88.88,0,0,1-.157.52.821.821,0,0,1-.487.344.837.837,0,0,1-.587-.09.914.914,0,0,1-.378-.386.778.778,0,0,1-.076-.489.853.853,0,0,1,.175-.378.79.79,0,0,1,.488-.294c.135-.018.206.012.206.033s-.067.043-.166.095a.812.812,0,0,0-.329.306.551.551,0,0,0-.018.577.6.6,0,0,0,.609.292.578.578,0,0,0,.4-.53.482.482,0,0,0-.306-.463.7.7,0,0,0-.437-.048C682.5,407.154,682.439,407.188,682.422,407.168Z" transform="translate(-681.971 -406.865)"/></g><g transform="translate(530.997 360.889)"><path class="e" d="M596.576,382.242a6.55,6.55,0,0,1-.14-1.54c-.036-.953-.047-2.27,0-3.725s.138-2.769.233-3.718a6.566,6.566,0,0,1,.235-1.528,7.321,7.321,0,0,1,.007,1.544c-.034.956-.081,2.265-.132,3.712s-.073,2.756-.1,3.713A7.36,7.36,0,0,1,596.576,382.242Z" transform="translate(-596.404 -371.731)"/></g><g transform="translate(504.155 360.408)"><path class="e" d="M573.268,378.429a.485.485,0,0,1,.008-.15c.006-.048.013-.109.022-.18s.007-.156.013-.25a4.191,4.191,0,0,0-.277-1.618,5.591,5.591,0,0,0-1.48-2.12,7.648,7.648,0,0,0-3.04-1.589,24.978,24.978,0,0,0-4.164-.716c-.758-.087-1.542-.18-2.353-.256l-1.231-.123-1.267-.108c-1.711-.148-3.51-.263-5.375-.362s-3.8-.162-5.781-.2c-3.964-.075-7.742-.025-11.176.072-1.717.054-3.349.113-4.875.184s-2.95.117-4.233.271a12.81,12.81,0,0,0-3.371.814,7.975,7.975,0,0,0-2.227,1.361,6.2,6.2,0,0,0-1.1,1.241l-.138.211-.092.157c-.051.084-.079.125-.085.123a.5.5,0,0,1,.054-.139l.078-.166c.034-.065.077-.138.125-.222a5.723,5.723,0,0,1,1.064-1.3,7.893,7.893,0,0,1,2.242-1.439,12.768,12.768,0,0,1,3.416-.878c1.3-.172,2.724-.229,4.25-.315s3.16-.153,4.879-.215c3.438-.115,7.222-.175,11.193-.1,1.985.037,3.922.11,5.792.206s3.671.225,5.385.383l1.269.115,1.233.131c.811.081,1.6.18,2.356.274a24.547,24.547,0,0,1,4.2.765,7.773,7.773,0,0,1,3.1,1.681,5.631,5.631,0,0,1,1.476,2.216,4.008,4.008,0,0,1,.221,1.668c-.011.1-.014.181-.03.253l-.04.18A.515.515,0,0,1,573.268,378.429Z" transform="translate(-521.048 -370.382)"/></g><g transform="translate(506.544 381.764)"><path class="e" d="M533.525,433.719c-.046.03-.278-.281-.7-.724l-.169-.172c-.058-.06-.125-.116-.19-.179-.129-.126-.279-.246-.433-.378a8.3,8.3,0,0,0-2.268-1.311c-.19-.068-.37-.138-.544-.187-.086-.026-.169-.055-.25-.076l-.234-.06a4.818,4.818,0,0,1-.979-.249,2.246,2.246,0,0,1,1.026.011l.247.04c.085.015.173.038.264.059.184.038.374.1.576.164a6.932,6.932,0,0,1,2.365,1.367c.155.143.3.277.429.417.063.069.128.133.183.2l.159.193A2.253,2.253,0,0,1,533.525,433.719Z" transform="translate(-527.754 -430.338)"/></g><g transform="translate(524.439 384.111)"><path class="e" d="M584.067,439.277c-.033.04-.338-.171-.845-.475-.253-.154-.56-.323-.906-.5s-.738-.348-1.157-.508-.829-.282-1.2-.383-.72-.172-1.011-.223a3.669,3.669,0,0,1-.947-.2,2.269,2.269,0,0,1,.979-.039,8.031,8.031,0,0,1,1.053.156,9.433,9.433,0,0,1,1.252.37,9.543,9.543,0,0,1,1.184.549,8.128,8.128,0,0,1,.894.578C583.842,438.965,584.094,439.244,584.067,439.277Z" transform="translate(-577.995 -436.927)"/></g><g transform="translate(546.046 379.405)"><path class="e" d="M649.5,423.718a107.611,107.611,0,0,1-10.847,5.447,107.458,107.458,0,0,1,10.847-5.447Z" transform="translate(-638.654 -423.714)"/></g><g transform="translate(504.255 376.537)"><path class="e" d="M524.246,421.13a14.194,14.194,0,0,1-2.907-5.465,3236.486,3236.486,0,0,1,2.907,5.465Z" transform="translate(-521.328 -415.664)"/></g><g transform="translate(511.899 384.591)"><path class="e" d="M553.791,438.294a6.992,6.992,0,0,1-1.592.305c-.991.136-2.365.279-3.889.365s-2.907.1-3.906.075a7.042,7.042,0,0,1-1.616-.124,8.228,8.228,0,0,1,1.614-.119c1-.038,2.371-.09,3.889-.175s2.889-.19,3.883-.264A8.326,8.326,0,0,1,553.791,438.294Z" transform="translate(-542.787 -438.273)"/></g><path class="f" d="M528.172,454.291l-.2.825,2.466.225.612-1.014Z" transform="translate(-21.35 -63.995)"/><path class="f" d="M650.066,454.393l.606,1,2.477-.2-.222-.809Z" transform="translate(-99.955 -64.06)"/><path class="g" d="M575.9,419.83s-9.44-.744-10.623.824-7.039,13.112-7.039,13.112l4.29,1.649s5.594-10.863,7.093-10.96,11.363,0,11.363,0l3.8-1.94Z" transform="translate(-40.833 -41.695)"/><g transform="translate(528.782 354.89)"><path class="h" d="M605.813,393.7s-1.221,7.093-3.535,7.17-5.584-4.34-5.584-4.34l1.9-2.1s2.239,2.727,2.957,2.461,1.373-4.09,1.373-4.09Z" transform="translate(-594.377 -379.297)"/><path class="g" d="M624.234,419.5h-2.925l-10.8.279-2.695-.047,7.332,2.685Z" transform="translate(-601.539 -396.484)"/><path class="i" d="M627.171,386.926s.209-6.114-5.521-6.1l-1.93.025s-6.759-.826-6.87,5.747Z" transform="translate(-604.777 -371.584)"/><path class="i" d="M625.634,394.217s-.137,6.594.092,7.555,1.282,1.511.778,1.786-11.057.08-11.286-.058.026-.815.179-.925c1.191-.852,1.935-5.432,2.27-8.038Z" transform="translate(-606.244 -380.209)"/><path class="j" d="M618.852,419.5l-19.394,6.229,1.229,3.486s19.928-4.309,20.456-5.132S622.613,419.437,618.852,419.5Z" transform="translate(-596.156 -396.483)"/><path class="h" d="M638.6,397.835s.768,7.156-1.437,7.864-6.559-2.645-6.559-2.645l1.254-2.536s2.9,2.009,3.517,1.557.2-4.31.2-4.31Z" transform="translate(-616.211 -382.493)"/><path class="h" d="M595.21,395.227l-.116-.7a6.075,6.075,0,0,1-.219-1.174,1.742,1.742,0,0,1,.041-.591,2.677,2.677,0,0,1,.244-.7.229.229,0,0,0-.241-.36,1.881,1.881,0,0,0-.655,1.314c-.106.724-.7-.266-.916-.623a6.834,6.834,0,0,0-1.121-1.448c-.24-.028-.314.224-.085.575s.842,1.453.648,1.561-1.292-1.727-1.292-1.727-.172-.43-.4-.313c-.412.211.9,2.073,1.03,2.247.09.121-.117.245-.207.11s-1.055-1.854-1.477-1.643c-.323.162,1.066,1.542,1.068,2.009s-.947-1.154-1.25-.987c-.112.062-.188.124.492.976.7.872,2.967,2.929,2.967,2.929l1.5-1.5" transform="translate(-590.188 -378.103)"/><g transform="translate(12.239 15.004)"><ellipse class="k" cx="0.435" cy="0.069" rx="0.435" ry="0.069"/></g><g transform="translate(12.354 15.346)"><path class="k" d="M624.872,398.032c0-.038.145-.064.321-.058s.318.041.317.079-.146.064-.322.058S624.87,398.071,624.872,398.032Z" transform="translate(-624.872 -397.974)"/></g><path class="h" d="M627.887,383.582l-12.761-.039s.827-2.853,5.235-2.708S625.72,380.078,627.887,383.582Z" transform="translate(-606.243 -371.59)"/><g transform="translate(10.484)"><path class="l" d="M620.971,362.21c.022-.13,1.255,0,1.255,0l.533,6.908a5.929,5.929,0,0,1-2.958.985,2.7,2.7,0,0,1,.034-2.008,8.938,8.938,0,0,0,.58-.807,2.184,2.184,0,0,0,.01-1.284,3.872,3.872,0,0,1-.084-1.057c.087-.928.865-1.834.63-2.737" transform="translate(-619.622 -359.565)"/><path class="h" d="M625.325,366.167a14.137,14.137,0,0,0-.081-1.8,1.583,1.583,0,0,1-1.408-1.457c-.081-1.317,0-4.353,0-4.353l2.419-1.182,2.66,2.015-.4,6.583Z" transform="translate(-622.311 -356.489)"/><path class="l" d="M628.358,358.805a2.924,2.924,0,0,1-2.555-2.176l-2.357,2.176a2.542,2.542,0,0,1,.591-2.816,2.855,2.855,0,0,1,2.714-1.075,4.212,4.212,0,0,1,3.609,3.258c.052.2.1.692.128.915Z" transform="translate(-621.958 -354.89)"/><g class="m" transform="translate(3.852 5.44)"><path class="n" d="M630.438,370.441c.005.15.236.258.516.264s.513-.092.522-.242-.222-.295-.515-.3S630.433,370.292,630.438,370.441Z" transform="translate(-630.438 -370.162)"/></g><path class="n" d="M627.854,375.939a3.286,3.286,0,0,0,1.744-.589,1.7,1.7,0,0,1-1.716.913Z" transform="translate(-624.922 -368.062)"/><path class="l" d="M626.228,359.22a2.68,2.68,0,0,0-.276,1.634l-2.111.545S623.359,358.723,626.228,359.22Z" transform="translate(-622.319 -357.638)"/><path class="l" d="M637.23,363.949a39.292,39.292,0,0,1,.365,5.137,7.65,7.65,0,0,1-2.812.482.942.942,0,0,1-.468-.095.827.827,0,0,1-.314-.759c.02-.672.358-1.3.411-1.971a5.644,5.644,0,0,0-.385-2.012,3.2,3.2,0,0,1-.1-2.021Z" transform="translate(-628.752 -359.925)"/></g><path class="o" d="M622.5,386.154l2.3-9.138-16.065-.455,2.333,10.246Z" transform="translate(-602.13 -368.842)"/><g transform="translate(10.753 24.232)"><path class="a" d="M620.376,422.925a35.539,35.539,0,0,1,4.227,1.265,35.439,35.439,0,0,1-4.227-1.265Z" transform="translate(-620.376 -422.921)"/></g><g transform="translate(17.708 23.409)"><path class="a" d="M639.9,421.871a9.1,9.1,0,0,1,.884-.314c.548-.183,1.3-.473,2.156-.7a6.328,6.328,0,0,1,2.264-.217,4.092,4.092,0,0,1,.68.125.826.826,0,0,1,.238.087c-.006.024-.352-.08-.926-.115a6.98,6.98,0,0,0-2.221.253c-.849.229-1.6.5-2.162.665-.279.082-.506.142-.664.179A.9.9,0,0,1,639.9,421.871Z" transform="translate(-639.904 -420.61)"/></g><g transform="translate(8.806 16.998)"><path class="p" d="M626.422,402.612l-1.5,7.354s-8.957-.251-9.051-.279-.961-7.076-.961-7.076Z" transform="translate(-614.91 -402.612)"/><path class="q" d="M628.73,411.174a.55.55,0,1,0,.539-.661A.609.609,0,0,0,628.73,411.174Z" transform="translate(-623.807 -407.699)"/></g></g><g transform="translate(535.334 379.633)"><path class="a" d="M608.581,427.844A2.667,2.667,0,0,1,609,427.7l1.15-.356c.971-.3,2.312-.71,3.786-1.187s2.8-.935,3.759-1.272l1.135-.4a2.778,2.778,0,0,1,.422-.131,2.7,2.7,0,0,1-.4.181c-.263.109-.646.259-1.121.439-.951.36-2.274.832-3.75,1.311s-2.822.876-3.8,1.15c-.489.137-.886.244-1.162.314A2.815,2.815,0,0,1,608.581,427.844Z" transform="translate(-608.581 -424.353)"/></g><path class="a" d="M599.909,439.019c.25-.013-.43,4.12,0,4.078s.9-1.531.9-1.531Z" transform="translate(-67.57 -54.163)"/></g></svg>