<svg xmlns="http://www.w3.org/2000/svg" xmlns:xlink="http://www.w3.org/1999/xlink" width="559.838" height="359.425" viewBox="0 0 559.838 359.425"><defs><style>.a{fill:none;}.b{fill:url(#a);}.c{fill:#bdd0fb;}.d{fill:#dce5fe;}.e{fill:#91b3fa;}.f{fill:url(#b);}.g{fill:#a8ceff;}.h{fill:#e1eeff;}.i{fill:url(#c);}.j{fill:url(#d);}.k{fill:url(#e);}.l{fill:url(#f);}.m{fill:url(#g);}.n{fill:url(#h);}.o{fill:url(#i);}.p{fill:url(#j);}.q{fill:url(#k);}.r{fill:url(#l);}.s{fill:url(#m);}.t{fill:url(#n);}.u{fill:url(#o);}.v{fill:url(#p);}.w{fill:url(#q);}.x{fill:url(#r);}.y{fill:url(#s);}.z{fill:url(#t);}.aa{fill:url(#u);}.ab{fill:url(#v);}.ac{fill:url(#w);}.ad{fill:url(#x);}.ae{fill:url(#y);}.af{fill:url(#z);}.ag{fill:url(#aa);}.ah{fill:#d3262a;}.ai{fill:url(#ab);}.aj{fill:#a2dff2;}.ak{fill:url(#ac);}.al{fill:url(#ad);}.am{fill:url(#ae);}.an{fill:url(#af);}.ao{fill:url(#ag);}.ap{fill:url(#ah);}.aq{fill:url(#ai);}.ar{fill:url(#aj);}.as{fill:url(#ak);}.at{fill:url(#am);}.au{fill:url(#ao);}.av{fill:url(#ar);}.aw{fill:#6ebacc;}.ax{fill:url(#as);}.ay,.bz,.ca,.cb{fill:#fff;}.az{fill:url(#at);}.ba{fill:url(#au);}.bb{fill:#1a0f91;}.bc{fill:url(#av);}.bd{fill:url(#aw);}.be{fill:url(#ax);}.bf{fill:url(#ay);}.bg{fill:url(#az);}.bh{fill:url(#ba);}.bi{fill:#2e5b9a;}.bj{fill:url(#bb);}.bk{fill:url(#bc);}.bl{fill:url(#bd);}.bm{fill:url(#be);}.bn{fill:#28507f;}.bo{fill:url(#bf);}.bp{fill:url(#bg);}.bq{fill:url(#bh);}.br{fill:url(#bi);}.bs{fill:#7d97f4;}.bt{fill:#ba242c;}.bu{fill:url(#bk);}.bv{fill:url(#bl);}.bw{fill:url(#bm);}.bx{opacity:0.34;fill:url(#bn);}.by{fill:url(#bo);}.bz{opacity:0.65;}.ca{opacity:0.5;}.cb{opacity:0.69;}.cc{fill:url(#bq);}.cd{fill:url(#bs);}.ce{fill:url(#bt);}.cf{clip-path:url(#bu);}.cg{fill:url(#bw);}.ch{fill:url(#bx);}.ci{fill:url(#by);}.cj{fill:url(#bz);}.ck{fill:url(#ca);}.cl{fill:url(#cb);}.cm{fill:url(#cc);}.cn{fill:url(#ce);}.co{fill:url(#cf);}.cp{fill:url(#cg);}.cq{fill:url(#ch);}.cr{fill:url(#ci);}.cs{fill:url(#cj);}.ct{fill:url(#ck);}.cu{fill:url(#cl);}.cv{fill:url(#cm);}.cw{fill:url(#cn);}.cx{fill:url(#co);}.cy{fill:url(#cp);}.cz{fill:url(#cq);}.da{fill:url(#cr);}.db{fill:url(#cs);}.dc{fill:url(#ct);}.dd{fill:url(#cu);}.de{fill:url(#cv);}.df{fill:url(#cw);}.dg{fill:url(#cx);}.dh{fill:url(#cy);}.di{fill:url(#cz);}.dj{fill:url(#da);}.dk{fill:url(#db);}.dl{fill:url(#dc);}.dm{fill:url(#dd);}</style><linearGradient id="a" y1="0.5" x2="1" y2="0.5" gradientUnits="objectBoundingBox"><stop offset="0" stop-color="#dae3fe"/><stop offset="1" stop-color="#e9effd"/></linearGradient><linearGradient id="b" x1="0.506" y1="-0.282" x2="0.487" y2="0.971" gradientUnits="objectBoundingBox"><stop offset="0" stop-color="#09005d"/><stop offset="1" stop-color="#1a0f91"/></linearGradient><linearGradient id="c" x1="0.488" y1="-8.568" x2="0.498" y2="-0.696" xlink:href="#b"/><linearGradient id="d" x1="-45.373" y1="-1.263" x2="-44.378" y2="-1.263" gradientUnits="objectBoundingBox"><stop offset="0" stop-color="#4042e2"/><stop offset="1" stop-color="#4f52ff"/></linearGradient><linearGradient id="e" x1="-44.943" y1="-0.612" x2="-43.947" y2="-0.612" xlink:href="#b"/><linearGradient id="f" x1="-137.207" y1="-2.558" x2="-136.4" y2="1.374" gradientUnits="objectBoundingBox"><stop offset="0" stop-color="#ff928e"/><stop offset="1" stop-color="#feb3b1"/></linearGradient><linearGradient id="g" x1="-40.858" y1="-1.129" x2="-39.857" y2="-1.129" xlink:href="#b"/><linearGradient id="h" x1="-42.233" y1="-1.286" x2="-41.229" y2="-1.286" xlink:href="#d"/><linearGradient id="i" x1="-100.436" y1="-2.941" x2="-99.877" y2="0.664" xlink:href="#f"/><linearGradient id="j" x1="0.471" y1="0.762" x2="1.501" y2="-0.856" xlink:href="#d"/><linearGradient id="k" x1="-11.659" y1="-0.916" x2="-11.252" y2="0.721" xlink:href="#d"/><linearGradient id="l" x1="-10.005" y1="-1.056" x2="-10.703" y2="3.723" gradientUnits="objectBoundingBox"><stop offset="0" stop-color="#fe7062"/><stop offset="1" stop-color="#ff928e"/></linearGradient><linearGradient id="m" x1="0.294" y1="0.309" x2="1.53" y2="1.809" xlink:href="#f"/><linearGradient id="n" x1="-39.686" y1="-2.885" x2="-41.984" y2="1.513" xlink:href="#f"/><linearGradient id="o" x1="-41.609" y1="-8.083" x2="-41.938" y2="-6.687" xlink:href="#f"/><linearGradient id="p" x1="-25.835" y1="-5.384" x2="-25.66" y2="-4.151" xlink:href="#b"/><linearGradient id="q" x1="-200.725" y1="-26.576" x2="-202.268" y2="-22.16" xlink:href="#f"/><linearGradient id="r" x1="1.186" y1="-0.388" x2="0.646" y2="0.379" xlink:href="#l"/><linearGradient id="s" x1="-59.473" y1="6.609" x2="-56.398" y2="5.637" gradientUnits="objectBoundingBox"><stop offset="0" stop-color="#e1473d"/><stop offset="1" stop-color="#e9605a"/></linearGradient><linearGradient id="t" x1="-66.526" y1="8.219" x2="-63.099" y2="6.955" xlink:href="#s"/><linearGradient id="u" x1="-27.846" y1="-2.677" x2="-29.405" y2="0.376" xlink:href="#f"/><linearGradient id="v" x1="0.664" y1="-0.124" x2="0.383" y2="0.892" xlink:href="#b"/><linearGradient id="w" x1="-655.23" y1="-12.404" x2="-657.097" y2="-10.53" xlink:href="#d"/><linearGradient id="x" x1="-111.045" y1="-1.474" x2="-110.047" y2="-1.474" xlink:href="#f"/><linearGradient id="y" x1="0.876" y1="0.224" x2="1.677" y2="-0.361" xlink:href="#f"/><linearGradient id="z" x1="-17.328" y1="0.006" x2="-17.532" y2="3.202" xlink:href="#d"/><linearGradient id="aa" x1="0.439" y1="0.904" x2="0.562" y2="0.319" xlink:href="#f"/><linearGradient id="ab" x1="-16.487" y1="-2.158" x2="-16.646" y2="6.275" xlink:href="#d"/><linearGradient id="ac" x1="-25.163" y1="1.885" x2="-25.394" y2="0.326" xlink:href="#f"/><linearGradient id="ad" x1="-49.319" y1="-36.82" x2="-49.192" y2="-35.626" xlink:href="#f"/><linearGradient id="ae" x1="-51.568" y1="10.189" x2="-52.684" y2="11.372" xlink:href="#b"/><linearGradient id="af" x1="-210.832" y1="-118.046" x2="-210.284" y2="-114.24" xlink:href="#f"/><linearGradient id="ag" x1="0.673" y1="-1.849" x2="0.442" y2="1.441" xlink:href="#f"/><linearGradient id="ah" x1="-28.532" y1="11.983" x2="-29.212" y2="12.887" xlink:href="#b"/><linearGradient id="ai" x1="-6.778" y1="3.434" x2="-7.517" y2="5.871" xlink:href="#b"/><linearGradient id="aj" x1="-5.951" y1="0.134" x2="-6.351" y2="0.8" xlink:href="#b"/><linearGradient id="ak" x1="-68.153" y1="-0.304" x2="-69.993" y2="1.583" xlink:href="#d"/><linearGradient id="am" x1="0" y1="0.5" x2="1" y2="0.5" xlink:href="#l"/><linearGradient id="ao" x1="0" y1="0.5" x2="1" y2="0.5" xlink:href="#f"/><linearGradient id="ar" x1="-48.504" y1="1.065" x2="-48.337" y2="0.071" xlink:href="#f"/><linearGradient id="as" x1="0" y1="0.5" x2="1" y2="0.5" xlink:href="#b"/><linearGradient id="at" x1="0.526" y1="1.052" x2="0.483" y2="0.16" xlink:href="#f"/><linearGradient id="au" x1="1.363" y1="0.064" x2="0.238" y2="0.592" xlink:href="#f"/><linearGradient id="av" x1="-0.066" y1="1.629" x2="0.982" y2="-0.596" xlink:href="#f"/><linearGradient id="aw" x1="0.651" y1="0.418" x2="0.1" y2="1.194" xlink:href="#f"/><linearGradient id="ax" x1="-77.72" y1="-79.037" x2="-77.91" y2="-75.317" xlink:href="#b"/><linearGradient id="ay" x1="0.068" y1="-0.262" x2="0.539" y2="0.672" xlink:href="#f"/><linearGradient id="az" x1="-68.761" y1="-90.374" x2="-68.983" y2="-87.266" xlink:href="#b"/><linearGradient id="ba" x1="0" y1="0.5" x2="1" y2="0.5" xlink:href="#d"/><linearGradient id="bb" x1="81.68" y1="0.088" x2="79.144" y2="2.712" xlink:href="#l"/><linearGradient id="bc" x1="-0.449" y1="2.345" x2="0.501" y2="0.505" xlink:href="#f"/><linearGradient id="bd" x1="0.841" y1="-0.119" x2="-0.006" y2="1.692" xlink:href="#f"/><linearGradient id="be" x1="-188.799" y1="-72.594" x2="-188.321" y2="-70.875" xlink:href="#f"/><linearGradient id="bf" x1="-770.301" y1="-238.054" x2="-768.344" y2="-232.432" xlink:href="#f"/><linearGradient id="bg" x1="-55.074" y1="-21.892" x2="-55.814" y2="-19.455" xlink:href="#b"/><linearGradient id="bh" x1="34.129" y1="0.565" x2="39.204" y2="-0.107" xlink:href="#b"/><linearGradient id="bi" x1="-443.566" y1="-0.304" x2="-445.405" y2="1.583" xlink:href="#d"/><linearGradient id="bk" x1="2.109" y1="-0.494" x2="-0.532" y2="1.163" xlink:href="#l"/><linearGradient id="bl" x1="0.583" y1="-5.547" x2="0.541" y2="-2.631" xlink:href="#s"/><linearGradient id="bm" x1="0.607" y1="-8.795" x2="0.563" y2="-4.917" xlink:href="#s"/><linearGradient id="bn" x1="19.515" y1="18.295" x2="20.518" y2="18.295" xlink:href="#a"/><linearGradient id="bo" y1="0.5" x2="1" y2="0.5" gradientUnits="objectBoundingBox"><stop offset="0" stop-color="#2b377d"/><stop offset="1" stop-color="#15103f"/></linearGradient><linearGradient id="bq" x1="1.347" y1="-0.358" x2="0.582" y2="0.431" xlink:href="#bo"/><linearGradient id="bs" y1="0.5" x2="1" y2="0.5" gradientUnits="objectBoundingBox"><stop offset="0" stop-color="#aa3ccc"/><stop offset="1" stop-color="#f34779"/></linearGradient><linearGradient id="bt" x1="1.107" y1="-0.464" x2="-0.091" y2="0.94" xlink:href="#b"/><clipPath id="bu"><rect class="a" width="98.535" height="87.025"/></clipPath><linearGradient id="bw" x1="2.528" y1="-12.945" x2="-1.17" y2="11.133" gradientUnits="objectBoundingBox"><stop offset="0" stop-color="#43d8fa"/><stop offset="1" stop-color="#3948ec"/></linearGradient><linearGradient id="bx" x1="2.669" y1="-4.126" x2="0.219" y2="1.101" xlink:href="#bw"/><linearGradient id="by" x1="2.074" y1="-2.1" x2="-2.893" y2="5.431" gradientUnits="objectBoundingBox"><stop offset="0" stop-color="#fcf265"/><stop offset="1" stop-color="#dd3a64"/></linearGradient><linearGradient id="bz" x1="4.59" y1="-8.412" x2="0.084" y2="0.996" xlink:href="#bw"/><linearGradient id="ca" y1="0.5" x2="1" y2="0.5" gradientUnits="objectBoundingBox"><stop offset="0" stop-color="#fbb57f"/><stop offset="1" stop-color="#f77765"/></linearGradient><linearGradient id="cb" x1="0.696" y1="-0.843" x2="0.19" y2="2.39" xlink:href="#ca"/><linearGradient id="cc" x1="1.125" y1="-5.387" x2="-1.391" y2="17.679" xlink:href="#bw"/><linearGradient id="ce" x1="0.632" y1="-0.224" x2="0.117" y2="2.539" xlink:href="#ca"/><linearGradient id="cf" x1="1.823" y1="-0.312" x2="-0.623" y2="1.239" gradientUnits="objectBoundingBox"><stop offset="0" stop-color="#7f30d3"/><stop offset="1" stop-color="#2b47cf"/></linearGradient><linearGradient id="cg" x1="0.661" y1="-0.048" x2="-0.268" y2="2.025" xlink:href="#bs"/><linearGradient id="ch" x1="1.668" y1="-0.138" x2="-0.085" y2="1.017" xlink:href="#ca"/><linearGradient id="ci" x1="0.712" y1="0.257" x2="-1.272" y2="2.087" xlink:href="#ca"/><linearGradient id="cj" x1="0.719" y1="-0.222" x2="-0.099" y2="2.966" xlink:href="#ca"/><linearGradient id="ck" x1="-41.392" y1="-23.738" x2="-42.465" y2="-22.456" xlink:href="#ca"/><linearGradient id="cl" x1="-29.678" y1="-15.312" x2="-28.771" y2="-15.312" xlink:href="#bo"/><linearGradient id="cm" x1="-122.592" y1="-77.669" x2="-120.134" y2="-80.317" xlink:href="#ca"/><linearGradient id="cn" x1="5.546" y1="-0.965" x2="-2.818" y2="1.467" xlink:href="#bs"/><linearGradient id="co" x1="1.239" y1="-0.866" x2="0.316" y2="0.839" xlink:href="#bo"/><linearGradient id="cp" x1="2.198" y1="-9.413" x2="1.74" y2="-7.978" xlink:href="#b"/><linearGradient id="cq" x1="0.487" y1="-0.027" x2="0.584" y2="2.425" xlink:href="#l"/><linearGradient id="cr" x1="-0.16" y1="-0.191" x2="1.984" y2="2.225" gradientUnits="objectBoundingBox"><stop offset="0" stop-color="#a22b25"/><stop offset="1" stop-color="#c0423c"/></linearGradient><linearGradient id="cs" x1="-153.427" y1="-0.196" x2="-151.156" y2="2.22" xlink:href="#cr"/><linearGradient id="ct" x1="0.511" y1="-0.189" x2="0.467" y2="2.505" xlink:href="#b"/><linearGradient id="cu" x1="0.532" y1="-0.192" x2="0.925" y2="-8.689" xlink:href="#d"/><linearGradient id="cv" x1="0.155" y1="-0.547" x2="1.197" y2="-0.547" xlink:href="#d"/><linearGradient id="cw" x1="2.58" y1="-4.058" x2="-0.86" y2="3.366" xlink:href="#cr"/><linearGradient id="cx" x1="-133.896" y1="-2.184" x2="-132.85" y2="-2.184" xlink:href="#d"/><linearGradient id="cy" x1="3.788" y1="-6.36" x2="0.301" y2="1.144" xlink:href="#cr"/><linearGradient id="cz" x1="0.553" y1="0.25" x2="0.889" y2="-1.494" xlink:href="#d"/><linearGradient id="da" x1="0.625" y1="-0.433" x2="0.476" y2="0.704" xlink:href="#d"/><linearGradient id="db" x1="0.511" y1="1.753" x2="0.489" y2="-0.794" gradientUnits="objectBoundingBox"><stop offset="0" stop-color="#c4421b"/><stop offset="1" stop-color="#5c0e16"/></linearGradient><linearGradient id="dc" x1="2.832" y1="-6.68" x2="2.909" y2="-8.068" xlink:href="#cr"/><linearGradient id="dd" x1="3.576" y1="-2.113" x2="4.327" y2="-10.586" xlink:href="#cr"/></defs><g transform="translate(-40.902 -42.671)"><g transform="translate(40.902 42.671)"><path class="b" d="M737.723,351.986c-9.312-9.645-20.324-19.052-23.2-32.148-4.969-22.661,16.279-41.984,23.234-64.116a53.958,53.958,0,0,0-46.545-69.909c-27.486-2.522-54.385,16-81.46,10.635-21.679-4.295-38.811-23.241-60.818-25.271-25.9-2.388-47.383,18.989-72.112,27.038-29.579,9.627-61.649-.434-90.73-11.475s-59.679-23.359-90.333-18.075c-34.122,5.882-62.731,35.615-67.3,69.938-4.523,34.016,33.41,61.321,1.12,102.164-10.09,12.764-16.8,30.535-12.341,46.182,4.334,15.2,22.778,24.818,22.912,40.627.106,12.48-11.661,22.409-12.609,34.854-.814,10.681,6.868,20.556,16.309,25.618s20.394,6.3,31.045,7.447c0,0,104.486,7.118,158.336,6.042l254.768-5.091c8.728-.174,17.668-.389,25.8-3.563s15.426-9.967,16.665-18.608c2.108-14.706-13.264-27.469-11.843-42.257,1.814-18.884,28.4-26.169,33.465-44.452C755.67,374.646,747.035,361.632,737.723,351.986Z" transform="translate(-201.444 -167.404)"/><g transform="translate(0 168.371)"><path class="c" d="M160.684,814.626c.544,22.224,7.832,150.863,103.624,151.668,0,0,12.281-88.458-101.458-153.666C161.855,812.058,160.648,813.174,160.684,814.626Z" transform="translate(-160.683 -812.476)"/><path class="d" d="M202.216,880.726c2.1,6.269,4.454,12.474,6.9,18.626s5.046,12.251,7.772,18.288,5.589,12.01,8.589,17.912,6.191,11.7,9.521,17.422,6.888,11.3,10.613,16.758A194.733,194.733,0,0,0,257.593,985.5l1.607,1.882c.536.626,1.063,1.262,1.633,1.857l3.358,3.629c2.328,2.329,4.633,4.685,7.126,6.831a92.7,92.7,0,0,0,15.905,11.526l.009.005a1.01,1.01,0,0,1-.991,1.761l-.007,0a94.64,94.64,0,0,1-16.167-11.891c-2.519-2.2-4.839-4.607-7.181-6.985l-3.371-3.7c-.572-.607-1.1-1.253-1.637-1.89l-1.609-1.913a196.3,196.3,0,0,1-11.96-15.991c-3.71-5.522-7.258-11.152-10.55-16.928s-6.451-11.623-9.431-17.561-5.794-11.956-8.483-18.028-5.241-12.2-7.657-18.388-4.716-12.41-6.787-18.731a.428.428,0,0,1,.812-.269Z" transform="translate(-190.758 -862.691)"/></g><path class="c" d="M165.289,1301.976c10.029-3.6,50.626-13.52,73.225,50.733,0,0-59.552-23.15-74.334-47.662A2.112,2.112,0,0,1,165.289,1301.976Z" transform="translate(-163.046 -1003.792)"/><g transform="translate(28.442 53.174)"><path class="e" d="M352.08,604.966S250.5,542.526,272.871,374.013a3.325,3.325,0,0,1,5.767-1.785C296.3,391.824,356.419,468.818,352.08,604.966Z" transform="translate(-269.652 -371.125)"/><path class="d" d="M344.476,522.9q6.746,21.35,13.415,42.724c2.213,7.128,4.415,14.259,6.553,21.41l3.214,10.724,3.148,10.743,6.231,21.507,3.074,10.766,3,10.788c3.984,14.387,7.88,28.8,11.422,43.307a.376.376,0,0,1-.728.189l-3.01-10.778-3.066-10.763c-2.066-7.169-4.095-14.348-6.2-21.505l-6.278-21.484-6.333-21.469-3.186-10.729-3.153-10.739c-2.131-7.151-4.195-14.321-6.284-21.485-4.173-14.329-8.329-28.664-12.585-42.968a.4.4,0,0,1,.77-.237Z" transform="translate(-324.365 -483.079)"/></g><g transform="translate(411.621 23.484)"><path class="e" d="M1737.932,512.707c14.226-37.167,75.365-196.263,100.415-251.166a7.124,7.124,0,0,1,13.136.423c16.366,42.8,48.677,171.186-109.053,254.712A3.2,3.2,0,0,1,1737.932,512.707Z" transform="translate(-1737.711 -257.377)"/><path class="d" d="M1757.346,563.641a1.01,1.01,0,0,1-.705-1.733c21.617-21.072,40.364-46.547,55.72-75.716a394.635,394.635,0,0,0,30.2-76.556c13.194-46.76,14.812-82.682,14.826-83.04a1.01,1.01,0,1,1,2.018.083c-.015.359-1.636,36.475-14.885,83.452a396.689,396.689,0,0,1-30.354,76.971c-15.458,29.369-34.337,55.024-56.113,76.251A1.007,1.007,0,0,1,1757.346,563.641Z" transform="translate(-1751.475 -307.814)"/></g><g transform="translate(460.062 153.986)"><path class="c" d="M1928.1,893.3a3.542,3.542,0,0,1-4.8-3.4c.31-13.878,4.735-53.036,42.589-82.42,31.966-24.813,46.942-41.306,53.221-49.264a2.221,2.221,0,0,1,3.963,1.45C2022.313,783.3,2013.177,860.559,1928.1,893.3Z" transform="translate(-1923.298 -757.363)"/><path class="d" d="M1931.218,1003.428a1.01,1.01,0,0,1-.9-1.461c.274-.55,27.959-55.442,70.852-91.955a1.01,1.01,0,0,1,1.309,1.538c-42.572,36.239-70.081,90.772-70.354,91.319A1.01,1.01,0,0,1,1931.218,1003.428Z" transform="translate(-1928.405 -869.991)"/></g><g transform="translate(38.151 72.836)"><g transform="translate(20.898 0)"><path class="f" d="M802.774,696.49a7.375,7.375,0,0,1-7.357,7.35H397.584a7.375,7.375,0,0,1-7.357-7.35l-3.31-228.623c0-4.043,4.763-11.934,13.491-11.341l388.806-10.06a18.539,18.539,0,0,1,19.023,18.961Z" transform="translate(-386.917 -446.459)"/><path class="g" d="M824.325,714.122a6.981,6.981,0,0,1-6.96,6.96H435.993a6.981,6.981,0,0,1-6.96-6.96l-3.124-207.546c.368-12.49,11.318-16.978,17.956-16.714l372.635-10A13.029,13.029,0,0,1,829.867,493.2Z" transform="translate(-415.732 -471.142)"/><g transform="translate(15.365 20.001)"><path class="e" d="M451.539,947.129a.5.5,0,0,1-.5-.5l-.247-16.832a.505.505,0,0,1,.5-.513.526.526,0,0,1,.513.5l.247,16.832a.506.506,0,0,1-.5.513Z" transform="translate(-449.482 -823.265)"/><path class="e" d="M447.237,605.706a.505.505,0,0,1-.5-.5l-.947-64.465c.019-4.288,1.34-7.713,3.925-10.19,4.707-4.51,12.075-4.282,12.386-4.271l119-3.193a.5.5,0,0,1,.518.491.5.5,0,0,1-.491.518L462.1,527.291c-.331-.011-7.286-.226-11.686,3.991-2.379,2.28-3.6,5.461-3.613,9.456l.947,64.456a.505.505,0,0,1-.5.512Z" transform="translate(-445.786 -523.088)"/></g><g transform="translate(29.335 24.313)"><path class="h" d="M500.076,746.76c.4-17.154.251-169.057-.733-182.175S518.79,549,550.159,547.529s296.044-7.322,302.859-7.874c15.318-1.242,18.489,21.654,16.956,71.359-1.151,37.343-3.06,98.859-3.938,127.149a15.611,15.611,0,0,1-15.574,15.13c-63.692.175-307.8.875-324.053,1.359C507.709,755.209,499.918,753.562,500.076,746.76Z" transform="translate(-499.309 -539.607)"/></g></g><rect class="i" width="469.029" height="20.088" rx="7.505" transform="translate(0 256.272)"/><circle class="e" cx="86.161" cy="86.161" r="86.161" transform="translate(151.368 44.586)"/></g><g transform="translate(339.47 20.405)"><g transform="translate(113.247)"><path class="j" d="M1895.172,254.729c0-.163-.008-.313-.011-.443a1.235,1.235,0,0,1,.419-.957,34.4,34.4,0,0,1,16.109-7.733,1.052,1.052,0,0,1,1.068.459,22.4,22.4,0,0,0-2.927.572A35.594,35.594,0,0,0,1895.172,254.729Z" transform="translate(-1895.161 -245.579)"/><path class="k" d="M1909.86,247.971a22.4,22.4,0,0,1,2.927-.572,1.065,1.065,0,0,1,.016,1.172,7.186,7.186,0,0,1-.52.72c-1.339,1.644-12.136,12.513-12.136,12.513s-3.4.382-4.431-.229c-.334-.2-.468-3.724-.514-5.5A35.594,35.594,0,0,1,1909.86,247.971Z" transform="translate(-1895.192 -246.924)"/></g><path class="l" d="M1896.345,301.549l.063-6.534a1.277,1.277,0,0,1,.89-1.211,5.011,5.011,0,0,1,3.193-.049,1.843,1.843,0,0,1,1.154,1.6l.429,6.107Z" transform="translate(-1782.789 -281)"/><g transform="translate(138.437 14.08)"><path class="m" d="M1992.758,301.3a1.323,1.323,0,0,1,.429-.63,81.446,81.446,0,0,1,10.051,3.189c6.762,2.46,8.728,4.571,9.289,5.7-2.915.823-9.534,2.062-18.995.119l-1.864-.9A35.821,35.821,0,0,1,1992.758,301.3Z" transform="translate(-1991.668 -300.373)"/><path class="n" d="M2007.537,303.011a81.452,81.452,0,0,0-10.051-3.189,1.324,1.324,0,0,1,1.122-.27c3.363.733,13.521,3.227,18.8,7.591a.854.854,0,0,1-.292,1.479l-.291.084C2016.265,307.583,2014.3,305.472,2007.537,303.011Z" transform="translate(-1995.967 -299.522)"/></g><path class="o" d="M1978.089,331.826l4.033-4.741a1.478,1.478,0,0,1,1.6-.445,5.451,5.451,0,0,1,2.292,1.556,1.355,1.355,0,0,1,.184,1.537l-2.954,5.594Z" transform="translate(-1843.197 -305.425)"/><path class="p" d="M1891.03,314.535s-4.857-.981-7.566-.072c0,0-3.762,21.325-3.216,28.2l10.493,2.237S1891.268,320.836,1891.03,314.535Z" transform="translate(-1770.852 -296.198)"/><path class="q" d="M1755.028,373.426s34.362,2.258,48.325,1.428a3.861,3.861,0,0,0,3.212-2.1c3.048-5.959,12.189-23.839,12.992-25.547,0,0-3.614-3.078-6.3-3.524,0,0-12.869,14.044-13.47,21.267,0,0-29.408-8.762-32.321-8.71s-11.883,3.952-11.883,3.952Z" transform="translate(-1678.357 -318.078)"/><path class="r" d="M1537.029,356.907c.482-4.04,7.938-7.9,7.938-7.9l2.38-5.087a27.019,27.019,0,0,1,9.832-14.1l3.291-2.441c3.234-2.4,8.36-1.51,11.613.862,7.223,5.267,17.935,14.085,21.592,17.118a2.714,2.714,0,0,0,2.809.4l.617-.266a.824.824,0,0,1,1.144.856l-1.7,14.292-24.981-.527c-3-.029-11.671-.42-13.026-3.092l-2.256-5.692a45.4,45.4,0,0,1-16.162,8.536A2.607,2.607,0,0,1,1537.029,356.907Z" transform="translate(-1517.243 -304.981)"/><path class="s" d="M1593.694,301.782l7.609,7.534a1.367,1.367,0,0,1,.084,1.857c-2.4,2.8-4.443,4.261-6.134,4.356a1.979,1.979,0,0,1-1.772-.955l-4.021-6.476Z" transform="translate(-1556.003 -287.112)"/><path class="t" d="M1504.4,434.607l-6.582-2.634-7.74,6.037,13.754.182Z" transform="translate(-1482.562 -383.322)"/><g transform="translate(19.806 0.055)"><path class="u" d="M1555.179,278.646s.987,8.493,3.845,11.129,8.494.725,10.452-5.651l-3.676-10.97Z" transform="translate(-1550.477 -266.011)"/><path class="v" d="M1552.845,260.011a.373.373,0,0,1-.48-.341,12.068,12.068,0,0,0-.857-3.4s.286-1.11-2.494.545-6.954,4.085-9.384,2.591c-2.369-1.456-4.714-8.7,1.571-7.3a.391.391,0,0,0,.446-.435c-.066-1.187.064-3.914,2.517-4.766A3.273,3.273,0,0,1,1548.21,248a.344.344,0,0,0,.578,0c.7-1,2.577-3.139,5.3-1.749,2.246,1.146,2.582,2.72,2.535,3.7a.378.378,0,0,0,.524.4c.695-.353,1.808-.529,2.858.989,1.452,2.1-.669,3.886-1.3,4.354a.436.436,0,0,0-.172.345c-.016,1.084-.211,5.812-2.333,8.459a.355.355,0,0,1-.622-.128L1554,260a.362.362,0,0,0-.456-.243Z" transform="translate(-1537.164 -245.789)"/><path class="w" d="M1597.079,294.2s1.029-4.53,2.513-3.042-.435,4.714-2.157,5.315Z" transform="translate(-1581.441 -279.092)"/></g><path class="x" d="M1614.415,340.829s-.209-9.126,3.541-9.274c4.656-.183,12.1,3.261,7.524,16.59-2.531,7.364-6.291,12.81-16.492,15.035a15.079,15.079,0,0,0-3.372-7.856A20.567,20.567,0,0,0,1614.415,340.829Z" transform="translate(-1567.943 -309.11)"/><path class="y" d="M1606.38,354.323a.363.363,0,0,0,.21-.064c4.808-3.32,7.5-7.9,8.483-14.407a.347.347,0,0,0,0-.063c-.055-2.439.41-8.792,3.191-8.9a9.085,9.085,0,0,1,3.962.752.365.365,0,1,0,.3-.667,9.846,9.846,0,0,0-4.286-.814c-3.983.157-3.9,8.912-3.892,9.615-.951,6.28-3.549,10.693-8.171,13.884a.365.365,0,0,0,.2.665Z" transform="translate(-1568.24 -308.077)"/><path class="z" d="M1629.944,398.1a.372.372,0,0,0,.119-.019c8.472-2.834,11.482-8.585,13.473-14.377a30.082,30.082,0,0,0,1.042-3.759.365.365,0,1,0-.715-.145,29.437,29.437,0,0,1-1.017,3.667c-1.93,5.616-4.842,11.189-13.014,13.922a.365.365,0,0,0,.112.711Z" transform="translate(-1585.654 -344.554)"/><path class="aa" d="M1537.655,431.231l.049-3.539s9.917.314,17.689-5.052a15.079,15.079,0,0,1,3.372,7.856C1553.6,431.622,1546.793,431.925,1537.655,431.231Z" transform="translate(-1517.721 -376.425)"/><g transform="translate(0 29.191)"><path class="ab" d="M1462.833,357.42l18.7.7a3.566,3.566,0,0,1,3.148,2.164l6,14.067a3.165,3.165,0,0,1-3.029,4.405l-18.257-.68a2.168,2.168,0,0,1-1.964-1.445l-6.074-17.217A1.5,1.5,0,0,1,1462.833,357.42Z" transform="translate(-1461.282 -357.419)"/><path class="ac" d="M1507.933,389.82c.358,1.274.013,2.486-.771,2.707s-1.71-.634-2.069-1.908-.013-2.486.771-2.707S1507.575,388.546,1507.933,389.82Z" transform="translate(-1493.554 -379.927)"/></g><path class="ad" d="M1470.3,395.455s2.143-2.764,3.926-2.859,1.3,3.75-.063,6.6S1470.943,398.246,1470.3,395.455Z" transform="translate(-1467.947 -354.222)"/></g><g transform="translate(35.721 219.375)"><g transform="translate(31.211 88.554)"><rect class="e" width="3.115" height="33.686" transform="translate(16.133 7.548)"/><path class="e" d="M432.63,1501.887h27.282v-1.16a.867.867,0,0,0-.867-.867H433.5a.867.867,0,0,0-.867.867Z" transform="translate(-428.581 -1460.003)"/><rect class="e" width="34.302" height="9.729" rx="4.864"/></g><g transform="translate(27.703 67.314)"><path class="ae" d="M541.427,1290.023a27.116,27.116,0,0,1,9.833,4.2,2.594,2.594,0,0,1,1.145,2.479,109.983,109.983,0,0,1-11.634,36.517,3.93,3.93,0,0,0-.377,2.7l1.468,6.831,2.722,2.552h-7.012l-4.669-12.634,2-.631a3.777,3.777,0,0,0,2.638-3.536l.234-13.552a15.417,15.417,0,0,1,3.7-10.2l-11.2-.545Z" transform="translate(-497.232 -1283.697)"/><path class="af" d="M550.484,1465.368c.639.836-6.872,1.939-10.667.111,0,0-5.26-9.152-5.26-13.865,0,0,.418-.961,3.506-.743,0,0,1.766,10.837,3.631,12.051s5.218.123,5.218.123A10.979,10.979,0,0,1,550.484,1465.368Z" transform="translate(-500.395 -1402.538)"/><path class="ag" d="M535.7,1309.862c.06-.1,12.056-1.442,12.056-1.442a27.722,27.722,0,0,0,.834,8.669c1.227,5.021,18.84,26.775,18.84,26.775l-1.847,5.855a29.706,29.706,0,0,0,16.854,1.014L571,1343.863s-10.711-36.5-17.273-43.014l-12.025-4.161Z" transform="translate(-501.244 -1288.622)"/><path class="ah" d="M411.234,1265.785s-6.912,10.28-7.479,14.969,1.893,6.595,9.145,6.909,26.612.309,26.612.309l16.524-14.122s-12.041-4.3-15.172-5.512S411.234,1265.785,411.234,1265.785Z" transform="translate(-403.677 -1265.785)"/><path class="ai" d="M649.725,1492.3s-1.988,1.926-.645,4.069c0,0,15.751,2.792,20.027,1.525,0,0-.888-2.027-5.7-4.334l.355.273a.575.575,0,0,1-.38,1.032C660.205,1494.688,653.638,1494.107,649.725,1492.3Z" transform="translate(-584.682 -1433.18)"/></g><g transform="translate(24.03)"><path class="aj" d="M431.5,1155.065s8.049-7.664,12.01-12.74a10.77,10.77,0,0,0,1.824-9.693c-1.809-6.094-5.023-12.405-5.316-13.388-.449-1.506-9.474-1.443-9.474-1.443s-17.759,11.526-24.736,31.049l7.836,2.439a91.59,91.59,0,0,1,9.218-12.725s-7.927,10.472-8.206,14.759Z" transform="translate(-401.579 -1089.112)"/><path class="ak" d="M512.336,1087.648c-.094.313-2.45,8.122-2.634,8.284s-5.166.43-7.51-1.172l3.978-8.327Z" transform="translate(-472.805 -1065.931)"/><path class="al" d="M527.688,1044.3s2.329,3.985.963,10.637-4.794,7.63-7.2,6.318a12.7,12.7,0,0,1-6.674-9.539C513.721,1045.972,524.537,1039.288,527.688,1044.3Z" transform="translate(-482.053 -1033.494)"/><path class="am" d="M507.421,1032.848s2.817-9.12,9.263-4.431l.716,2.173s5.327-2.239,2.909-7.02a10.208,10.208,0,0,0-14.931-3.42c-5.509,3.954-7.054,8.014-6.186,12.527s4.091,2.543,4.091,2.543.252-3.426,1.782-4.214,1.8,1.749,1.8,1.749Z" transform="translate(-470.422 -1015.52)"/><path class="an" d="M517.971,1062.54s1.476-4.68-1.362-4.5-1.154,4.479-.4,6.03Z" transform="translate(-482.287 -1044.946)"/><path class="ao" d="M442.76,1243.543l-5.913-5.7-8.181,3.456s-8.143,1.261-12.8,0l-4.661-1.261-10.532-3.279-1.654,4.674a2.815,2.815,0,0,0,1.028,3.234,18.59,18.59,0,0,0,2.66,1.657c1.387.607,34.189-.42,34.189-.42Z" transform="translate(-396.441 -1177.021)"/><path class="ap" d="M424.433,1014.095a1.824,1.824,0,0,0,.513-3.189c-3.742-2.892-10.341-5.676-17.787,1.644-8.386,8.245-13.025,12.122-15.475,11.9a1.832,1.832,0,0,0-1.71,2.9,7.776,7.776,0,0,0,4.193,2.5C411.078,1034.838,416.205,1016.575,424.433,1014.095Z" transform="translate(-389.605 -1007.886)"/></g><g transform="translate(46.512 38.064)"><path class="aq" d="M477.2,1264.251l.079,0,34.3-.037a1.535,1.535,0,1,0,0-3.071l-34.3.037a1.536,1.536,0,0,0-.075,3.069Z" transform="translate(-475.739 -1233.105)"/><path class="ar" d="M598.978,1153.721H570.41a5.445,5.445,0,0,0-4.925,3.122l-13.207,28h35.5a3.309,3.309,0,0,0,3.077-2.093l10.242-25.914A2.282,2.282,0,0,0,598.978,1153.721Z" transform="translate(-532.301 -1153.721)"/><path class="as" d="M653.305,1200.633c-.619,1.923-.162,3.791,1.022,4.172s2.644-.87,3.263-2.793.162-3.791-1.021-4.172S653.924,1198.709,653.305,1200.633Z" transform="translate(-606.755 -1186.274)"/></g><g transform="translate(0 68.884)"><g transform="translate(1.856 2.674)"><path class="e" d="M742.5,1347.276a1.227,1.227,0,0,0,.5-.105,1.3,1.3,0,0,0,.657-1.688l-26.346-62.663a1.246,1.246,0,0,0-1.65-.673,1.3,1.3,0,0,0-.658,1.689l26.346,62.663A1.256,1.256,0,0,0,742.5,1347.276Z" transform="translate(-607.818 -1282.042)"/><path class="e" d="M703.384,1347.275a1.256,1.256,0,0,0,1.155-.778l26.346-62.663a1.3,1.3,0,0,0-.658-1.689,1.246,1.246,0,0,0-1.65.673l-26.346,62.663a1.3,1.3,0,0,0,.658,1.688A1.228,1.228,0,0,0,703.384,1347.275Z" transform="translate(-598.382 -1282.041)"/><path class="e" d="M345.02,1347.276a1.227,1.227,0,0,0,.5-.105,1.3,1.3,0,0,0,.657-1.688l-26.346-62.663a1.246,1.246,0,0,0-1.65-.673,1.3,1.3,0,0,0-.658,1.689l26.346,62.663A1.256,1.256,0,0,0,345.02,1347.276Z" transform="translate(-314.084 -1282.042)"/><path class="e" d="M305.905,1347.275a1.256,1.256,0,0,0,1.155-.778l26.346-62.663a1.3,1.3,0,0,0-.657-1.689,1.246,1.246,0,0,0-1.651.673l-26.346,62.663a1.3,1.3,0,0,0,.658,1.688A1.229,1.229,0,0,0,305.905,1347.275Z" transform="translate(-304.649 -1282.041)"/></g><path class="b" d="M297.565,1273.376a1.266,1.266,0,0,1,.3-1.1,1.455,1.455,0,0,1,1.092-.483H442.1a1.658,1.658,0,0,1,1.373.7,1.445,1.445,0,0,1,.107,1.463l-1.551,3.147a2.185,2.185,0,0,1-1.972,1.182H299.937a1.621,1.621,0,0,1-1.615-1.249Z" transform="translate(-297.539 -1271.797)"/></g></g><g transform="translate(393.058 225.734)"><path class="ah" d="M1863.9,1105.7s13.873,7.685,15.021,20.692.1,66.994-27.724,80.281-64.644,10.226-78.739,8.773-21.911-11.032-23.657-17.628-4.566-31.166,10.262-39.091,30.4-20.067,45.964-31.891S1847.256,1095.717,1863.9,1105.7Z" transform="translate(-1726.284 -1084.481)"/><path class="at" d="M1762.427,1333.9s3.745.2,4.2,7.9c0,0-8.683,7.784-20.411,9.636-.88.139,1.231-6.01,1.548-6.843C1749.279,1340.627,1754.035,1338.075,1762.427,1333.9Z" transform="translate(-1725.278 -1255.163)"/><path class="e" d="M1820.961,1217.533H1817.2a9.6,9.6,0,0,1-6.9-2.919c-6.224-6.422-21.781-21.541-34.077-25.708a4.156,4.156,0,0,0-5.081,2.2c-2.567,5.477-6.168,18.223,2.36,37.514a3.845,3.845,0,0,0,5.569,1.747,3.152,3.152,0,0,0,1.2-1.462l-.938-22.548s20.687,18.093,24.283,21.585S1825.489,1229.3,1820.961,1217.533Z" transform="translate(-1741.642 -1147.857)"/><path class="at" d="M1677.54,1494.568a29.707,29.707,0,0,1,16.2-7.091l2.576,1.576a28.057,28.057,0,0,1-4.643,4.982c-2.757,1.6-7.016,3.771-10.546,4.241C1677.7,1498.733,1677.192,1496.659,1677.54,1494.568Z" transform="translate(-1674.613 -1368.657)"/><path class="au" d="M1743.244,1363.63c2.04.66,2.937,3.55,8.113,1.639a45.81,45.81,0,0,0,10.646-5.609c.043.373.078.762.1,1.177,0,0-9.155,8.708-20.883,10.561a1.167,1.167,0,0,1-1.261-1.573A29.458,29.458,0,0,1,1743.244,1363.63Z" transform="translate(-1720.754 -1274.203)"/><path class="au" d="M1667.024,1515.611a27.308,27.308,0,0,1,2.495-2.478c-.349,2.091.158,4.165,3.59,3.708,3.53-.47,7.788-2.64,10.546-4.241-3.456,2.948-8.715,6.076-15.353,5.893A1.741,1.741,0,0,1,1667.024,1515.611Z" transform="translate(-1666.591 -1387.223)"/><path class="au" d="M1881.56,1200.473s-6.077,17.5-17.921,4.181l-1.127-.5h0l-8.49-5.8.946,3.36a6.283,6.283,0,0,0,3.657,4.107l1.118.46c2.128,4.423,6.689,11.127,13.712,12.4,10.54,1.908,15.945-12.332,15.945-12.332Z" transform="translate(-1805.101 -1154.996)"/><path class="e" d="M1793.818,1321.1l-37,.4s-21.131,17.483-24.964,44.141c0,0-.636,1.961,3.183,2.3a73.349,73.349,0,0,0,21.106-23.1c10.214-18.089,30.45-9.946,30.45-9.946,6.649-4.793,16.044-5.77,23.122-7.367Z" transform="translate(-1714.789 -1245.705)"/><path class="aj" d="M1956.1,1182.146s4.529-12.313,5.5-24.278a52.311,52.311,0,0,0-5.385-4.077,1.5,1.5,0,0,1-.585-1.942c1.523-3.155,10.732-15.542,11.422-15.714,3.75-.936,19.128-8.247,29.958,6.567,4.648,6.358-.922,25.93-22.01,46.2l-4.35.832Z" transform="translate(-1880.08 -1107.079)"/><path class="av" d="M2022.635,1079.339l6.638,15.5a1.01,1.01,0,0,1-.392,1.125,10.258,10.258,0,0,1-9.544.959,1.5,1.5,0,0,1-.963-1.286l-1.154-10.934Z" transform="translate(-1925.702 -1067.048)"/><path class="aw" d="M1978.217,1189.818a.253.253,0,0,1-.253-.252c-.019-5.557,2.119-12.909,2.141-12.983a.253.253,0,0,1,.485.142c-.022.073-2.139,7.355-2.121,12.839a.253.253,0,0,1-.252.253Z" transform="translate(-1896.693 -1138.776)"/><path class="aw" d="M2032.01,1204.42a.253.253,0,0,1-.231-.355c.038-.085,3.765-8.527,4.429-13.8a.249.249,0,0,1,.282-.219.253.253,0,0,1,.219.282c-.673,5.348-4.429,13.857-4.468,13.942A.252.252,0,0,1,2032.01,1204.42Z" transform="translate(-1936.446 -1148.857)"/><path class="aw" d="M2069.3,1230.871l-1.415-1.2a.252.252,0,1,1,.327-.385l1.1.937c6.918-5.449,9.354-16.016,9.378-16.123a.252.252,0,1,1,.493.11c-.024.11-2.54,11.017-9.724,16.538Z" transform="translate(-1963.076 -1166.488)"/><path class="ax" d="M1835.642,1180.219l-.6.816a.869.869,0,0,0,.212,1.23l13.374,9.136a.869.869,0,0,0,1.125-.124h0a.869.869,0,0,0-.1-1.279l-12.778-9.952A.869.869,0,0,0,1835.642,1180.219Z" transform="translate(-1790.954 -1141.334)"/><path class="ay" d="M1871.858,1282.917a1.41,1.41,0,0,0-1.171,1.495c.016,2.6.473,8.016,3.923,9.064,4.309,1.309,9.2-.769,8.047-9.651a1.705,1.705,0,0,0-1.687-1.638Z" transform="translate(-1817.416 -1216.947)"/><path class="az" d="M1878.535,1263.941s22.388,0,33.761-17.669l6.681,6.108s-13.373,22.912-38.55,14.325c0,0-5.814,1.2-9.09.291a5.413,5.413,0,0,1-3.361-3.5.978.978,0,0,1,1.238-1.268C1871.533,1263.026,1875.651,1264.239,1878.535,1263.941Z" transform="translate(-1815.362 -1190.409)"/><path class="ay" d="M1913.083,1287.376s1.358-3.664,3.687-1.007-1.455,4.694-3.687,4.985v-.966s2.606-1.169,2.273-2.721-2.273.388-2.273.388Z" transform="translate(-1848.746 -1219.326)"/><path class="ay" d="M1878.338,1223.642a6.441,6.441,0,0,1,2.334,1.354,4.162,4.162,0,0,1,1.3,2.37,3.388,3.388,0,0,1-.048,1.374,3.141,3.141,0,0,1-.62,1.223,10.953,10.953,0,0,1-2.018,1.717,4.507,4.507,0,0,0-1.6,1.942,1.94,1.94,0,0,0-.056,1.225,2.1,2.1,0,0,0,.718,1.014,14.351,14.351,0,0,0,2.283,1.242,4.03,4.03,0,0,1,1.037.808,1.839,1.839,0,0,1,.5,1.2.012.012,0,0,1-.013.013.013.013,0,0,1-.013-.012,1.8,1.8,0,0,0-.511-1.159,3.97,3.97,0,0,0-1.037-.771,14.279,14.279,0,0,1-2.333-1.2,2.262,2.262,0,0,1-.794-1.075,2.133,2.133,0,0,1,.029-1.346,4.735,4.735,0,0,1,1.633-2.084,10.757,10.757,0,0,0,1.925-1.708,2.849,2.849,0,0,0,.545-2.331,3.746,3.746,0,0,0-1.223-2.109,5.968,5.968,0,0,0-2.191-1.2.253.253,0,1,1,.152-.482Z" transform="translate(-1822.352 -1173.676)"/><path class="ay" d="M1893.325,1249.639c-.429.887-1.258,1.3-1.655,1.971a1.259,1.259,0,0,0-.206,1.042,1.754,1.754,0,0,0,.709.872c.634.468,1.576.712,2.077,1.543a1.736,1.736,0,0,1-.764,2.372.124.124,0,1,1-.1-.226,1.459,1.459,0,0,0,.6-1.987,2.325,2.325,0,0,0-.893-.769c-.358-.2-.759-.37-1.13-.624a2.133,2.133,0,0,1-.883-1.06,1.682,1.682,0,0,1,.22-1.391c.481-.8,1.283-1.251,1.571-1.948a.253.253,0,0,1,.467.193Z" transform="translate(-1832.429 -1192.63)"/><g transform="translate(75.226)"><path class="ba" d="M1971.723,1055.682c-.01.254,5.048,16.3,5.048,16.3l9.1-3.083-2.535-15.921S1971.89,1051.425,1971.723,1055.682Z" transform="translate(-1967.306 -1047.363)"/><path class="bb" d="M1968.355,1040.805a1.383,1.383,0,0,1,.775.938l1.962,8.157a1.358,1.358,0,0,1,.037.376c-.031.7-.311,2.925-2.608,2.526-1.957-.34-3.761-.626-5.016-.241a1.379,1.379,0,0,0-.9,1.742,51.543,51.543,0,0,0,2.8,7.069,1.374,1.374,0,0,0,1.751.642,38.276,38.276,0,0,0,7.608-4.083,1.379,1.379,0,0,0,.542-1.31c-.326-2.219-1.214-8.441-1.194-10.236.018-1.668,1.885-2.879,2.784-3.366a1.387,1.387,0,0,0,.685-.876,3.041,3.041,0,0,0-2.425-4.1,1.381,1.381,0,0,1-1.01-1.638,3.054,3.054,0,0,0-2.2-3.911,4.3,4.3,0,0,0-4.926,1.638,1.433,1.433,0,0,1-1.659.457.912.912,0,0,0-.9.1,1.341,1.341,0,0,1-1.876-.363,3.535,3.535,0,0,0-4.247-1.507c-4.1,1.152-4.092,5.83-2.707,8.427s5.762,1.1,7.869-.506C1965.051,1039.558,1967.281,1040.319,1968.355,1040.805Z" transform="translate(-1954.801 -1032.248)"/><path class="bc" d="M2028.119,1078.924s-2.219-4.629-.578-5.991,4.318-1.023,4.107,2.52C2031.384,1079.861,2028.119,1078.924,2028.119,1078.924Z" transform="translate(-2008.108 -1061.766)"/></g></g><g transform="translate(111.584 3.177)"><path class="bd" d="M767.06,448.2c-.049-.019-26.647-46.6-30.241-50.98a2.787,2.787,0,0,0-2.487-1l-7.424.885-8.721,18.867,14.529-8.462c-1.438,9.943,17.227,24.72,23.629,30.112a1.47,1.47,0,0,1,.116,2.141l-2.556,2.675a29.351,29.351,0,0,0,14.5,8.247Z" transform="translate(-684.257 -339.656)"/><path class="be" d="M854.236,567.816a3.764,3.764,0,0,0-2.183,1.98,1.661,1.661,0,0,0,.625,1.915c2.686,1.924,11.544,8.136,15.633,9.353a.462.462,0,0,0,.578-.545,14.721,14.721,0,0,0-3.075-5.623l.2.4a.568.568,0,0,1-.786.75C862.49,574.5,856.921,571.12,854.236,567.816Z" transform="translate(-783.109 -466.481)"/><path class="bf" d="M748.7,474.542c-.045-.029-4.035-9.643-4.08-9.672A169.289,169.289,0,0,0,729.4,418.5a2.787,2.787,0,0,0-2.233-1.482l-7.449-.636L707.359,433.09l15.941-5.346c-3.42,9.447,11.868,27.695,17.046,34.27a1.47,1.47,0,0,1-.319,2.121l-3.044,2.1a29.349,29.349,0,0,0,12.532,11.01Z" transform="translate(-676.255 -354.57)"/><path class="bg" d="M819.655,603.132a3.764,3.764,0,0,0-2.539,1.5,1.661,1.661,0,0,0,.224,2c2.241,2.428,9.659,10.3,13.417,12.323a.462.462,0,0,0,.677-.417,14.733,14.733,0,0,0-1.873-6.128l.112.428a.568.568,0,0,1-.922.575C826.386,611.347,821.615,606.912,819.655,603.132Z" transform="translate(-757.187 -492.58)"/><g transform="translate(1.227 57.993)"><path class="bh" d="M600.261,402.057s-6.739,10.023-7.292,14.595,1.863,6.153,8.916,6.736c20.989,1.735,31.336-4.555,31.336-4.555,1.436-9.155,2.457-11.484,14.449-16.461,0,0-15.167,1.2-18.219.02S600.261,402.057,600.261,402.057Z" transform="translate(-592.893 -401.762)"/></g><path class="bi" d="M632.209,181.71s-4.693-5.553-9.683,1.26c-.9,1.234-4.375.216-5.647,2.8a3.279,3.279,0,0,1-3.538,1.822c-3.641-.672-9.593-.728-12.531,4.978-2.243,4.355-.511,6.9,1.731,8.357a3.676,3.676,0,0,1,1.239,4.925c-.955,1.622-1.135,3.818,1.331,6.461,5.526,5.923,16.467-3.759,16.467-3.759l8.686-20.526Z" transform="translate(-596.742 -179.577)"/><path class="bj" d="M620.019,294.944a153.851,153.851,0,0,0,11.71-12.421,10.5,10.5,0,0,0,1.778-9.451c-1.764-5.941-4.9-12.1-5.184-13.053-.438-1.468-9.237-1.407-9.237-1.407s-17.314,11.237-24.117,30.272l7.64,2.379a89.27,89.27,0,0,1,8.988-12.406s-7.729,10.21-8,14.39Z" transform="translate(-593.2 -237.983)"/><path class="bk" d="M629.961,383.6l-5.9-6.415-6.81,1.834s-7.939,1.23-12.483,0l-4.544-1.23-10.268-3.2-1.612,4.558a2.744,2.744,0,0,0,1,3.153,18.165,18.165,0,0,0,2.593,1.615c1.352.591,31.15.187,31.15.187Z" transform="translate(-588.19 -323.692)"/><path class="bl" d="M693.795,215.67l-5.914,11c.39,2.4,6.436,2.468,7.37,1.035a1.411,1.411,0,0,0,.186-.485l3.538-7.348c.152-.716-1.812-3.131-2.459-3.475l-2.35-1.251C693.26,214.661,697.037,214.623,693.795,215.67Z" transform="translate(-661.861 -205.62)"/><g transform="translate(29.087 0.322)"><path class="bm" d="M721.846,200.612s.668,3.715-2.253,8.439-5.828,4.511-7.305,2.826a10.382,10.382,0,0,1-2.442-9.2C710.652,197.964,720.837,195.874,721.846,200.612Z" transform="translate(-707.031 -193.465)"/><path class="bn" d="M705.981,190.534s4.728-6.211,8.359-.8l-.061,1.87s4.721-.221,4.209-4.572-4.366-7.323-9.709-5.837-8.465,3.179-9.068,6.889,2.426,3.1,2.426,3.1,1.157-2.56,2.554-2.734.892,1.85.892,1.85Z" transform="translate(-699.63 -180.812)"/><path class="bo" d="M714.583,206.341s2.449-3.178.22-3.838-2.146,3.114-2,4.519Z" transform="translate(-709.317 -196.785)"/></g><g transform="translate(21.1 37.825)"><path class="bp" d="M670.182,411.881h.062l27.121-.029a1.214,1.214,0,1,0,0-2.428l-27.121.029a1.214,1.214,0,0,0-.06,2.426Z" transform="translate(-669.029 -387.257)"/><path class="bq" d="M766.466,324.493H743.879a4.3,4.3,0,0,0-3.893,2.469L729.544,349.1h28.069a2.616,2.616,0,0,0,2.433-1.655l8.1-20.488A1.8,1.8,0,0,0,766.466,324.493Z" transform="translate(-713.749 -324.493)"/><path class="br" d="M809.418,361.582c-.489,1.521-.128,3,.808,3.3s2.091-.688,2.58-2.208.128-3-.808-3.3S809.908,360.062,809.418,361.582Z" transform="translate(-772.614 -350.23)"/></g></g><g transform="translate(214.896 284.047)"><path class="at" d="M1015.954,1269.212s-1.612-10.032,3.313-13.277a.333.333,0,0,1,.512.282v1.907a.519.519,0,0,0,.875.378,10.4,10.4,0,0,1,4.969-2.833.672.672,0,0,1,.725.943c-1.234,2.638-4.465,10.03-4.341,14.873Z" transform="translate(-1007.428 -1255.66)"/><path class="e" d="M987.3,1298.291,984,1351h19.755v-51.234a3.442,3.442,0,0,0-2.335-3.255A23.934,23.934,0,0,0,990,1295.274,3.274,3.274,0,0,0,987.3,1298.291Z" transform="translate(-984.004 -1284.741)"/><path class="bs" d="M994.934,1428.962l-.669,14.7a2.139,2.139,0,0,0,2.136,2.236h9.98a2.139,2.139,0,0,0,2.139-2.138v-14.7a2.139,2.139,0,0,0-2.139-2.139H997.07A2.139,2.139,0,0,0,994.934,1428.962Z" transform="translate(-991.585 -1382.219)"/></g><g transform="translate(235.979 291.862)"><path class="ah" d="M1082.473,1344.042v-54.482a3.1,3.1,0,0,0-2.183-2.967,23.168,23.168,0,0,0-13.532.043,2.81,2.81,0,0,0-1.98,2.683v54.723Z" transform="translate(-1064.778 -1285.602)"/><path class="bt" d="M1071.478,1297.141l.429,8.043a1.888,1.888,0,0,0,1.885,1.788h9.475a1.888,1.888,0,0,0,1.887-1.827l.258-7.936a1.884,1.884,0,0,0-1.482-1.906,25.256,25.256,0,0,0-11.021-.1A1.9,1.9,0,0,0,1071.478,1297.141Z" transform="translate(-1069.727 -1292.272)"/><path class="bt" d="M1074.294,1349.481h0a1.888,1.888,0,0,0,1.883,1.758h9.071a1.888,1.888,0,0,0,1.888-1.926h0a1.888,1.888,0,0,0-1.888-1.85h-9.071A1.888,1.888,0,0,0,1074.294,1349.481Z" transform="translate(-1071.807 -1331.316)"/></g><g transform="translate(193.451 292.172)"><path class="bu" d="M901.847,1291.96l2.192,52.909h18.713l1.418-53.5a3.269,3.269,0,0,0-2.309-3.224c-6.085-1.827-12.129-2.006-18.1.723A3.257,3.257,0,0,0,901.847,1291.96Z" transform="translate(-901.844 -1286.791)"/><path class="bv" d="M908.37,1309.309l.223,2.877a1.6,1.6,0,0,0,1.693,1.478l15.289-.889a1.6,1.6,0,0,0,1.507-1.482l.149-1.987a1.6,1.6,0,0,0-1.6-1.724H909.97A1.6,1.6,0,0,0,908.37,1309.309Z" transform="translate(-906.663 -1302.155)"/><path class="bw" d="M910.8,1334.593v1.05a1.426,1.426,0,0,0,1.485,1.425l14.646-.611a1.426,1.426,0,0,0,1.366-1.425v-1.114a1.426,1.426,0,0,0-1.491-1.424l-14.646.675A1.426,1.426,0,0,0,910.8,1334.593Z" transform="translate(-908.464 -1320.565)"/></g><g transform="translate(296.023 98.161)"><g transform="translate(2.153 5.867)"><path class="e" d="M1306.8,568.473c21.083-.311,125.372-2.137,146.776-2.512a3.777,3.777,0,0,1,3.844,3.777V579.5a3.778,3.778,0,0,1-3.778,3.778H1306.853a3.778,3.778,0,0,1-3.778-3.778v-7.252A3.776,3.776,0,0,1,1306.8,568.473Z" transform="translate(-1303.075 -565.961)"/><path class="c" d="M1419.167,584.988h0a3.8,3.8,0,0,0,3.868,3.8l85.049-1.476a3.8,3.8,0,0,0,3.627-4.707l-.387-1.578a3.8,3.8,0,0,0-3.83-2.894l-84.662,3.053A3.8,3.8,0,0,0,1419.167,584.988Z" transform="translate(-1388.866 -574.955)"/></g><path class="ay" d="M1308.285,606.422l-13.076,13.312a1.342,1.342,0,0,0,.094,1.969l.1.083a1.248,1.248,0,0,0,1.763-.159l11.973-14.441Z" transform="translate(-1294.825 -589.994)"/><path class="bx" d="M1351.308,551.969a8.657,8.657,0,1,1-11.473-3.943A8.578,8.578,0,0,1,1351.308,551.969Z" transform="translate(-1324.416 -546.205)"/><path class="ay" d="M1336.669,544.44a9.459,9.459,0,1,0,12.766,4.387A9.546,9.546,0,0,0,1336.669,544.44Zm7.548,15.817a8.07,8.07,0,1,1,3.94-10.821A8.143,8.143,0,0,1,1344.218,560.257Z" transform="translate(-1321.662 -543.483)"/><path class="ay" d="M1333.3,583.5a.253.253,0,0,1-.243-.186,8.908,8.908,0,0,1-.3-1.868.252.252,0,0,1,.238-.266.246.246,0,0,1,.266.238,8.433,8.433,0,0,0,.286,1.762.253.253,0,0,1-.244.319Z" transform="translate(-1322.852 -571.342)"/><path class="ay" d="M1304.616,649.258a.253.253,0,0,1-.184-.425l.2-.214a.253.253,0,1,1,.368.346l-.2.214A.251.251,0,0,1,1304.616,649.258Z" transform="translate(-1301.874 -621.118)"/></g><path class="ay" d="M1704.885,1023.057a.505.505,0,0,1-.492-.391q-.17-.732-.358-1.46a.5.5,0,1,1,.978-.253q.191.739.364,1.483a.506.506,0,0,1-.378.607A.515.515,0,0,1,1704.885,1023.057Zm-1.343-4.867a.505.505,0,0,1-.481-.352q-.229-.715-.475-1.425a.505.505,0,0,1,.955-.331q.25.722.483,1.449a.505.505,0,0,1-.328.635A.511.511,0,0,1,1703.542,1018.19Zm-1.729-4.744a.505.505,0,0,1-.467-.314q-.285-.7-.587-1.384a.505.505,0,0,1,.925-.405q.306.7.6,1.406a.505.505,0,0,1-.467.7Zm-2.1-4.593a.506.506,0,0,1-.452-.278q-.339-.671-.693-1.334a.505.505,0,1,1,.891-.476q.36.673.7,1.355a.505.505,0,0,1-.45.733Zm-2.448-4.417a.505.505,0,0,1-.432-.243q-.389-.643-.794-1.277a.5.5,0,1,1,.852-.543q.411.643.806,1.3a.505.505,0,0,1-.432.767Zm-2.779-4.216a.5.5,0,0,1-.411-.211q-.438-.612-.889-1.213a.505.505,0,1,1,.807-.607q.459.61.9,1.231a.505.505,0,0,1-.41.8Zm-3.094-3.99a.5.5,0,0,1-.387-.18q-.484-.577-.979-1.141a.505.505,0,0,1,.759-.667q.5.573.995,1.159a.505.505,0,0,1-.387.83Zm-3.392-3.74a.5.5,0,0,1-.361-.152q-.526-.537-1.064-1.062a.5.5,0,0,1,.7-.724q.547.532,1.081,1.078a.505.505,0,0,1-.36.859Zm-3.672-3.466a.5.5,0,0,1-.332-.124q-.566-.494-1.144-.975a.5.5,0,1,1,.646-.777q.587.488,1.163.99a.505.505,0,0,1-.333.886Zm-3.933-3.166a.5.5,0,0,1-.3-.1q-.6-.448-1.219-.88a.505.505,0,0,1,.582-.826q.625.44,1.238.895a.5.5,0,0,1-.3.911Zm-4.176-2.839a.5.5,0,0,1-.266-.076l-.33-.2q-.476-.291-.956-.574a.505.505,0,1,1,.512-.871q.489.288.972.584l.335.207a.505.505,0,0,1-.267.934Zm-4.394-2.487a.5.5,0,0,1-.231-.056q-.668-.344-1.344-.67a.505.505,0,1,1,.439-.91q.688.332,1.367.682a.5.5,0,0,1-.231.954Zm-4.579-2.124a.5.5,0,0,1-.194-.039q-.694-.289-1.395-.561a.505.505,0,0,1,.366-.942q.712.276,1.417.57a.505.505,0,0,1-.194.972Zm-4.735-1.756a.508.508,0,0,1-.157-.025q-.714-.233-1.434-.451a.505.505,0,0,1,.292-.967q.731.221,1.456.457a.505.505,0,0,1-.157.986Zm-36.355-1.226a.505.505,0,0,1-.127-.994q.739-.192,1.483-.367a.505.505,0,1,1,.23.984q-.731.171-1.458.361A.5.5,0,0,1,1626.159,975.427Zm31.5-.156a.514.514,0,0,1-.12-.014q-.73-.178-1.464-.339a.505.505,0,1,1,.216-.987q.746.163,1.488.344a.5.5,0,0,1-.119,1Zm-26.565-.916a.505.505,0,0,1-.086-1q.752-.131,1.507-.245a.5.5,0,1,1,.15,1q-.742.112-1.483.241A.508.508,0,0,1,1631.093,974.355Zm21.617-.089a.53.53,0,0,1-.082-.007q-.742-.121-1.486-.226a.5.5,0,1,1,.14-1q.756.106,1.509.229a.505.505,0,0,1-.081,1Zm-16.612-.581a.505.505,0,0,1-.047-1.008q.76-.071,1.522-.125a.505.505,0,0,1,.071,1.008q-.75.052-1.5.122Zm11.6-.042-.044,0q-.749-.064-1.5-.111a.505.505,0,1,1,.063-1.008q.762.048,1.523.113a.505.505,0,0,1-.043,1.008Zm-6.56-.231a.505.505,0,0,1-.007-1.01q.493-.007.985-.008l.542,0a.505.505,0,0,1,0,1.01h0l-.533,0q-.484,0-.97.008Z" transform="translate(-1243.281 -762.283)"/><path class="ay" d="M647.154,1013.894a.506.506,0,0,1-.46-.714q.316-.7.648-1.384a.505.505,0,0,1,.91.44q-.328.677-.638,1.361A.5.5,0,0,1,647.154,1013.894Zm2.273-4.508a.505.505,0,0,1-.441-.751q.372-.667.76-1.325a.505.505,0,0,1,.87.513q-.382.647-.748,1.3A.505.505,0,0,1,649.427,1009.385Zm2.635-4.307a.505.505,0,0,1-.419-.786q.424-.635.864-1.259a.505.505,0,0,1,.826.582q-.433.615-.85,1.239A.5.5,0,0,1,652.062,1005.078Zm2.973-4.081a.505.505,0,0,1-.4-.818q.474-.6.962-1.186a.5.5,0,1,1,.777.645q-.481.579-.947,1.168A.5.5,0,0,1,655.035,1001Zm3.289-3.832a.505.505,0,0,1-.37-.849q.52-.559,1.053-1.106a.5.5,0,1,1,.723.705q-.525.538-1.036,1.088A.5.5,0,0,1,658.324,997.165Zm3.582-3.558a.505.505,0,0,1-.342-.877q.563-.516,1.138-1.019a.505.505,0,0,1,.665.761q-.566.495-1.12,1A.5.5,0,0,1,661.906,993.607Zm3.854-3.262a.5.5,0,0,1-.311-.9q.6-.469,1.216-.925a.505.505,0,0,1,.6.811q-.6.448-1.2.91A.5.5,0,0,1,665.76,990.345Zm4.1-2.942a.505.505,0,0,1-.277-.927q.638-.419,1.287-.823a.505.505,0,0,1,.533.858q-.638.4-1.266.81A.5.5,0,0,1,669.864,987.4Zm4.33-2.6a.505.505,0,0,1-.242-.949l.28-.152q.532-.286,1.07-.562a.505.505,0,1,1,.461.9q-.53.271-1.053.553l-.275.149A.5.5,0,0,1,674.194,984.807Zm4.531-2.229a.505.505,0,0,1-.2-.967q.7-.309,1.4-.6a.505.505,0,0,1,.385.934q-.694.286-1.381.59A.5.5,0,0,1,678.725,982.578Zm4.7-1.851a.505.505,0,0,1-.166-.982q.721-.251,1.448-.484a.505.505,0,0,1,.309.962q-.716.23-1.426.477A.5.5,0,0,1,683.422,980.727Zm4.831-1.466a.505.505,0,0,1-.127-.994q.739-.192,1.482-.367a.505.505,0,0,1,.231.984q-.732.172-1.459.361A.508.508,0,0,1,688.253,979.261Zm4.933-1.077a.505.505,0,0,1-.088-1q.752-.133,1.507-.248a.505.505,0,0,1,.152,1q-.743.113-1.483.244A.512.512,0,0,1,693.186,978.184Zm20.737-.207a.5.5,0,0,1-.081-.007q-.309-.049-.618-.1a.505.505,0,0,1,.148-1q.315.047.629.1a.505.505,0,0,1-.079,1Zm-15.734-.475a.505.505,0,0,1-.048-1.008q.76-.073,1.522-.128a.505.505,0,0,1,.073,1.008q-.749.054-1.5.126Zm11.6-.04-.045,0q-.748-.067-1.5-.116a.505.505,0,0,1,.066-1.008q.762.05,1.523.118a.505.505,0,0,1-.044,1.008Zm-6.559-.242a.505.505,0,0,1-.008-1.01c.332-.005.655-.008,1-.008l.531,0a.505.505,0,0,1,0,1.01h0l-.523,0c-.323,0-.653,0-.98.008Z" transform="translate(-519.807 -765.098)"/><path class="ay" d="M746.382,528.136a.522.522,0,0,1-.054,0l-.4-.043a.505.505,0,0,1,.111-1l.394.042a.505.505,0,0,1-.053,1.007Zm-3.895-.543a.539.539,0,0,1-.088-.008q-.753-.132-1.5-.284a.5.5,0,1,1,.2-.99q.735.149,1.475.279a.505.505,0,0,1-.087,1Zm-4.929-1.09a.5.5,0,0,1-.131-.018q-.738-.2-1.47-.414a.5.5,0,1,1,.286-.969q.72.212,1.446.407a.505.505,0,0,1-.131.993Zm-4.816-1.513a.5.5,0,0,1-.172-.03q-.718-.259-1.431-.537a.505.505,0,0,1,.367-.941q.7.273,1.406.529a.505.505,0,0,1-.172.98Zm-4.673-1.913a.506.506,0,0,1-.211-.046q-.694-.319-1.38-.654a.505.505,0,0,1,.444-.907q.675.331,1.358.644a.505.505,0,0,1-.211.964Zm-4.5-2.292a.5.5,0,0,1-.247-.065q-.665-.374-1.322-.764a.505.505,0,0,1,.516-.869q.646.384,1.3.753a.505.505,0,0,1-.248.945Zm-4.3-2.648a.5.5,0,0,1-.282-.086q-.633-.426-1.257-.868a.505.505,0,0,1,.584-.824q.614.434,1.237.855a.5.5,0,0,1-.283.924Zm-4.073-2.984a.5.5,0,0,1-.315-.11q-.6-.476-1.183-.966a.5.5,0,1,1,.648-.775q.577.482,1.165.95a.505.505,0,0,1-.315.9Zm-3.822-3.3a.5.5,0,0,1-.345-.136q-.557-.522-1.1-1.057a.5.5,0,1,1,.708-.72q.536.526,1.085,1.04a.5.5,0,0,1-.345.874Zm-3.544-3.6a.5.5,0,0,1-.374-.165q-.514-.566-1.013-1.143a.5.5,0,1,1,.764-.66q.491.568,1,1.124a.505.505,0,0,1-.374.845Zm-3.239-3.873a.5.5,0,0,1-.4-.2q-.466-.606-.915-1.223a.505.505,0,1,1,.816-.6q.442.607.9,1.2a.505.505,0,0,1-.4.813Zm-2.905-4.128a.5.5,0,0,1-.426-.232q-.412-.643-.809-1.3a.505.505,0,0,1,.864-.524q.39.642.8,1.274a.505.505,0,0,1-.425.778Zm-2.542-4.362a.505.505,0,0,1-.448-.27q-.355-.677-.693-1.363a.505.505,0,1,1,.906-.446q.332.674.681,1.339a.505.505,0,0,1-.447.74ZM697,491.324a.505.505,0,0,1-.466-.311q-.256-.614-.5-1.233l-.072-.187a.505.505,0,1,1,.943-.362l.071.183q.237.608.488,1.211a.506.506,0,0,1-.466.7Zm-1.729-4.745a.505.505,0,0,1-.482-.354q-.229-.73-.439-1.465a.505.505,0,0,1,.971-.277q.206.722.431,1.438a.505.505,0,0,1-.33.634A.511.511,0,0,1,695.267,486.579Zm-1.3-4.879a.5.5,0,0,1-.493-.4q-.165-.747-.309-1.5a.505.505,0,1,1,.992-.191q.142.737.3,1.471a.5.5,0,0,1-.494.613Zm-.87-4.974a.5.5,0,0,1-.5-.439q-.1-.757-.18-1.517a.505.505,0,1,1,1-.106q.079.747.177,1.491a.5.5,0,0,1-.435.566A.477.477,0,0,1,693.1,476.727Zm-.448-5.029a.505.505,0,0,1-.5-.482q-.036-.763-.053-1.526a.5.5,0,0,1,.494-.516h.012a.5.5,0,0,1,.5.494q.017.751.052,1.5a.505.505,0,0,1-.481.528Zm-.031-5.049H692.6a.505.505,0,0,1-.487-.522q.027-.763.071-1.526a.5.5,0,0,1,.534-.474.505.505,0,0,1,.475.534q-.045.751-.07,1.5A.505.505,0,0,1,692.619,466.649Zm.377-5.036a.492.492,0,0,1-.058,0,.5.5,0,0,1-.444-.56q.087-.758.193-1.515a.5.5,0,1,1,1,.14q-.1.744-.19,1.491A.505.505,0,0,1,693,461.613Zm.779-4.989a.505.505,0,0,1-.5-.6q.148-.749.313-1.494a.505.505,0,0,1,.986.219q-.163.733-.308,1.471A.505.505,0,0,1,693.775,456.624Zm1.174-4.911a.5.5,0,0,1-.137-.019.505.505,0,0,1-.349-.623q.207-.734.432-1.464a.5.5,0,1,1,.965.3q-.221.718-.425,1.441A.505.505,0,0,1,694.95,451.714Zm1.565-4.8a.506.506,0,0,1-.474-.681q.266-.716.549-1.425a.505.505,0,1,1,.938.375q-.279.7-.541,1.4A.505.505,0,0,1,696.515,446.914Zm1.951-4.657a.505.505,0,0,1-.457-.719q.324-.691.666-1.375a.5.5,0,1,1,.9.451q-.336.672-.654,1.352A.5.5,0,0,1,698.466,442.257Zm2.331-4.478a.505.505,0,0,1-.437-.757q.381-.662.779-1.314a.5.5,0,0,1,.862.526q-.391.641-.766,1.292A.5.5,0,0,1,700.8,437.779Zm2.705-4.263a.5.5,0,0,1-.414-.794q.437-.626.891-1.242a.505.505,0,0,1,.813.6q-.445.6-.875,1.221A.505.505,0,0,1,703.5,433.516Zm3.069-4.009a.505.505,0,0,1-.387-.83q.492-.585,1-1.158a.505.505,0,0,1,.756.67q-.5.562-.981,1.137A.506.506,0,0,1,706.571,429.507Z" transform="translate(-553.39 -359.501)"/><path class="ay" d="M1214.23,468.8a.505.505,0,0,1-.5-.478l-.013-.255a.5.5,0,0,1,.481-.528.511.511,0,0,1,.528.481l.012.249a.505.505,0,0,1-.478.531Zm-.066-3.787h-.009a.505.505,0,0,1-.5-.514q.013-.764.047-1.528a.514.514,0,0,1,.527-.482.5.5,0,0,1,.482.527q-.033.75-.046,1.5A.505.505,0,0,1,1214.164,465.011Zm.314-5.039a.487.487,0,0,1-.055,0,.5.5,0,0,1-.448-.556q.081-.76.183-1.517a.5.5,0,1,1,1,.134q-.1.744-.18,1.491A.505.505,0,0,1,1214.478,459.972Zm.759-4.992a.513.513,0,0,1-.1-.009.505.505,0,0,1-.4-.594q.148-.749.315-1.5a.5.5,0,0,1,.985.221q-.164.733-.31,1.47A.5.5,0,0,1,1215.237,454.98Zm1.19-4.906a.517.517,0,0,1-.141-.02.505.505,0,0,1-.345-.625q.211-.735.443-1.463a.505.505,0,0,1,.963.305q-.227.716-.435,1.437A.505.505,0,0,1,1216.427,450.074Zm1.608-4.786a.505.505,0,0,1-.471-.686q.274-.713.567-1.419a.5.5,0,0,1,.933.387q-.287.694-.557,1.4A.506.506,0,0,1,1218.035,445.288Zm2.011-4.631a.505.505,0,0,1-.454-.726q.334-.687.686-1.365a.505.505,0,0,1,.9.465q-.346.666-.674,1.342A.506.506,0,0,1,1220.046,440.657Zm2.4-4.441a.5.5,0,0,1-.433-.764q.392-.656.8-1.3a.505.505,0,0,1,.853.541q-.4.634-.787,1.278A.5.5,0,0,1,1222.447,436.215Zm2.778-4.215a.505.505,0,0,1-.408-.8q.449-.619.913-1.225a.505.505,0,0,1,.8.614q-.456.6-.9,1.2A.5.5,0,0,1,1225.226,432Zm3.142-3.952a.505.505,0,0,1-.381-.837q.5-.576,1.02-1.139a.505.505,0,0,1,.743.684q-.509.552-1,1.119A.505.505,0,0,1,1228.368,428.048Zm3.488-3.651a.5.5,0,0,1-.349-.87q.553-.528,1.12-1.04a.505.505,0,0,1,.677.75q-.557.5-1.1,1.021A.5.5,0,0,1,1231.856,424.4Zm3.807-3.314a.505.505,0,0,1-.314-.9q.6-.475,1.21-.934a.505.505,0,1,1,.606.808q-.6.451-1.189.918A.5.5,0,0,1,1235.663,421.083Zm4.091-2.959a.505.505,0,0,1-.278-.927q.638-.42,1.288-.823a.505.505,0,0,1,.533.858q-.638.4-1.265.809A.5.5,0,0,1,1239.755,418.124Zm4.335-2.589a.5.5,0,0,1-.24-.949q.672-.363,1.354-.709a.505.505,0,0,1,.457.9q-.67.34-1.331.7A.5.5,0,0,1,1244.089,415.535Zm4.542-2.2a.505.505,0,0,1-.2-.969q.7-.3,1.409-.589a.5.5,0,0,1,.378.936q-.7.282-1.386.58A.505.505,0,0,1,1248.631,413.331Zm4.715-1.807a.505.505,0,0,1-.161-.984q.724-.243,1.455-.467a.505.505,0,1,1,.3.966q-.718.22-1.43.459A.507.507,0,0,1,1253.346,411.524Zm4.851-1.4a.505.505,0,0,1-.118-1q.743-.179,1.49-.34a.505.505,0,0,1,.212.988q-.734.157-1.464.334A.524.524,0,0,1,1258.2,410.126Zm4.954-.972a.505.505,0,0,1-.075-1q.756-.115,1.514-.209a.505.505,0,0,1,.125,1q-.745.093-1.487.205A.505.505,0,0,1,1263.151,409.154Zm5.02-.535a.505.505,0,0,1-.031-1.009q.763-.047,1.527-.073a.505.505,0,0,1,.035,1.01q-.751.026-1.5.072Zm6.563-.017h-.029q-.749-.043-1.5-.065a.505.505,0,1,1,.029-1.01q.764.022,1.528.066a.505.505,0,0,1-.028,1.009Z" transform="translate(-938.821 -344.852)"/><path class="ay" d="M1222.736,1256.182l-.045,0a13.094,13.094,0,0,1-1.557-.234.505.505,0,1,1,.209-.988,12.072,12.072,0,0,0,1.437.217.5.5,0,0,1-.044,1.008Zm3.5-.3a.505.505,0,0,1-.137-.991,8,8,0,0,0,1.33-.506.505.505,0,1,1,.443.908,8.951,8.951,0,0,1-1.5.57A.5.5,0,0,1,1226.238,1255.885Zm-8.346-1.046a.5.5,0,0,1-.208-.045c-.462-.208-.929-.441-1.39-.691a.505.505,0,1,1,.482-.888c.439.239.884.46,1.323.659a.505.505,0,0,1-.208.965Zm-4.326-2.59a.5.5,0,0,1-.3-.1c-.407-.3-.815-.618-1.215-.942a.505.505,0,0,1,.637-.784c.388.315.784.623,1.179.915a.505.505,0,0,1-.3.911Zm-3.819-3.3a.5.5,0,0,1-.357-.148c-.361-.361-.718-.735-1.062-1.112a.505.505,0,1,1,.746-.681q.5.551,1.031,1.079a.505.505,0,0,1-.357.862Zm-3.295-3.822a.5.5,0,0,1-.406-.2q-.459-.616-.89-1.253a.5.5,0,0,1,.836-.567q.419.617.865,1.217a.505.505,0,0,1-.405.806Zm-2.712-4.255a.506.506,0,0,1-.445-.265q-.365-.676-.7-1.368a.5.5,0,0,1,.909-.441q.326.671.681,1.329a.505.505,0,0,1-.444.745Zm-2.07-4.6a.506.506,0,0,1-.474-.333c-.174-.478-.34-.968-.494-1.456a.505.505,0,1,1,.964-.3c.149.474.31.949.479,1.413a.5.5,0,0,1-.3.647A.5.5,0,0,1,1201.67,1236.274Zm-1.367-4.858a.505.505,0,0,1-.495-.406c-.1-.5-.19-1.007-.268-1.514a.5.5,0,1,1,1-.154c.076.492.163.986.26,1.469a.505.505,0,0,1-.4.595A.519.519,0,0,1,1200.3,1231.416Zm-.618-5.008a.505.505,0,0,1-.5-.48c-.025-.509-.038-1.027-.041-1.537a.505.505,0,0,1,.5-.507.511.511,0,0,1,.507.5q0,.747.04,1.493a.506.506,0,0,1-.48.529Zm.125-5.044-.049,0a.5.5,0,0,1-.454-.551q.074-.765.182-1.526a.505.505,0,1,1,1,.141q-.105.739-.177,1.482A.505.505,0,0,1,1199.81,1221.364Zm.848-4.974a.511.511,0,0,1-.121-.015.505.505,0,0,1-.37-.611q.183-.746.4-1.484a.505.505,0,1,1,.969.283q-.209.717-.388,1.442A.505.505,0,0,1,1200.657,1216.389Zm1.555-4.8a.506.506,0,0,1-.468-.7c.194-.477.4-.952.612-1.411a.5.5,0,1,1,.917.423c-.205.445-.4.906-.593,1.369A.505.505,0,0,1,1202.213,1211.589Z" transform="translate(-928.091 -937.272)"/><g transform="translate(217.063 101.866)"><g transform="translate(0 11.335)"><path class="by" d="M1002.4,601.432a8.569,8.569,0,0,0-8,8.346c-.672,27.115-2.852,120.644-1.811,153.787a6.654,6.654,0,0,0,6.436,6.445c17.366.568,67.324,2.009,95.729.817a11.2,11.2,0,0,0,10.744-10.961c.591-28.46,1.893-108.509-1.2-145.179a9.144,9.144,0,0,0-8.207-8.331C1077.172,604.464,1026.94,599.839,1002.4,601.432Z" transform="translate(-992.308 -601.104)"/><path class="e" d="M1018.356,645.836c-.948,22.207-3.94,96.083-2.991,123.4a7.729,7.729,0,0,0,7.274,7.455c16.422.961,58.543,3.08,82.629,1.151a8.687,8.687,0,0,0,7.975-8.2c1.22-22.655,4.725-91.445,3.815-118.457a8.54,8.54,0,0,0-7.778-8.214c-17.766-1.6-63.395-5.39-83.863-4.274A7.468,7.468,0,0,0,1018.356,645.836Z" transform="translate(-1009.211 -628.737)"/><path class="bz" d="M1189.734,1196.113a7.379,7.379,0,1,1,7.379-7.379A7.388,7.388,0,0,1,1189.734,1196.113Zm0-14.236a6.857,6.857,0,1,0,6.857,6.857A6.865,6.865,0,0,0,1189.734,1181.876Z" transform="translate(-1132.75 -1029.902)"/><path class="ca" d="M1164.742,615.962h0a1.561,1.561,0,0,0,1.479,1.562c4.1.215,15.657.823,20.821,1.122a1.563,1.563,0,0,0,1.624-1.858l-.033-.171a1.563,1.563,0,0,0-1.392-1.261,199.718,199.718,0,0,0-21-.958A1.56,1.56,0,0,0,1164.742,615.962Z" transform="translate(-1119.735 -610.896)"/></g><path class="cb" d="M1040.4,676.106c1.04,13.532,3.818,57.105,4.606,69.543a3.612,3.612,0,0,0,3.564,3.383l74.5.877a3.613,3.613,0,0,0,3.651-3.422l3.565-67.414a3.614,3.614,0,0,0-3.475-3.8l-82.675-3.051A3.612,3.612,0,0,0,1040.4,676.106Z" transform="translate(-1027.837 -642.322)"/><path class="by" d="M1184.242,1059.582a9.554,9.554,0,0,1-9.554,9.554c-5.277,0-10.479-4-10.479-9.276s5.2-9.832,10.479-9.832A9.554,9.554,0,0,1,1184.242,1059.582Z" transform="translate(-1119.341 -921.519)"/><path class="cb" d="M1191.688,1079.178h0a1.269,1.269,0,0,1-1.255-1.134l-.861-8.047a1.268,1.268,0,0,1,1.36-1.4l.861.067a1.269,1.269,0,0,1,1.17,1.265v7.98A1.269,1.269,0,0,1,1191.688,1079.178Z" transform="translate(-1138.078 -935.238)"/><path class="cb" d="M1208.176,1069.65v8.112a1.268,1.268,0,0,0,1.254,1.269l.2,0a1.269,1.269,0,0,0,1.283-1.223l.293-8.114a1.269,1.269,0,0,0-1.268-1.315h-.5A1.269,1.269,0,0,0,1208.176,1069.65Z" transform="translate(-1151.832 -935.082)"/><g transform="translate(69.757 130.783)"><path class="cc" d="M1274.831,1066.019a7.28,7.28,0,0,1-7.28,7.28c-4.021,0-7.985-3.048-7.985-7.069s3.965-7.492,7.985-7.492A7.28,7.28,0,0,1,1274.831,1066.019Z" transform="translate(-1259.565 -1058.739)"/><path class="cb" d="M1278.6,1071.748v6.485a1.015,1.015,0,0,0,1,1.014l.163,0a1.014,1.014,0,0,0,1.026-.977l.234-6.487a1.014,1.014,0,0,0-1.014-1.051h-.4A1.014,1.014,0,0,0,1278.6,1071.748Z" transform="translate(-1273.634 -1067.603)"/><path class="cb" d="M1292.572,1072.323l-.345,6.789a.544.544,0,0,0,.933.406l3.284-3.377a.544.544,0,0,0,.022-.734l-2.94-3.411A.544.544,0,0,0,1292.572,1072.323Z" transform="translate(-1283.701 -1068.396)"/></g><g transform="translate(25.974 130.783)"><path class="by" d="M1091.822,1066.019a7.28,7.28,0,0,0,7.281,7.28c4.021,0,7.985-3.048,7.985-7.069s-3.964-7.492-7.985-7.492A7.28,7.28,0,0,0,1091.822,1066.019Z" transform="translate(-1091.822 -1058.739)"/><path class="cb" d="M1124.4,1071.748v6.485a1.015,1.015,0,0,1-1,1.014l-.163,0a1.014,1.014,0,0,1-1.025-.977l-.234-6.487a1.014,1.014,0,0,1,1.014-1.051h.4A1.014,1.014,0,0,1,1124.4,1071.748Z" transform="translate(-1114.106 -1067.603)"/><path class="cb" d="M1104.924,1072.323l.345,6.789a.544.544,0,0,1-.933.406l-3.284-3.377a.544.544,0,0,1-.022-.734l2.939-3.411A.544.544,0,0,1,1104.924,1072.323Z" transform="translate(-1098.529 -1068.396)"/></g><path class="cb" d="M1039,1010.1l.085.843a1.512,1.512,0,0,0,1.5,1.361h81.7a1.512,1.512,0,0,0,1.512-1.512h0a1.512,1.512,0,0,0-1.5-1.512l-81.785-.843A1.512,1.512,0,0,0,1039,1010.1Z" transform="translate(-1026.808 -890.787)"/><path class="cd" d="M1091.287,1011.341c-.1-.785-.213-1.58-.325-2.379l-50.441-.52a1.512,1.512,0,0,0-1.52,1.662l.085.843a1.512,1.512,0,0,0,1.5,1.361h50.838C1091.375,1011.969,1091.324,1011.644,1091.287,1011.341Z" transform="translate(-1026.808 -890.787)"/><circle class="ay" cx="2.733" cy="2.733" r="2.733" transform="matrix(0.16, -0.987, 0.987, 0.16, 61.748, 122.03)"/><g transform="translate(96.618 43.83)"><path class="bi" d="M1438.066,790.288l-70.278-6.237a5.544,5.544,0,0,1-5.054-5.492l-.259-47.385a5.544,5.544,0,0,1,5.929-5.561l74.834,5.208a5.544,5.544,0,0,1,5.137,6.021l-4.3,48.414A5.544,5.544,0,0,1,1438.066,790.288Z" transform="translate(-1362.475 -725.601)"/><path class="h" d="M1376.944,754.933l-.465,40.913a3.429,3.429,0,0,0,3.09,3.451l67.389,6.693a3.428,3.428,0,0,0,3.754-3.109l3.883-43.747a3.429,3.429,0,0,0-3.229-3.727l-70.806-3.859A3.429,3.429,0,0,0,1376.944,754.933Z" transform="translate(-1372.824 -744.772)"/><path class="bi" d="M1498.574,901.477l38.138,2.238a.7.7,0,0,1,.651.755l-.055.613a.694.694,0,0,1-.743.631l-38.083-2.85a.7.7,0,0,1-.64-.754h0A.7.7,0,0,1,1498.574,901.477Z" transform="translate(-1462.507 -855.57)"/><path class="bi" d="M1496.691,914.327l-.023.261a.694.694,0,0,0,.63.753l38.037,3.376a.694.694,0,0,0,.753-.63l.023-.261a.694.694,0,0,0-.63-.753l-38.037-3.376A.7.7,0,0,0,1496.691,914.327Z" transform="translate(-1461.64 -864.599)"/><path class="bi" d="M1539.8,931.316l-.01.115a.694.694,0,0,0,.63.753l26.492,2.351a.694.694,0,0,0,.753-.63l.048-.538a.694.694,0,0,0-.641-.754l-26.53-1.927A.7.7,0,0,0,1539.8,931.316Z" transform="translate(-1493.507 -877.154)"/></g><g transform="translate(72.894 21.303)"><path class="ce" d="M1365.007,709.582l-82.938-1.688a6.518,6.518,0,0,1-6.368-6.037l-4.1-55.563a6.518,6.518,0,0,1,6.509-7l88.2.116a6.518,6.518,0,0,1,6.508,6.651l-1.163,57.136A6.518,6.518,0,0,1,1365.007,709.582Z" transform="translate(-1271.584 -639.296)"/><path class="g" d="M1291.558,670.156l2.731,48.029a4.032,4.032,0,0,0,3.9,3.8l79.585,2.454a4.031,4.031,0,0,0,4.155-3.948l1.051-51.627a4.031,4.031,0,0,0-4.086-4.113l-83.367,1.144A4.031,4.031,0,0,0,1291.558,670.156Z" transform="translate(-1286.34 -658.108)"/><path class="h" d="M1443.828,835.087l44.916-.429a.816.816,0,0,1,.824.833l-.015.723a.816.816,0,0,1-.822.8l-44.9-.294a.817.817,0,0,1-.811-.833h0A.817.817,0,0,1,1443.828,835.087Z" transform="translate(-1398.273 -783.666)"/><rect class="h" width="1.941" height="46.531" rx="0.97" transform="translate(44.647 57.108) rotate(-88.835)"/><path class="h" d="M1494.6,868l0,.135a.816.816,0,0,0,.8.833l31.264.636a.817.817,0,0,0,.833-.8l.013-.636a.816.816,0,0,0-.812-.833l-31.275-.136A.816.816,0,0,0,1494.6,868Z" transform="translate(-1436.391 -807.715)"/></g><g transform="translate(49.036)"><path class="bb" d="M1285.219,635.522h-92.011a7.23,7.23,0,0,1-7.2-6.551l-5.8-61.524a7.229,7.229,0,0,1,7.06-7.907l97.81-1.862a7.23,7.23,0,0,1,7.367,7.228v63.386A7.23,7.23,0,0,1,1285.219,635.522Z" transform="translate(-1180.179 -557.677)"/><path class="h" d="M1202.8,593.565l4.113,53.2a4.471,4.471,0,0,0,4.411,4.127l88.311.925a4.471,4.471,0,0,0,4.518-4.471V590.07a4.471,4.471,0,0,0-4.624-4.469l-92.423,3.15A4.471,4.471,0,0,0,1202.8,593.565Z" transform="translate(-1196.883 -578.311)"/><path class="g" d="M1380.976,610.036l49.8-1.49a.906.906,0,0,1,.933.9v.8a.905.905,0,0,1-.893.905l-49.8.688a.906.906,0,0,1-.918-.905h0A.905.905,0,0,1,1380.976,610.036Z" transform="translate(-1327.916 -595.269)"/><rect class="g" width="51.611" height="2.153" rx="1.076" transform="translate(52.181 18.942)"/><path class="g" d="M1438.007,646.688v.15a.905.905,0,0,0,.905.905H1473.6a.906.906,0,0,0,.906-.905v-.7a.905.905,0,0,0-.92-.905l-34.684.555A.906.906,0,0,0,1438.007,646.688Z" transform="translate(-1370.711 -622.376)"/><path class="g" d="M1326.068,678.983a.389.389,0,0,1-.247-.088l-14.949-12.144-14.737,10.793a.391.391,0,0,1-.532-.065l-20.5-24.592c-2.331,2.044-17.433,15.286-19.444,17.044a.391.391,0,0,1-.516-.589c2.18-1.906,19.745-17.308,19.745-17.308a.391.391,0,0,1,.559.044L1295.97,676.7l14.684-10.755a.391.391,0,0,1,.478.012l14.927,12.127,7.993-6.985a.392.392,0,0,1,.516.59l-8.241,7.2A.392.392,0,0,1,1326.068,678.983Z" transform="translate(-1235.479 -627.334)"/><path class="g" d="M1332.6,706.456a.261.261,0,0,1-.261-.261v-.783a.261.261,0,0,1,.522,0v.783A.261.261,0,0,1,1332.6,706.456Zm0-2.61a.261.261,0,0,1-.261-.261V702.8a.261.261,0,1,1,.522,0v.783A.261.261,0,0,1,1332.6,703.845Zm0-2.61a.261.261,0,0,1-.261-.261v-.783a.261.261,0,1,1,.522,0v.783A.261.261,0,0,1,1332.6,701.235Zm0-2.61a.261.261,0,0,1-.261-.261v-.783a.261.261,0,1,1,.522,0v.783A.261.261,0,0,1,1332.6,698.625Zm0-2.61a.261.261,0,0,1-.261-.261v-.783a.261.261,0,0,1,.522,0v.783A.261.261,0,0,1,1332.6,696.015Zm0-2.61a.261.261,0,0,1-.261-.261v-.783a.261.261,0,1,1,.522,0v.783A.261.261,0,0,1,1332.6,693.4Zm0-2.61a.261.261,0,0,1-.261-.261v-.783a.261.261,0,1,1,.522,0v.783A.261.261,0,0,1,1332.6,690.795Zm0-2.61a.261.261,0,0,1-.261-.261v-.783a.261.261,0,1,1,.522,0v.783A.261.261,0,0,1,1332.6,688.185Zm0-2.61a.261.261,0,0,1-.261-.261v-.783a.261.261,0,1,1,.522,0v.783A.261.261,0,0,1,1332.6,685.575Zm0-2.61a.261.261,0,0,1-.261-.261v-.783a.261.261,0,1,1,.522,0v.783A.261.261,0,0,1,1332.6,682.964Zm0-2.61a.261.261,0,0,1-.261-.261v-.783a.261.261,0,0,1,.522,0v.783A.261.261,0,0,1,1332.6,680.354Zm0-2.61a.261.261,0,0,1-.261-.261V676.7a.261.261,0,1,1,.522,0v.783A.261.261,0,0,1,1332.6,677.744Zm0-2.61a.261.261,0,0,1-.261-.261v-.783a.261.261,0,1,1,.522,0v.783A.261.261,0,0,1,1332.6,675.134Zm0-2.61a.261.261,0,0,1-.261-.261v-.783a.261.261,0,1,1,.522,0v.783A.261.261,0,0,1,1332.6,672.524Z" transform="translate(-1292.625 -641.583)"/><path class="g" d="M1410.944,767.414a.261.261,0,0,1-.261-.261v-.783a.261.261,0,1,1,.522,0v.783A.261.261,0,0,1,1410.944,767.414Zm0-2.61a.261.261,0,0,1-.261-.261v-.783a.261.261,0,1,1,.522,0v.783A.261.261,0,0,1,1410.944,764.8Zm0-2.61a.261.261,0,0,1-.261-.261v-.783a.261.261,0,1,1,.522,0v.783A.261.261,0,0,1,1410.944,762.193Zm0-2.61a.261.261,0,0,1-.261-.261v-.783a.261.261,0,1,1,.522,0v.783A.261.261,0,0,1,1410.944,759.583Zm0-2.61a.261.261,0,0,1-.261-.261v-.783a.261.261,0,1,1,.522,0v.783A.261.261,0,0,1,1410.944,756.973Zm0-2.61a.261.261,0,0,1-.261-.261v-.783a.261.261,0,1,1,.522,0v.783A.261.261,0,0,1,1410.944,754.363Z" transform="translate(-1350.519 -702.061)"/><path class="g" d="M1468.344,739.805a.261.261,0,0,1-.261-.253l-.024-.783a.261.261,0,0,1,.253-.269.253.253,0,0,1,.269.253l.024.783a.261.261,0,0,1-.253.269Zm-.081-2.609a.261.261,0,0,1-.261-.253l-.024-.782a.261.261,0,1,1,.522-.016l.024.783a.261.261,0,0,1-.253.269Zm-.081-2.609a.261.261,0,0,1-.261-.253l-.024-.783a.261.261,0,1,1,.522-.016l.024.783a.261.261,0,0,1-.253.269Zm-.081-2.609a.261.261,0,0,1-.261-.253l-.024-.782a.261.261,0,0,1,.253-.269.255.255,0,0,1,.269.253l.025.783a.261.261,0,0,1-.253.269Zm-.081-2.609a.26.26,0,0,1-.261-.253l-.025-.783a.261.261,0,0,1,.253-.269.255.255,0,0,1,.269.253l.025.783a.262.262,0,0,1-.253.269Zm-.081-2.609a.261.261,0,0,1-.261-.253l-.024-.783a.261.261,0,0,1,.253-.269.258.258,0,0,1,.269.253l.024.783a.261.261,0,0,1-.253.269Zm-.081-2.609a.261.261,0,0,1-.261-.253l-.024-.782a.261.261,0,1,1,.522-.016l.024.783a.261.261,0,0,1-.253.269Zm-.081-2.609a.261.261,0,0,1-.261-.253l-.024-.782a.261.261,0,0,1,.253-.269.258.258,0,0,1,.269.253l.024.783a.261.261,0,0,1-.253.269Zm-.081-2.609a.261.261,0,0,1-.261-.253l-.024-.783a.261.261,0,0,1,.253-.269.253.253,0,0,1,.269.253l.024.783a.261.261,0,0,1-.253.269Zm-.081-2.609a.261.261,0,0,1-.261-.253l-.024-.783a.261.261,0,0,1,.253-.269.253.253,0,0,1,.269.253l.024.783a.261.261,0,0,1-.253.269Z" transform="translate(-1392.381 -673.952)"/><path class="g" d="M1527.255,768.513a.261.261,0,0,1-.261-.261v-.783a.261.261,0,1,1,.522,0v.783A.261.261,0,0,1,1527.255,768.513Zm0-2.61a.261.261,0,0,1-.261-.261v-.783a.261.261,0,1,1,.522,0v.783A.261.261,0,0,1,1527.255,765.9Zm0-2.61a.261.261,0,0,1-.261-.261v-.783a.261.261,0,1,1,.522,0v.783A.261.261,0,0,1,1527.255,763.293Zm0-2.61a.261.261,0,0,1-.261-.261v-.783a.261.261,0,1,1,.522,0v.783A.261.261,0,0,1,1527.255,760.683Zm0-2.61a.261.261,0,0,1-.261-.261v-.783a.261.261,0,1,1,.522,0v.783A.261.261,0,0,1,1527.255,758.073Z" transform="translate(-1436.471 -704.803)"/><g transform="translate(12.682 18.165)"><path class="g" d="M1236.792,679.657a.391.391,0,0,1-.39-.358l-4.207-49.686a.391.391,0,1,1,.78-.066l4.207,49.686a.391.391,0,0,1-.357.423Z" transform="translate(-1231.299 -628.688)"/><path class="g" d="M1228.861,629.83l1.211-1.436,1.435,1.212-.1-1.123-1.435-1.211-1.211,1.435Z" transform="translate(-1228.765 -627.272)"/></g><g transform="translate(14.623 65.096)"><path class="g" d="M1322.8,811.445h-86.2a.392.392,0,0,1,0-.783h86.2a.392.392,0,0,1,0,.783Z" transform="translate(-1236.204 -809.726)"/><g transform="translate(85.036)"><path class="g" d="M1562,809.731l1.328-1.327L1562,807.076h1.127l1.328,1.328-1.328,1.327Z" transform="translate(-1561.998 -807.076)"/></g></g></g><g transform="translate(9.462 19.908)"><g class="cf"><g transform="translate(12.515 5.087)"><path class="by" d="M1152.514,1171.33a.8.8,0,0,0-.021-.211c-1.053-4.175-6.279-6.775-6.279-6.775l-2.071.162c-1.191,3.679-1.037,5.936-.846,6.941.005.028.014.055.021.082A49.129,49.129,0,0,0,1152.514,1171.33Z" transform="translate(-1125.767 -1030.992)"/><path class="cg" d="M1143.748,1191.309a.9.9,0,0,0,.657.664,28.414,28.414,0,0,0,7.914-.112.753.753,0,0,0,.625-.751A49.162,49.162,0,0,1,1143.748,1191.309Z" transform="translate(-1126.198 -1050.771)"/><g transform="translate(47.712)"><path class="ch" d="M1259.326,661.617l13.641-4.951,1.051,2.2-13.112,4.941A1.8,1.8,0,0,1,1259.326,661.617Z" transform="translate(-1259.303 -655.823)"/><path class="ci" d="M1311.452,655.211c-.4,1.218,1.051,2.2,1.051,2.2l2.474-1.751a4.95,4.95,0,0,1-.261-.965Z" transform="translate(-1297.789 -654.368)"/><path class="cj" d="M1324.156,653.766a4.95,4.95,0,0,0,.261.965l1.828-1.294Z" transform="translate(-1307.229 -653.437)"/></g><path class="ck" d="M1099.624,907.986a19.307,19.307,0,0,1-4.488,3.281,37.263,37.263,0,0,0,8.2,7.294l1.014,2.277,3.251-3.9S1101.77,914.038,1099.624,907.986Z" transform="translate(-1090.274 -841.546)"/><path class="cl" d="M1143.719,1153.149l.877,4.222a.691.691,0,0,0,.59.568,5.836,5.836,0,0,0,1.359-.022.868.868,0,0,0,.687-1.02l-.61-3.749Z" transform="translate(-1126.176 -1022.719)"/><path class="cm" d="M1201.786,1190.06a12.371,12.371,0,0,1-4.082-.583c0,.227,0,.459.007.7a.452.452,0,0,0,.431.459l12.558-.081a.573.573,0,0,0,.461-.835C1209.515,1189.855,1205.322,1190.159,1201.786,1190.06Z" transform="translate(-1166.07 -1049.565)"/><path class="by" d="M1211.163,1172.983a.575.575,0,0,0-.05-.095,16,16,0,0,0-9.516-5.974l-2.678-.085a12.85,12.85,0,0,0-1.215,5.911,12.365,12.365,0,0,0,4.082.583C1205.323,1173.423,1209.517,1173.119,1211.163,1172.983Z" transform="translate(-1166.072 -1032.829)"/><path class="cn" d="M1200.458,1149.444c.03.2.4,3.233.539,4.409a.583.583,0,0,0,.492.526,6.145,6.145,0,0,0,1.839-.028.793.793,0,0,0,.6-.8V1148.8Z" transform="translate(-1168.106 -1019.501)"/><path class="co" d="M1144.056,939.185a238.423,238.423,0,0,1,6.342,55.43,1.2,1.2,0,0,1-.949,1.165,13.938,13.938,0,0,1-2.994.346,1.11,1.11,0,0,1-1.057-.926c-.905-5.31-6.1-35.227-9.063-40.084,0,0-1.948,26.645-1.325,40.469a.655.655,0,0,1-.578.681,10.994,10.994,0,0,1-2.4-.007.876.876,0,0,1-.781-.744c-.645-4.495-4.358-31.247-4.2-50.518.009-1.087,2.874-5.812,2.874-5.812Z" transform="translate(-1113.852 -864.602)"/><path class="cp" d="M1127.831,736.693c-2.835,5.277-7.541,10.661-15.2,12.1-7.068,1.332-19.761,2.978-24.863,3.621a6.251,6.251,0,0,0-3.949,2.12c-4.01,4.64-12.808,17.344-2.452,30.145a19.3,19.3,0,0,0,4.488-3.281c-1.146-3.23-1.24-7.357,1.162-12.418a11.856,11.856,0,0,0,.307,1.189,73.645,73.645,0,0,1,3.479,21.22.664.664,0,0,0,.416.62c4.356,1.746,12.74.707,15.555.287a.947.947,0,0,0,.792-1.074c-1.381-10.007,5.708-26.47,7.58-30.594a2.735,2.735,0,0,1,1.36-1.361c10.707-4.844,15.362-12.3,17.249-19.017A10.24,10.24,0,0,0,1127.831,736.693Z" transform="translate(-1076.508 -714.962)"/><path class="cq" d="M1279.066,707.317a32.506,32.506,0,0,0,.508-15.2h-2.439a39.5,39.5,0,0,1-4,11.634A10.24,10.24,0,0,1,1279.066,707.317Z" transform="translate(-1221.816 -682.024)"/><path class="cr" d="M1283.955,669.957s-3.714-4.81-2.507-7.316,5.343-2.262,5.343-2.262l.58,1.964a2.47,2.47,0,0,1-.059,1.573l-2.285,6.042Z" transform="translate(-1227.778 -658.562)"/><path class="cs" d="M1146.124,759.371l-.839,8.576s4.825,1.453,8.334-1.023l-2.467-7.795Z" transform="translate(-1127.333 -731.543)"/><g transform="translate(14.858 13.805)"><path class="ct" d="M1151.886,721.58c.116.109,4.9,9.505,4.9,9.505l-5.423,2.618-5.858-8.231S1149.942,719.75,1151.886,721.58Z" transform="translate(-1142.355 -717.332)"/><path class="cu" d="M1138.983,714.693a.866.866,0,0,0,.065.76l2.7,4.508a.847.847,0,0,0,.149.185,1.419,1.419,0,0,0,2.275-.015,7.63,7.63,0,0,1,2.137-2.31.864.864,0,0,1,1.167.384,32.238,32.238,0,0,1,1.851,4.391.86.86,0,0,1-.5,1.056,23.979,23.979,0,0,1-5.194,1.515.864.864,0,0,1-.818-.348c-.829-1.135-3.164-4.307-3.961-5.1-.741-.738-2.107-.46-2.723-.283a.869.869,0,0,1-.691-.091,1.906,1.906,0,0,1-.718-2.9.866.866,0,0,0-.268-1.176,1.914,1.914,0,0,1-.733-2.715,2.7,2.7,0,0,1,2.922-1.43.9.9,0,0,0,.943-.524.572.572,0,0,1,.446-.352.84.84,0,0,0,.68-.986,2.216,2.216,0,0,1,1.237-2.538c2.34-1.286,4.39.81,4.911,2.579s-2.095,3.02-3.741,3.229C1139.912,712.685,1139.25,714,1138.983,714.693Z" transform="translate(-1133.432 -706.326)"/><path class="cv" d="M1146.93,755.667s-1.041-3.044-2.372-2.933-2.38,1.439-.729,2.93C1145.881,757.52,1146.93,755.667,1146.93,755.667Z" transform="translate(-1140.49 -740.619)"/></g><path class="cw" d="M1111.614,827.212a27.123,27.123,0,0,1-1.112-10.664l.484.055a26.583,26.583,0,0,0,1.086,10.441Z" transform="translate(-1101.542 -773.974)"/><path class="cx" d="M1147.732,983.678a.243.243,0,0,1-.235-.182c-.536-2.066-4.546-4.336-4.587-4.358a.243.243,0,0,1,.238-.425c.173.1,4.232,2.395,4.82,4.661a.244.244,0,0,1-.236.3Z" transform="translate(-1125.486 -893.789)"/></g></g></g></g><g transform="translate(275.669 263.079)"><path class="cy" d="M1338.064,1192.485c-.082.155-2.555,1.9-2.555,1.9s-1.719,9.465,1.433,14.126,13.9-3.637,13.9-3.637,6.042-.945,9.077-12.825c.7-2.726-3.658-.654-8.509-.153C1345.149,1192.54,1338.064,1192.485,1338.064,1192.485Z" transform="translate(-1304.189 -1186.664)"/><path class="cz" d="M1284.346,1291.45a20.625,20.625,0,0,1,6.267-2.916c.842-.229,5.388,1.092,8.2,1.027,3.857-.088,7.784-1.844,10.963-1.052a22.932,22.932,0,0,1,7.236,2.876c4.468,3.177,7.091,9.1,8.689,14.971a20.455,20.455,0,0,1-6.835,4.488l-.7,28.526-16.868,8.63-19.253-9.666.69-27.877s-6.114-2.847-6.563-3.883S1278.952,1295.159,1284.346,1291.45Z" transform="translate(-1260.65 -1258.817)"/><path class="da" d="M1272.309,1357.829s-8.193,22.714,10.49,32.049c3.879-.515,2.387-6.957,2.387-6.957s-8.118-1.8-5.68-20.744A52.461,52.461,0,0,0,1272.309,1357.829Z" transform="translate(-1256.509 -1310.194)"/><path class="db" d="M1427.292,1357.829s5.637,23.71-10.49,32.049c-3.88-.515-2.388-6.957-2.388-6.957s6.542-3.222,5.68-20.744A52.475,52.475,0,0,1,1427.292,1357.829Z" transform="translate(-1362.637 -1310.194)"/><rect class="dc" width="36.99" height="24.981" rx="10.142" transform="translate(21.166 56.298)"/><path class="dd" d="M1364.041,1410.763a2.257,2.257,0,0,1-1.839,2.724,2.425,2.425,0,0,1-2.755-2.045,2.306,2.306,0,0,1,1.736-2.838A2.612,2.612,0,0,1,1364.041,1410.763Z" transform="translate(-1322.198 -1347.699)"/><g transform="translate(57.019 87.934)"><path class="de" d="M1459.13,1513.434c-4.233-.972-14.017-.449-14.017-.449l-.4,1.078-.659,5.356s9.318,1.68,13.91,1.675a4.325,4.325,0,0,0,1.289-.193c.14-.125.277-.256.406-.4A5.048,5.048,0,0,0,1459.13,1513.434Z" transform="translate(-1441.77 -1512.683)"/><path class="df" d="M1435.829,1512.226l1.657.071a3.191,3.191,0,0,1,2.327,1.2,3.927,3.927,0,0,1,.854,2.686,3.092,3.092,0,0,1-.9,2.043,2.51,2.51,0,0,1-1.939.736l-2.535-.18Z" transform="translate(-1435.297 -1512.226)"/></g><g transform="translate(0 87.791)"><path class="dg" d="M1218.684,1512.056c4.256-.842,14.023-.019,14.023-.019l.371,1.089.525,5.375s-9.356,1.393-13.947,1.248a4.333,4.333,0,0,1-1.283-.232c-.137-.13-.271-.264-.4-.41A5.042,5.042,0,0,1,1218.684,1512.056Z" transform="translate(-1216.841 -1511.677)"/><path class="dh" d="M1274.447,1512.231l-1.658.02a3.172,3.172,0,0,0-2.357,1.132,3.908,3.908,0,0,0-.921,2.659,3.112,3.112,0,0,0,.845,2.07,2.526,2.526,0,0,0,1.92.8l2.538-.1Z" transform="translate(-1255.763 -1512.086)"/></g><path class="di" d="M1341.254,1438.94c-1.92-4.418-6.615-5.136-10.612-3.07-.07.091-25.379,13.063-47.7,18.748a24.265,24.265,0,0,1,1.039,6.37q.02.716-.023,1.413c17.116-.879,35.692-6.587,51.654-11.6A8.823,8.823,0,0,0,1341.254,1438.94Z" transform="translate(-1265.69 -1367.048)"/><path class="dj" d="M1283.925,1459.616a14.719,14.719,0,0,1,1.44-6.9c.03-.1.064-.191.1-.287-1.275-.4-2.921-.93-5.084-1.663a243.977,243.977,0,0,1-39.48-17.206c-4.483-2.449-9.58-.808-11.015,4.5-1.281,4.735,1.626,8.521,5.8,10.2,14.354,5.766,35.441,11.033,48.268,11.894C1283.943,1459.974,1283.931,1459.795,1283.925,1459.616Z" transform="translate(-1226.252 -1365.34)"/><path class="dk" d="M1331.637,1268.409a9.776,9.776,0,0,0,9.98,7.233c8.429-.153,9.18-7.257,9.18-7.257l-5.506-1.178-.46-6.135-8.282.613-.154,5.828Z" transform="translate(-1301.674 -1238.691)"/><path class="dl" d="M1344.324,1194.474s-9.492,18.385,1.768,22.846c7.942,3.146,12.921-12.209,11.436-16.369-2.3-6.431-3.809-5.668-3.809-5.668Z" transform="translate(-1308.286 -1189.477)"/><path class="ay" d="M1405.3,1218.714c-.027-.075-.05-.141-.071-.2.036.339.056.693.06,1.057q.022-.389.035-.778C1405.311,1218.764,1405.3,1218.738,1405.3,1218.714Z" transform="translate(-1356.054 -1207.239)"/><path class="ay" d="M1404.8,1216.9c-.013-.126-.028-.25-.046-.372C1405.241,1217.343,1404.3,1215.447,1404.8,1216.9Z" transform="translate(-1355.629 -1205.631)"/><path class="bb" d="M1358.534,1175.389c5.086-1.157,1.556,14.575-6.016,12s-11.1-4.163-12.279-2.084-3.146,10.583-3.8,6.174c-.611-4.121-1.2-11.674,2.777-13.323,2.259-.936,4.245,1.092,5.8.584,2.4-.782,4.706-.808,6.13.013C1353.844,1180.3,1355.3,1176.125,1358.534,1175.389Z" transform="translate(-1304.899 -1175.328)"/><path class="dm" d="M1341.243,1222.182s-1.642-2.479-2.39.058-.273,6.042,1.231,4.413S1341.243,1222.182,1341.243,1222.182Z" transform="translate(-1306.749 -1209.151)"/></g></g></g></svg>