<svg xmlns="http://www.w3.org/2000/svg" width="520.39" height="429.867" viewBox="0 0 520.39 429.867"><defs><style>.a,.d{fill:#a0c9ff;}.a{stroke:rgba(0,0,0,0);stroke-miterlimit:10;}.b{fill:#75a1de;}.c{fill:#3583c5;}.e{opacity:0.977;}</style></defs><g transform="translate(-141.147 -2385.788)"><g transform="translate(368.816 2419.692) rotate(140)"><path class="a" d="M0,41.624c0-4.234,3.173-5.946,5.491-7.2,2.075-1.12,2.92-1.685,2.92-2.779s-.845-1.66-2.921-2.78C3.173,27.617,0,25.9,0,21.67s3.173-5.946,5.49-7.2c2.075-1.121,2.921-1.686,2.921-2.781s-.844-1.66-2.921-2.779C3.173,7.663,0,5.95,0,1.716a1.716,1.716,0,1,1,3.432,0c0,2.085,1.334,2.906,3.688,4.177,2.1,1.136,4.723,2.55,4.723,5.8s-2.619,4.665-4.723,5.8c-2.286,1.234-3.688,2.1-3.688,4.177s1.334,2.905,3.688,4.177c2.1,1.136,4.723,2.549,4.723,5.8s-2.619,4.664-4.722,5.8c-2.287,1.235-3.689,2.1-3.689,4.178a1.716,1.716,0,0,1-3.432,0Z" transform="translate(0 0)"/></g><g transform="translate(141.147 2454)"><path class="b" d="M149.034,161.649a8.864,8.864,0,0,0,1.962-.222,8.762,8.762,0,1,0-6.616-1.128h0A8.716,8.716,0,0,0,149.034,161.649Zm-3.322-3.465h0Zm3.348-9.071a3.776,3.776,0,1,1-.844.095A3.853,3.853,0,0,1,149.06,149.113Z" transform="translate(-140.282 -144.111)"/></g><path class="c" d="M13.695,3.377,9.613,7.205l3.829,4.082a1.759,1.759,0,1,1-2.565,2.407L7.047,9.612,2.963,13.442A1.759,1.759,0,1,1,.556,10.877L4.639,7.046.809,2.962A1.759,1.759,0,0,1,3.375.555L7.206,4.64,11.288.811a1.759,1.759,0,0,1,2.406,2.566Z" transform="translate(656.664 2722.465) rotate(-160)"/><g transform="translate(-208.472 3032.303)"><path class="d" d="M392.624-216.648H360.972a2.5,2.5,0,0,1-2.5-2.5V-250.8a2.5,2.5,0,0,1,2.5-2.5h31.652a2.5,2.5,0,0,1,2.5,2.5v31.655A2.5,2.5,0,0,1,392.624-216.648Zm-29.152-5h26.652V-248.3H363.472Z"/></g><g class="e" transform="translate(806.965 2488.362)"><path class="b" d="M-178.6-37.372a1.426,1.426,0,0,1-1.009-.417l-16.942-16.92a1.427,1.427,0,0,1-.371-1.378,1.428,1.428,0,0,1,1.009-1.01l23.124-6.215a1.426,1.426,0,0,1,1.378.368,1.426,1.426,0,0,1,.37,1.378L-174.126-50h0l-3.09,11.567a1.428,1.428,0,0,1-1.009,1.01A1.417,1.417,0,0,1-178.6-37.372Zm-14.185-17.61,13.444,13.426,2.452-9.178h0l2.454-9.18Z" transform="translate(0)"/></g></g></svg>