<svg xmlns="http://www.w3.org/2000/svg" xmlns:xlink="http://www.w3.org/1999/xlink" width="409.482" height="411.469" viewBox="0 0 409.482 411.469"><defs><style>.a{fill:none;}.b{fill:#e7f3fe;}.c{fill:#28507f;}.d{fill:#2e5b9a;}.e{fill:#a8ceff;}.f{fill:#91b3fa;}.g{fill:#fff;opacity:0.66;}.h{clip-path:url(#a);}.i{fill:url(#b);}.j{fill:#96cfe0;}.k{fill:url(#c);}.l{fill:url(#d);}.m{fill:url(#e);}.n{fill:url(#f);}.o{fill:url(#g);}.p{fill:url(#h);}.q{fill:url(#i);}.r{fill:url(#j);}.s{fill:url(#k);}.t{fill:url(#l);}.u{fill:#4d7cb5;}.v{fill:#6195c9;}.w{fill:#d3262a;}.x{fill:url(#m);}.y{fill:url(#n);}.z{fill:url(#o);}.aa{fill:#a2dff2;}.ab{fill:url(#p);}.ac{fill:url(#q);}.ad{fill:url(#r);}.ae{fill:url(#s);}.af{fill:url(#t);}.ag{fill:url(#u);}.ah{fill:url(#v);}.ai{fill:#3583c5;}</style><clipPath id="a"><rect class="a" width="339.709" height="255.132" rx="33.159"/></clipPath><linearGradient id="b" x1="1.422" y1="-0.864" x2="0.328" y2="0.338" gradientUnits="objectBoundingBox"><stop offset="0" stop-color="#febbba"/><stop offset="1" stop-color="#ff928e"/></linearGradient><linearGradient id="c" x1="-23.283" y1="0.978" x2="-23.059" y2="0.069" xlink:href="#b"/><linearGradient id="d" x1="-13.98" y1="-0.045" x2="-12.771" y2="1.119" xlink:href="#b"/><linearGradient id="e" x1="-13.833" y1="-1.854" x2="-15.713" y2="0.051" gradientUnits="objectBoundingBox"><stop offset="0" stop-color="#09005d"/><stop offset="1" stop-color="#1a0f91"/></linearGradient><linearGradient id="f" x1="-37.701" y1="-2.664" x2="-34.325" y2="1.654" xlink:href="#b"/><linearGradient id="g" x1="-0.483" y1="1.257" x2="0.918" y2="0.12" xlink:href="#b"/><linearGradient id="h" x1="-0.061" y1="0.373" x2="0.935" y2="0.373" xlink:href="#e"/><linearGradient id="i" x1="1.869" y1="0.361" x2="-2.028" y2="0.691" xlink:href="#b"/><linearGradient id="j" x1="-0.048" y1="0.355" x2="0.945" y2="0.355" xlink:href="#e"/><linearGradient id="k" x1="-1.468" y1="1.972" x2="1.556" y2="-0.228" gradientUnits="objectBoundingBox"><stop offset="0" stop-color="#53d8ff"/><stop offset="1" stop-color="#3840f7"/></linearGradient><linearGradient id="l" x1="0.232" y1="0.339" x2="3.202" y2="-1.838" xlink:href="#b"/><linearGradient id="m" x1="-9.507" y1="0.417" x2="-8.849" y2="1.226" xlink:href="#e"/><linearGradient id="n" x1="-8.487" y1="0.26" x2="-7.126" y2="1.995" xlink:href="#e"/><linearGradient id="o" x1="-6.341" y1="0.212" x2="-6.793" y2="0.899" xlink:href="#b"/><linearGradient id="p" x1="-5.392" y1="0.791" x2="-4.695" y2="-1.379" xlink:href="#b"/><linearGradient id="q" x1="-28.673" y1="1.062" x2="-28.562" y2="0.1" xlink:href="#b"/><linearGradient id="r" x1="-15.713" y1="-21.738" x2="-16.019" y2="-22.77" xlink:href="#b"/><linearGradient id="s" x1="-11.31" y1="-16.543" x2="-11.109" y2="-15.359" xlink:href="#e"/><linearGradient id="t" x1="-52.336" y1="-96.258" x2="-53.297" y2="-100.74" xlink:href="#b"/><linearGradient id="u" x1="0.081" y1="-0.106" x2="0.873" y2="0.98" xlink:href="#e"/><linearGradient id="v" x1="1.096" y1="-13.387" x2="0.307" y2="4.996" xlink:href="#e"/></defs><g transform="translate(-461.759 -455)"><path class="b" d="M817.394,800.468A154.564,154.564,0,0,1,790.247,822.5c-70.307,46.945-150.675,33.414-175.523,28.789-40.089-7.461-73.93-12.725-103-38.993-66.068-59.69-62.854-184.206-12.37-261.339,5.986-9.146,56.393-83.865,136.936-94.394,1.97-.257,3.44-.4,4.727-.54,12.46-1.319,89.67-8.282,152.627,44.464a187.812,187.812,0,0,1,36.964,41.94C879.778,618.378,879.934,736,817.394,800.468Z" transform="translate(0 0)"/><g transform="translate(491.004 478.527)"><g transform="translate(0 77.951)"><path class="c" d="M1701.989,2508.072l-8.211,73.636h95.257l-12.407-73.636Z" transform="translate(-1541.975 -2307.845)"/><path class="d" d="M660.77,1164.352V1333a25.583,25.583,0,0,0,24.924,25.576c61.6,1.588,277.036,5.44,335.672,4.575a18.824,18.824,0,0,0,18.533-18.288c1.131-39.179,2.967-133.39-3.829-177.129a19.372,19.372,0,0,0-18.523-16.4c-51.611-1.651-279.989-6.894-338.6-5.578A18.6,18.6,0,0,0,660.77,1164.352Z" transform="translate(-660.77 -1145.548)"/><path class="e" d="M732.78,1201.566V1361.79a14.823,14.823,0,0,0,14.6,14.821l326.977,4.04a14.426,14.426,0,0,0,14.641-14.37l.547-158.793a10.55,10.55,0,0,0-10.294-10.586l-334.764-6.763A11.431,11.431,0,0,0,732.78,1201.566Z" transform="translate(-722.198 -1183.582)"/><path class="d" d="M1088.545,2490.29h-.009l-358.681-6.112a.5.5,0,0,1,.008-1h.009l358.681,6.111a.5.5,0,0,1-.008,1Z" transform="translate(-719.282 -2286.606)"/><path class="d" d="M1637.412,2991.856H1498c-3.787,0-6.632-2.7-5.9-5.592l1.789-7.075c.538-2.128,2.879-3.69,5.659-3.777l134.4-4.194c2.9-.091,5.476,1.451,6.109,3.662l3.225,11.269C1644.118,2989.077,1641.26,2991.856,1637.412,2991.856Z" transform="translate(-1369.833 -2702.927)"/><path class="f" d="M2040.7,3006.828a.5.5,0,0,1-.007-1l5.76-.084a.508.508,0,0,1,.51.495.5.5,0,0,1-.495.51l-5.759.084Z" transform="translate(-1837.488 -2732.379)"/><path class="d" d="M1524.975,3018.683a.493.493,0,0,1-.08-.006.5.5,0,0,1-.417-.574l.822-5.146a5.787,5.787,0,0,1,5.64-4.884l61.086-.893a.512.512,0,0,1,.509.495.5.5,0,0,1-.495.51l-61.086.893a4.786,4.786,0,0,0-4.663,4.037l-.821,5.146A.5.5,0,0,1,1524.975,3018.683Z" transform="translate(-1397.549 -2733.607)"/></g><rect class="g" width="304.54" height="157.774" rx="33.159" transform="translate(21.118 97.358)"/><g transform="translate(22.107 0)"><g class="h"><g transform="translate(37.901 48.382)"><path class="i" d="M1857.289,1282.085a1.582,1.582,0,0,0-2.924.311c-1.419,5.106-4.852,14.016-12.057,17.18-.363.16-.707.321-1.039.483a3.663,3.663,0,0,1,.451-3.313c2.24-3.423-1.8-8.1-1.8-8.1a10.423,10.423,0,0,1-3.4,6.71c-2.7,2.233-3.99,7.2-2.148,11.279,3.9,15.146,9.738,35.177-13.006,49.812s-54.775-27.619-54.775-27.619l15.9,50.4s24.538,18.108,53.08-7.354,9.624-62.513,9.624-62.513S1866.961,1300.578,1857.289,1282.085Z" transform="translate(-1664.096 -1231.73)"/><path class="d" d="M1167.635,967.389s6.589-29.558-27.268-21.733c0,0-16.435-2.686-17.271,12.827,0,0-10.594,6.981-2.837,20.405,0,0-31.484-12.161-45.2,15.435s-1.109,42.781,12.11,46.736c0,0-10.71,5.377-5.64,17.519s30.741,20.7,45.906,5.935c0,0,43.151,5.7,42.287-24.777,0,0,20.07-12.96-1.01-38.15S1167.635,967.389,1167.635,967.389Z" transform="translate(-1069.123 -944.337)"/><path class="j" d="M1466.4,1556.869c-6.8-2.04-26.613-5.805-45.456,11.583a11.669,11.669,0,0,0-3.362,11.627c5.061,18.632,18.414,73.68,6.706,97.5,0,0,20.633,22.745,43.142,4.413,0,0,10.1-44.017,23.328-63.34,9.133-13.341-14.562-50.1-20.558-58.976A7.021,7.021,0,0,0,1466.4,1556.869Z" transform="translate(-1366.03 -1465.305)"/><path class="k" d="M1561.5,1315.521s-10.062,28.461-10.819,41.017a21.522,21.522,0,0,0,21.6-3.478s1.1-28.428,2.688-33.518Z" transform="translate(-1479.918 -1260.974)"/><path class="l" d="M1565.5,1050.235s26.318,36.83,10.586,47.528-34.467-15.476-34.467-15.476-6.107-20.159.279-27S1565.5,1050.235,1565.5,1050.235Z" transform="translate(-1469.94 -1034.494)"/><path class="m" d="M1510.83,988.706s12.09,2.865,13.785,8.335-17.145,10.543-22.424,10.792l-4.253,22.075s-12.574-20.766-7.593-32.759S1510.83,988.706,1510.83,988.706Z" transform="translate(-1427.449 -981.767)"/><path class="n" d="M1504.066,1211.953s-10.244-11.863-14.318-4.129,9.22,13.541,13.823,9.744Z" transform="translate(-1427.282 -1166.87)"/><path class="o" d="M1467.617,3047.745c-.078,2,3.431,17.848,5.34,26.3a13.924,13.924,0,0,1-1.5,9.989l-66.125,111.292a15.189,15.189,0,0,0-1.736,4.33c-1.212,5.223-3.725,18.022-2.413,29.667l3.421,7.1-14.794-3.359-3.219-39.73,4.188-2.554a19.906,19.906,0,0,0,8.049-9.423c5.979-14.524,20.828-51.5,24.655-69.513,4.35-20.477,27.089-37.109,27.089-37.109l-3.995-9.445Z" transform="translate(-1339.939 -2738.643)"/><path class="p" d="M1296.61,4046.946s7.989-12.666,8.929-17.6,3.557-13.637,8.482-11.016c0,0,2.321,23.95,1.521,33.309s10.579,9.058,10.579,9.058a10.626,10.626,0,0,1,5.433,2.737,2.664,2.664,0,0,1-1.786,4.48,64.038,64.038,0,0,1-15.849-.9,4.849,4.849,0,0,1-3.911-4.473l-1.64-27.565-10.078,12.725Z" transform="translate(-1263.18 -3566.189)"/><path class="q" d="M1478.4,3152.82s-2.332,99.551-2.648,113.689,2.233,45.472,16.406,54.837l-6.168,4.566s-7.708-6.551-15.238-19.159c-8.459-14.163-11.017-16.751-11.017-16.751l2.807-5.748a12.64,12.64,0,0,0,1.024-8.107c-3.058-14.824-13.276-64.132-16.064-74.75-3.29-12.534-3.524-29.273,7.922-43.285S1478.4,3152.82,1478.4,3152.82Z" transform="translate(-1390.229 -2825.99)"/><path class="r" d="M1528.694,4128.459a.87.87,0,0,1-.875-.747c-.472-3.318-2.435-16.624-4.042-20.069-1.841-3.946-7.853-20.553,0-21.963,0,0,19.531,28.535,23.28,32.382s8.481,1.344,8.481,1.344a14.122,14.122,0,0,1,6.408,4.6,2.586,2.586,0,0,1-2.038,4.155l-13.155.126a9.256,9.256,0,0,1-8.677-5.832c-2.316-5.783-6.294-14.267-10.93-18.031l2.409,23.067A.877.877,0,0,1,1528.694,4128.459Z" transform="translate(-1453.607 -3624.05)"/><path class="s" d="M1381.41,2307.986s-2.964,9.449,1.59,25.012l28.252,98.657a3.055,3.055,0,0,1-1.91,3.718c-8.451,3.033-36.231,11.605-74.153,8.991a4.307,4.307,0,0,1-3.926-3.352c-2.5-11.247-11.024-49.622-12.78-57.507-6.688-30.044-14.157-62.445,18.7-82.036C1352.323,2307.954,1366.445,2311.777,1381.41,2307.986Z" transform="translate(-1276.895 -2102.034)"/><path class="t" d="M1186.975,1658.169s-32.144,26.714-40.122,63.217,46.971,40.383,46.971,40.383,7.459-8.33,16.315-5.359.686-14.538-9.676-14.492-5.562,8.239-20.219,1.6c-14.279-6.468-23.1-26.471,13.327-56.793a16.5,16.5,0,0,0,4.812-6.552C1205.46,1662.356,1199.847,1650.678,1186.975,1658.169Z" transform="translate(-1134.755 -1551.304)"/></g></g></g></g><g transform="translate(461.759 507.148)"><path class="c" d="M657.871,936.247l7.006,18.739a9.361,9.361,0,0,1-.544,7.759c-3.264,5.988-11.56,17.011-30.586,23.926-19.323,7.023-31,2.553-36.134-.615a9.964,9.964,0,0,1-4.07-4.911l-7.609-19.829Z" transform="translate(-567.687 -917.674)"/><path class="u" d="M509.564,809.925l56.771,10.684a3.719,3.719,0,0,1,1.968,6.26c-10.164,10.354-33.218,34.416-41.564,47.951a3.713,3.713,0,0,1-4.279,1.588l-58.1-18.314a3.719,3.719,0,0,1-1.571-6.117c10.044-10.5,35.64-36.83,44.286-41.654A3.7,3.7,0,0,1,509.564,809.925Z" transform="translate(-461.759 -809.86)"/><path class="u" d="M623.9,987.191s-27.916,21.215-29.8,25.669,4.342,23.412,4.342,23.412c-3.221,16.786-2.356,34.634,6.313,43.254,0,0,7.8-22.386,2.685-31.087s-7.112-12.277-7.112-12.277-5.587-20.3-4.647-23.355C595.682,1012.806,626.508,988.152,623.9,987.191Z" transform="translate(-574.352 -961.132)"/><path class="v" d="M764.583,904.007,738.665,934.46l-6.479,7.613-1.62,1.9-.809.947a5.319,5.319,0,0,1-5.295,1.666l-19.439-4.678a.286.286,0,0,0-.136.555l19.4,4.825a6.07,6.07,0,0,0,6.046-1.86l.821-.947,1.634-1.891,6.537-7.564,26.148-30.255a.589.589,0,0,0-.891-.77Z" transform="translate(-668.973 -889.995)"/><path class="v" d="M645,1381.5l.061.055.072.072.147.146.285.321c.188.217.358.459.539.687l.488.737c.154.253.293.516.44.774a8.125,8.125,0,0,1,.4.8c.124.272.258.539.374.815l.317.842a8.825,8.825,0,0,1,.3.851l.253.867a9.029,9.029,0,0,1,.232.874c.123.592.255,1.182.371,1.776l.245,1.8c.019.15.044.3.058.451l.029.455.058.91c.116,1.212.056,2.433.064,3.652.007.305-.017.61-.039.914l-.063.914c-.045.609-.078,1.219-.133,1.828-.165,1.212-.3,2.428-.49,3.638l-.685,3.612,0,.011a.2.2,0,0,0,.4.082l.784-3.616c.219-1.214.392-2.438.59-3.657.072-.614.121-1.23.183-1.846l.088-.924c.031-.308.062-.616.064-.926.025-1.239.117-2.478.032-3.719l-.036-.932-.018-.466c-.01-.155-.032-.309-.047-.464l-.2-1.858c-.1-.615-.224-1.229-.335-1.844-.047-.31-.14-.61-.217-.913l-.24-.909c-.07-.306-.186-.6-.287-.9l-.31-.892c-.114-.294-.248-.581-.372-.871a8.921,8.921,0,0,0-.4-.86c-.15-.28-.292-.564-.45-.84l-.509-.813c-.193-.259-.372-.526-.579-.778l-.318-.376-.175-.184-.089-.093-.109-.1a.589.589,0,1,0-.8.862l.007.006Z" transform="translate(-617.881 -1296.592)"/><path class="v" d="M644.59,1435.1l.1,1.153.1,1.3.194,2.607.366,5.22.7,10.444a.32.32,0,0,0,.639-.034l-.432-10.461-.232-5.231-.127-2.617-.071-1.311-.041-.66-.022-.332c-.013-.142-.038-.31-.065-.461a.573.573,0,0,0-1.134.151Z" transform="translate(-617.704 -1342.49)"/></g><g transform="translate(696.527 714.09)"><path class="w" d="M2347.076,2400.357s15.354,8.505,16.625,22.9.105,74.144-30.683,88.849-71.543,11.317-87.142,9.709-24.249-12.209-26.182-19.509-5.053-34.492,11.358-43.263,33.646-22.209,50.869-35.294S2328.66,2389.306,2347.076,2400.357Z" transform="translate(-2194.777 -2370.952)"/><path class="x" d="M2233.61,2851.3s4.144.219,4.652,8.745c0,0-9.609,8.614-22.589,10.665-.974.154,1.363-6.652,1.714-7.574C2219.058,2858.752,2224.322,2855.927,2233.61,2851.3Z" transform="translate(-2192.496 -2758.249)"/><path class="d" d="M2317.411,2593.654h-8.745s-26.84-29.643-44.445-32.633c0,0-12.254,15.642.653,44.869a4.266,4.266,0,0,0,6.108,2.012,3.5,3.5,0,0,0,1.4-1.664l-1.038-24.955s22.9,20.024,26.875,23.888S2322.422,2606.68,2317.411,2593.654Z" transform="translate(-2229.627 -2510.624)"/><path class="y" d="M2080.772,3161.045a32.876,32.876,0,0,1,17.933-7.848l2.851,1.744a31.056,31.056,0,0,1-5.139,5.513c-3.052,1.773-7.765,4.174-11.672,4.694C2080.946,3165.654,2080.386,3163.359,2080.772,3161.045Z" transform="translate(-2077.532 -3015.778)"/><path class="f" d="M2207.12,2906.341c2.258.731,3.251,3.929,8.979,1.814a50.707,50.707,0,0,0,11.782-6.207c.048.412.087.843.115,1.3,0,0-10.132,9.637-23.112,11.688a1.292,1.292,0,0,1-1.4-1.741A32.617,32.617,0,0,1,2207.12,2906.341Z" transform="translate(-2182.23 -2801.451)"/><path class="f" d="M2059.808,3205.914a30.239,30.239,0,0,1,2.761-2.742c-.386,2.314.174,4.609,3.973,4.1,3.907-.521,8.619-2.921,11.671-4.694-3.825,3.262-9.645,6.725-16.991,6.521A1.927,1.927,0,0,1,2059.808,3205.914Z" transform="translate(-2059.33 -3057.906)"/><path class="d" d="M2256.158,2826.144l-40.952.443s-23.386,19.349-27.628,48.853c0,0-.7,2.17,3.523,2.541a81.179,81.179,0,0,0,23.358-25.562c11.3-20.019,33.7-11.008,33.7-11.008,7.358-5.305,17.756-6.386,25.59-8.153Z" transform="translate(-2168.694 -2736.787)"/><path class="z" d="M2441.825,2601.66s-4.408,22.094-26.009,30.834l-7.683-.906-1.813,2.891,18.023.574a49.3,49.3,0,0,0,23.569-22.729C2448.181,2611.775,2452.676,2602.494,2441.825,2601.66Z" transform="translate(-2355.329 -2545.292)"/><path class="aa" d="M2627.893,2511.225s5.013-13.627,6.091-26.869a57.9,57.9,0,0,0-5.96-4.512,1.658,1.658,0,0,1-.647-2.149c1.686-3.491,11.878-17.2,12.641-17.391,4.15-1.036,21.169-9.128,33.156,7.268,5.144,7.036-1.021,28.7-24.359,51.129l-4.815.921Z" transform="translate(-2543.758 -2422.229)"/><path class="ab" d="M2485.4,2661.168s-13.928,16.492-31.736,18.9c0,0-4.6-4.2-8.024-2.7s-8.115,8.11-8.115,8.11h22.865s21.62-.762,32.423-13.872C2491.944,2667.024,2489.341,2664.284,2485.4,2661.168Z" transform="translate(-2381.949 -2596.055)"/><path class="ac" d="M2762.075,2398.462l3.047,10.164a1.117,1.117,0,0,1-.434,1.245,11.356,11.356,0,0,1-10.563,1.062,1.658,1.658,0,0,1-1.066-1.423l-.722-8.855Z" transform="translate(-2650.497 -2371.954)"/><g transform="translate(94.206 0)"><path class="ad" d="M2704.921,2283.087s-5.483,9.121-4.386,14.189,8.755,8.148,15.832,3.664l4.448-13.886Z" transform="translate(-2700.39 -2273.533)"/><path class="ae" d="M2721.24,2238.795a.522.522,0,0,1-.263-.752,13.612,13.612,0,0,0,1.685-4.054s1.172-.829-3.156-1.656-10.785-2.122-12.295-5.7c-1.472-3.492,1.552-12.584,7.364-5.72a.522.522,0,0,0,.826-.032c.845-1.212,3.1-3.75,6.445-2.429,3.134,1.236,3.584,3.47,3.594,4.606a.518.518,0,0,0,.638.5c1.539-.368,5.252-.794,7.168,2.947,1.578,3.082.729,4.907-.078,5.818a.519.519,0,0,0,.262.852c1.035.266,2.392,1.07,2.371,3.466-.03,3.313-3.738,3.193-4.8,3.091a.524.524,0,0,0-.455.185c-.856,1.04-4.724,5.466-9.1,6.18a.526.526,0,0,1-.583-.669l1.648-5.621a.524.524,0,0,0-.313-.636Z" transform="translate(-2705.894 -2218.078)"/><path class="af" d="M2791.921,2354.149s4.631-3.5,5.108-.755-4.121,4.2-6.475,3.278Z" transform="translate(-2777.304 -2332.612)"/></g><path class="ag" d="M2275.024,2616.626l-10.266-34.237a3.5,3.5,0,0,0-3.115-2.487l-13.861-.949a1.966,1.966,0,0,0-1.989,2.613l11.477,32.7a2.878,2.878,0,0,0,2.426,1.91l13.649,1.516Z" transform="translate(-2218.296 -2525.917)"/><path class="f" d="M2313.465,2659.931c.766,1.547,2.09,2.453,2.957,2.024s.947-2.031.181-3.578-2.09-2.454-2.956-2.024S2312.7,2658.384,2313.465,2659.931Z" transform="translate(-2275.671 -2591.856)"/><path class="ah" d="M2426.377,2818.888l.067,0,29.083-1.47a1.3,1.3,0,1,0-.132-2.6l-29.083,1.47a1.3,1.3,0,0,0,.065,2.6Z" transform="translate(-2371.327 -2727.119)"/><path class="j" d="M2671.435,2556.358a.322.322,0,0,1-.322-.321c-.021-6.157,2.347-14.3,2.371-14.38a.322.322,0,0,1,.617.181c-.024.08-2.365,8.135-2.345,14.2a.321.321,0,0,1-.32.323Z" transform="translate(-2581.209 -2493.909)"/><path class="j" d="M2761.441,2580.382a.321.321,0,0,1-.252-.521c.064-.081,6.374-8.1,8.531-13.569a.322.322,0,0,1,.6.236c-2.192,5.555-8.561,13.65-8.625,13.732A.321.321,0,0,1,2761.441,2580.382Z" transform="translate(-2657.99 -2514.947)"/><path class="j" d="M2816.657,2656.787l-1.206-1.705a.322.322,0,0,1,.525-.371l.9,1.279c8.876-3.947,14.376-14.569,14.431-14.677a.321.321,0,0,1,.573.292c-.056.111-5.755,11.127-14.988,15.08Z" transform="translate(-2704.286 -2578.967)"/></g><g transform="translate(667.346 470.303)"><path class="ai" d="M1997.067,945.247l-2.526,21.606a1.783,1.783,0,0,0,3.053,1.446l22.278-23.052Z" transform="translate(-1974.87 -888.507)"/><path class="ai" d="M2003.025,621.812H1867.368a6.611,6.611,0,0,1-6.611-6.611V565.747a6.611,6.611,0,0,1,6.783-6.609l135.657,3.523a6.611,6.611,0,0,1,6.439,6.609V615.2A6.611,6.611,0,0,1,2003.025,621.812Z" transform="translate(-1860.757 -559.136)"/><path class="g" d="M2021.2,645.9H1893.334a6.023,6.023,0,0,1-6.231-5.79V596.794a6.036,6.036,0,0,1,6.393-5.788l127.861,3.086a6.009,6.009,0,0,1,6.069,5.788v40.23A6.023,6.023,0,0,1,2021.2,645.9Z" transform="translate(-1883.231 -586.32)"/><rect class="g" width="117.184" height="3.48" rx="1.74" transform="translate(15.139 14.831)"/><rect class="g" width="117.184" height="3.48" rx="1.74" transform="translate(15.139 48.385)"/><rect class="g" width="79.757" height="3.48" rx="1.74" transform="translate(15.139 37.544)"/><rect class="g" width="49.816" height="3.48" rx="1.74" transform="translate(15.139 26.31)"/><rect class="g" width="32.78" height="3.48" rx="1.74" transform="translate(99.542 37.544)"/><rect class="g" width="60.399" height="3.48" rx="1.74" transform="translate(71.924 26.309)"/></g></g></svg>