<svg xmlns="http://www.w3.org/2000/svg" width="23" height="23" viewBox="0 0 23 23"><defs><style>.a{fill:#d3262a;}</style></defs><g transform="translate(0 -0.002)"><g transform="translate(6.558 16.622)"><path class="a" d="M146.449,370a.45.45,0,1,0,.45.45A.45.45,0,0,0,146.449,370Z" transform="translate(-145.999 -370.002)"/></g><g transform="translate(0 0.002)"><g transform="translate(0 0)"><path class="a" d="M20.221,8.537,22.868,5.89a.449.449,0,0,0-.185-.747l-6.446-1.99a4.493,4.493,0,0,0-8.455-.338L.315,5.143a.449.449,0,0,0-.184.747L2.848,8.607,1.134,11.463a.449.449,0,0,0,.243.657l2.485.828v6.909a.449.449,0,0,0,.291.421l7.2,2.7a.448.448,0,0,0,.287,0h0l8.086-2.7a.449.449,0,0,0,.307-.426V12.763l2.65-.833a.449.449,0,0,0,.183-.746Zm-3.78-4.043c0-.114,0-.228-.013-.342l5.278,1.629L19.464,8.023,15.8,6.8A4.505,4.505,0,0,0,16.441,4.494ZM8.549,3.325a3.594,3.594,0,0,1,6.993,1.169,3.593,3.593,0,0,1-3.594,3.594,3.6,3.6,0,0,1-3.4-4.763ZM1.292,5.78,7.5,3.843a4.529,4.529,0,0,0-.048.651,4.465,4.465,0,0,0,.5,2.056L3.535,8.023Zm.9,5.665,1.42-2.367,7.213,2.4-1.42,2.367ZM11.05,21.9,4.761,19.546v-6.3c4.948,1.641,4.706,1.591,4.844,1.591a.449.449,0,0,0,.385-.218l1.059-1.766ZM11.5,10.759,4.834,8.537l3.629-1.21a4.491,4.491,0,0,0,6.769.232l2.933.977Zm7.637,8.775-7.187,2.4V12.513l1.593,1.99a.449.449,0,0,0,.485.148l5.109-1.606ZM14.051,13.7l-1.8-2.247,7.211-2.4L21.709,11.3Z" transform="translate(0 -0.002)"/></g></g><g transform="translate(8.253 17.215)"><path class="a" d="M185.366,383.623l-1-.375a.45.45,0,1,0-.316.843l1,.375a.45.45,0,0,0,.316-.843Z" transform="translate(-183.757 -383.219)"/></g><g transform="translate(6.555 18.491)"><path class="a" d="M149.3,412.82l-2.7-1.013a.45.45,0,0,0-.316.843l2.7,1.013a.45.45,0,0,0,.316-.843Z" transform="translate(-145.995 -411.779)"/></g><g transform="translate(10.147 2.703)"><path class="a" d="M230.367,60.133a.45.45,0,0,0-.637,0l-2.382,2.382-.582-.582a.45.45,0,0,0-.637.637l.9.9a.45.45,0,0,0,.637,0l2.7-2.7A.45.45,0,0,0,230.367,60.133Z" transform="translate(-225.998 -60.001)"/></g></g></svg>