<svg xmlns="http://www.w3.org/2000/svg" width="28.482" height="32.551" viewBox="0 0 28.482 32.551"><defs><style>.a{fill:#e2e5e7;}.b{fill:#b0b7bd;}.c{fill:#cad1d8;}.d{fill:#f15642;}.e{fill:#fff;}</style></defs><g transform="translate(-32)"><path class="a" d="M98.034,0A2.04,2.04,0,0,0,96,2.034V30.516a2.04,2.04,0,0,0,2.034,2.034h20.344a2.04,2.04,0,0,0,2.034-2.034V8.138L112.275,0Z" transform="translate(-59.931)"/><path class="b" d="M354.034,8.138h6.1L352,0V6.1A2.04,2.04,0,0,0,354.034,8.138Z" transform="translate(-299.656)"/><path class="c" d="M390.1,134.1,384,128h6.1Z" transform="translate(-329.621 -119.862)"/><path class="d" d="M56.413,251.189a1.02,1.02,0,0,1-1.017,1.017H33.017A1.02,1.02,0,0,1,32,251.189V241.017A1.02,1.02,0,0,1,33.017,240H55.4a1.02,1.02,0,0,1,1.017,1.017Z" transform="translate(0 -224.742)"/><g transform="translate(36.434 18.712)"><path class="e" d="M101.744,294.882a.56.56,0,0,1,.552-.562h1.879a2.034,2.034,0,0,1,0,4.067h-1.358v1.074a.511.511,0,0,1-.521.561.548.548,0,0,1-.552-.561Zm1.073.463v2.026h1.358a1.014,1.014,0,0,0,0-2.026Z" transform="translate(-101.744 -294.32)"/><path class="e" d="M188.386,301.1a.509.509,0,0,1-.562-.5v-4.62a.553.553,0,0,1,.562-.5h1.863c3.717,0,3.636,5.628.073,5.628Zm.513-4.635v3.644h1.35c2.2,0,2.294-3.644,0-3.644Z" transform="translate(-182.351 -295.399)"/><path class="e" d="M288.2,296.515v1.293h2.074a.629.629,0,0,1,.586.577.565.565,0,0,1-.586.488H288.2v1.708a.482.482,0,0,1-.487.5.517.517,0,0,1-.577-.5v-4.62a.514.514,0,0,1,.577-.5h2.855a.507.507,0,0,1,.57.5.562.562,0,0,1-.57.553H288.2Z" transform="translate(-275.35 -295.384)"/></g><path class="c" d="M115.327,417.017H96v1.017h19.327a1.02,1.02,0,0,0,1.017-1.017V416A1.02,1.02,0,0,1,115.327,417.017Z" transform="translate(-59.931 -389.553)"/></g></svg>