<svg xmlns="http://www.w3.org/2000/svg" width="33.218" height="33.218" viewBox="0 0 33.218 33.218"><defs><style>.a{fill:#143754;}</style></defs><path class="a" d="M213.358,210.179A3.179,3.179,0,1,1,210.179,207,3.179,3.179,0,0,1,213.358,210.179Zm0,0" transform="translate(-193.57 -193.57)"/><path class="a" d="M150.738,137.682a3.158,3.158,0,0,0-1.81-1.81,5.277,5.277,0,0,0-1.771-.328c-1.006-.046-1.307-.056-3.854-.056s-2.848.01-3.854.055a5.28,5.28,0,0,0-1.771.328,3.16,3.16,0,0,0-1.81,1.81,5.279,5.279,0,0,0-.328,1.771c-.046,1.006-.056,1.307-.056,3.854s.01,2.848.056,3.854a5.277,5.277,0,0,0,.328,1.771,3.158,3.158,0,0,0,1.81,1.81,5.271,5.271,0,0,0,1.771.328c1.006.046,1.307.055,3.854.055s2.849-.01,3.854-.055a5.271,5.271,0,0,0,1.771-.328,3.158,3.158,0,0,0,1.81-1.81,5.281,5.281,0,0,0,.328-1.771c.046-1.006.056-1.307.056-3.854s-.01-2.848-.056-3.854A5.27,5.27,0,0,0,150.738,137.682ZM143.3,148.2a4.9,4.9,0,1,1,4.9-4.9A4.9,4.9,0,0,1,143.3,148.2Zm5.091-8.844a1.144,1.144,0,1,1,1.145-1.144A1.145,1.145,0,0,1,148.394,139.36Zm0,0" transform="translate(-126.694 -126.698)"/><path class="a" d="M16.609,0A16.609,16.609,0,1,0,33.218,16.609,16.611,16.611,0,0,0,16.609,0Zm9.48,20.541a7,7,0,0,1-.443,2.315,4.877,4.877,0,0,1-2.789,2.789,7,7,0,0,1-2.315.443c-1.017.046-1.342.058-3.932.058s-2.915-.011-3.932-.058a7,7,0,0,1-2.315-.443,4.877,4.877,0,0,1-2.789-2.789,7,7,0,0,1-.443-2.315c-.047-1.017-.058-1.342-.058-3.932s.011-2.915.058-3.932a7,7,0,0,1,.443-2.315,4.88,4.88,0,0,1,2.79-2.789,7,7,0,0,1,2.315-.443c1.017-.046,1.342-.058,3.932-.058s2.915.011,3.932.058a7.005,7.005,0,0,1,2.315.443,4.878,4.878,0,0,1,2.789,2.79,7,7,0,0,1,.444,2.315c.046,1.017.057,1.342.057,3.932S26.135,19.524,26.088,20.541Zm0,0"/></svg>