<svg xmlns="http://www.w3.org/2000/svg" width="33.218" height="33.218" viewBox="0 0 33.218 33.218"><defs><style>.a{fill:#143754;}</style></defs><path class="a" d="M16.609,0A16.609,16.609,0,1,0,33.218,16.609,16.611,16.611,0,0,0,16.609,0ZM11.783,25.108H7.738V12.938h4.045ZM9.76,11.277H9.734a2.108,2.108,0,1,1,.053-4.2,2.109,2.109,0,1,1-.027,4.2ZM26.368,25.108H22.323V18.6c0-1.636-.586-2.752-2.049-2.752A2.214,2.214,0,0,0,18.2,17.325a2.77,2.77,0,0,0-.133.987v6.8H14.021s.053-11.028,0-12.169h4.045v1.723a4.016,4.016,0,0,1,3.645-2.009c2.661,0,4.657,1.739,4.657,5.477Zm0,0"/></svg>