<svg xmlns="http://www.w3.org/2000/svg" width="33.479" height="33.479" viewBox="0 0 33.479 33.479"><defs><style>.a{fill:#143754;}</style></defs><path class="a" d="M25.676,50.223H27v7.183h1.256V50.223h1.352V49.047H25.676Z" transform="translate(-16.882 -32.249)"/><path class="a" d="M52.268,51.1a1.528,1.528,0,0,0-1.167.675v-2.73H49.973v8.36H51.1v-.6a1.539,1.539,0,0,0,1.167.689.893.893,0,0,0,.9-.7,4.959,4.959,0,0,0,.114-1.255v-2.48A4.785,4.785,0,0,0,53.17,51.8.893.893,0,0,0,52.268,51.1Zm-.113,4.524c0,.563-.165.84-.491.84a.805.805,0,0,1-.563-.278v-3.8a.81.81,0,0,1,.563-.275c.326,0,.491.288.491.85Z" transform="translate(-32.858 -32.248)"/><path class="a" d="M39.76,60.028c-.25.354-.487.528-.714.528-.151,0-.237-.089-.264-.264a3.486,3.486,0,0,1-.01-.438V55.268H37.643v4.925a3.175,3.175,0,0,0,.1.926.693.693,0,0,0,.727.464,1.808,1.808,0,0,0,1.29-.765v.68h1.13V55.268H39.76Z" transform="translate(-24.751 -36.339)"/><path class="a" d="M45.608,30.03c.367,0,.544-.291.544-.874V26.509c0-.583-.176-.873-.544-.873s-.545.29-.545.873v2.648C45.063,29.739,45.24,30.03,45.608,30.03Z" transform="translate(-29.629 -16.856)"/><path class="a" d="M16.739,0A16.739,16.739,0,1,0,33.479,16.739,16.739,16.739,0,0,0,16.739,0ZM18.6,7.829h1.137v4.635a2.685,2.685,0,0,0,.014.444c.025.177.115.267.267.267.228,0,.468-.177.721-.534V7.829h1.14v6.295H20.74v-.686a1.831,1.831,0,0,1-1.3.773.7.7,0,0,1-.735-.468,3.181,3.181,0,0,1-.1-.936V7.829ZM14.293,9.882A2.446,2.446,0,0,1,14.65,8.4a1.691,1.691,0,0,1,2.659,0,2.472,2.472,0,0,1,.353,1.483v2.2a2.464,2.464,0,0,1-.353,1.48,1.694,1.694,0,0,1-2.659,0,2.438,2.438,0,0,1-.357-1.48Zm-3.05-4.2.9,3.317L13,5.677h1.279L12.761,10.7v3.421H11.5V10.7a20.8,20.8,0,0,0-.774-2.672c-.266-.784-.544-1.57-.811-2.354h1.331ZM25.751,25.708a2.36,2.36,0,0,1-2.019,1.835,62.734,62.734,0,0,1-6.994.259,62.732,62.732,0,0,1-6.993-.259,2.358,2.358,0,0,1-2.018-1.835A19.98,19.98,0,0,1,7.4,21.293a20,20,0,0,1,.329-4.415,2.358,2.358,0,0,1,2.018-1.835,62.741,62.741,0,0,1,6.994-.259,62.734,62.734,0,0,1,6.993.259,2.361,2.361,0,0,1,2.019,1.835,20.043,20.043,0,0,1,.323,4.415A19.981,19.981,0,0,1,25.751,25.708Z"/><path class="a" d="M63.905,55.046a1.6,1.6,0,0,0-1.352.638,2.429,2.429,0,0,0-.349,1.468v2.182a2.4,2.4,0,0,0,.363,1.464,1.615,1.615,0,0,0,1.366.638,1.561,1.561,0,0,0,1.364-.675,1.608,1.608,0,0,0,.264-.676c.011-.113.024-.363.024-.727v-.164H64.435a7.4,7.4,0,0,1-.025.764.485.485,0,0,1-.5.452c-.388,0-.577-.288-.577-.864v-1.1h2.258v-1.29a2.448,2.448,0,0,0-.349-1.468A1.567,1.567,0,0,0,63.905,55.046Zm.552,2.456H63.329v-.576q0-.864.566-.864c.373,0,.562.288.562.864Z" transform="translate(-40.9 -36.193)"/></svg>