<svg xmlns="http://www.w3.org/2000/svg" width="586.379" height="468.202" viewBox="0 0 586.379 468.202"><defs><style>.a,.d{fill:#a0c9ff;}.a{stroke:rgba(0,0,0,0);stroke-miterlimit:10;}.b{fill:#75a1de;}.c{fill:#3583c5;}.e{opacity:0.977;}</style></defs><g transform="translate(-630.033 -3961.788)"><g transform="translate(988.727 3962.492) rotate(40)"><path class="a" d="M0,41.623c0-4.234,3.173-5.946,5.49-7.2,2.076-1.12,2.921-1.686,2.921-2.779s-.845-1.66-2.921-2.781C3.173,27.616,0,25.9,0,21.669s3.173-5.946,5.49-7.2c2.075-1.12,2.921-1.686,2.921-2.78s-.844-1.66-2.92-2.779C3.173,7.662,0,5.95,0,1.715a1.716,1.716,0,0,1,3.432,0c0,2.082,1.4,2.943,3.689,4.178,2.1,1.136,4.722,2.55,4.722,5.8s-2.619,4.664-4.723,5.8c-2.354,1.272-3.688,2.092-3.688,4.177s1.4,2.943,3.688,4.177c2.1,1.136,4.723,2.549,4.723,5.8s-2.619,4.664-4.723,5.8c-2.354,1.271-3.688,2.092-3.688,4.177a1.716,1.716,0,1,1-3.432,0Z" transform="translate(0 0)"/></g><g transform="translate(1171 4030)"><path class="b" d="M149.068,161.649a8.864,8.864,0,0,1-1.962-.222,8.762,8.762,0,1,1,6.616-1.128h0A8.716,8.716,0,0,1,149.068,161.649Zm3.322-3.465h0Zm-3.348-9.071a3.776,3.776,0,1,0,.844.095A3.853,3.853,0,0,0,149.042,149.113Z" transform="translate(-140.282 -144.111)"/></g><path class="c" d="M13.695,10.873,9.613,7.045l3.829-4.082A1.759,1.759,0,1,0,10.876.556L7.047,4.638,2.963.808A1.759,1.759,0,1,0,.556,3.373L4.639,7.2.809,11.288a1.759,1.759,0,0,0,2.566,2.407L7.206,9.61l4.083,3.829a1.759,1.759,0,0,0,2.406-2.566Z" transform="translate(1198.147 4126.074) rotate(-20)"/><g transform="translate(630.033 4057)"><path class="d" d="M360.972-216.648h31.652a2.5,2.5,0,0,0,2.5-2.5V-250.8a2.5,2.5,0,0,0-2.5-2.5H360.972a2.5,2.5,0,0,0-2.5,2.5v31.655A2.5,2.5,0,0,0,360.972-216.648Zm29.152-5H363.472V-248.3h26.652Z" transform="translate(-358.472 253.303)"/></g><g class="e" transform="translate(1111.706 4404)"><path class="b" d="M-189.355-37.372a1.426,1.426,0,0,0,1.009-.417l16.942-16.92a1.427,1.427,0,0,0,.371-1.378,1.428,1.428,0,0,0-1.009-1.01l-23.124-6.215a1.426,1.426,0,0,0-1.378.368,1.426,1.426,0,0,0-.37,1.378L-193.824-50h0l3.09,11.567a1.428,1.428,0,0,0,1.009,1.01A1.417,1.417,0,0,0-189.355-37.372Zm14.185-17.61-13.444,13.426-2.452-9.178h0l-2.454-9.18Z" transform="translate(196.965 63.362)"/></g></g></svg>