<svg xmlns="http://www.w3.org/2000/svg" width="56.863" height="57.124" viewBox="0 0 56.863 57.124"><defs><style>.a{fill:#1c2e7a;}.b{fill:#ffe98d;}.c{fill:#ffdd40;}.d{fill:#f964b2;}.e{fill:#ea349c;}.f{fill:#fcad6d;}.g{fill:#fd995b;}.h{fill:#d3dcfb;}.i{fill:#bec8f7;}.j{fill:#fc90ce;}.k{fill:#f9ba8f;}.l{fill:#e9efff;}.m{fill:#2a428c;}</style></defs><g transform="translate(-1.168)"><path class="a" d="M54.755,57.571a27.277,27.277,0,1,0-52.621,0Z" transform="translate(0 -20.51)"/><path class="b" d="M228.052,173.439a3.047,3.047,0,0,0,.167-3.384,16.5,16.5,0,0,1-2-7.476h-1.3c-.043.575-.105,1.1-.171,1.52a24.162,24.162,0,0,1-2.572,6.837,10.164,10.164,0,0,1-1.861,2.321l-.094.087v.095h7.836Z" transform="translate(-194.661 -144.479)"/><path class="c" d="M72.732,170.936a24.151,24.151,0,0,1-2.571-6.835c-.069-.4-.134-.933-.177-1.523H68.54a16.5,16.5,0,0,1-2,7.476,3.062,3.062,0,0,0,1.633,4.463,21.608,21.608,0,0,0,5.725,1.122,2.759,2.759,0,0,0,.644-1.7v-.727l-.09-.087A10.179,10.179,0,0,1,72.732,170.936Z" transform="translate(-57.705 -144.479)"/><path class="d" d="M28.624,330.863V318.018H26.256a.832.832,0,0,1-.135.682c-.884,1.226-3.214,4.028-5.736,3.582-2.194-.388-4.087-3.066-5.635-7.964-1.3.327-2.2.493-2.2.493a8.765,8.765,0,0,0-3.243,1.352,27.335,27.335,0,0,0,17.168,18.692,1.984,1.984,0,0,1-.333-1.1.4.4,0,0,1,.378-.41h3.71l-.447-.3A2.637,2.637,0,0,1,28.624,330.863Z" transform="translate(-7.233 -279.323)"/><path class="e" d="M18.388,322.01a1.18,1.18,0,0,0,.546-.35c-1.587-1.1-2.989-3.56-4.185-7.343-1.3.327-2.2.493-2.2.493A8.764,8.764,0,0,0,9.3,316.161,27.2,27.2,0,0,0,14.8,326.715C15.5,323.278,17.451,322.29,18.388,322.01Z" transform="translate(-7.231 -279.323)"/><g transform="translate(10.949)"><path class="b" d="M104.662,1.234a12.095,12.095,0,0,0-10.646,0,9.208,9.208,0,0,0-5,8.18v4.438h0a2.543,2.543,0,0,1,1.375.38,4,4,0,0,1,.54-1.271,1.356,1.356,0,0,0,.357-.856c.036-1.217.356-4.093,2.5-5.194a1.261,1.261,0,0,1,1.662.509c1.291,2.238,4.3,5.188,11,3.931a.789.789,0,0,1,.936.747s0,.005,0,.008a1.354,1.354,0,0,0,.357.856,4,4,0,0,1,.54,1.271,2.543,2.543,0,0,1,1.375-.38h0V9.415a9.208,9.208,0,0,0-5-8.18Z" transform="translate(-89.019)"/></g><path class="c" d="M101.893.257A12.438,12.438,0,0,0,99.338,0a11.443,11.443,0,0,0-5.323,1.234,9.208,9.208,0,0,0-5,8.18v4.438h0a2.543,2.543,0,0,1,1.375.38,4,4,0,0,1,.54-1.271,1.355,1.355,0,0,0,.357-.856c.036-1.217.356-4.093,2.5-5.194a1.261,1.261,0,0,1,1.662.509,8.261,8.261,0,0,0,2.191,2.49l.033-.24s4.975-2.918,2.767-5.127S101.884.262,101.893.257Z" transform="translate(-78.069)"/><g transform="translate(12.874 28.586)"><path class="f" d="M112.478,267.161h2.352v-7.394a2.626,2.626,0,0,1,.095-.7c-.1.011-.195.018-.29.02-1.593-.038-3.526-1.323-4.654-2.331v.872c0,1.522-1.641,2.761-3.667,3.711l5.881,5.08A.833.833,0,0,1,112.478,267.161Z" transform="translate(-106.314 -256.758)"/></g><path class="g" d="M114.634,259.088c-1.593-.039-3.526-1.323-4.654-2.331v.872c0,1.522-1.641,2.761-3.667,3.711l3.909,3.377c.043,0,.083,0,.119,0a1.167,1.167,0,0,0,.652-.153,7.929,7.929,0,0,0,3.741-5.484Z" transform="translate(-93.439 -228.171)"/><path class="h" d="M197.769,483.739h-38.2a.561.561,0,0,0-.545.576,2.159,2.159,0,0,0,.249,1.007,27.217,27.217,0,0,0,9.452,1.683h25.514a2.757,2.757,0,0,0,.828-.123h0l1.839-.579a2.063,2.063,0,0,0,1.4-1.987A.562.562,0,0,0,197.769,483.739Z" transform="translate(-140.283 -429.883)"/><path class="i" d="M159.025,484.315a2.159,2.159,0,0,0,.249,1.007,27.217,27.217,0,0,0,9.452,1.683h5.322a2.484,2.484,0,0,1-1.756-2.783l-.355-.484H159.57a.561.561,0,0,0-.545.576Z" transform="translate(-140.282 -429.883)"/><path class="j" d="M56.275,298.974c4.219,13.347,9.989,6.919,11.764,4.458a1.06,1.06,0,0,0-.168-1.423l-5.808-5.017a30.98,30.98,0,0,1-5.788,1.983Z" transform="translate(-48.972 -263.926)"/><path class="d" d="M62.063,296.991a30.979,30.979,0,0,1-5.788,1.983c1.317,4.167,2.785,6.406,4.236,7.441a1.212,1.212,0,0,0,.37-.478c2.2-5.116,4.263-5.507,4.992-5.462a1.156,1.156,0,0,0,.212-.009Z" transform="translate(-48.972 -263.926)"/><path class="f" d="M79.557,128.459a16.139,16.139,0,0,1,.085-5.652,2.422,2.422,0,0,0-2.446-.083c-1.041,1.017-.278,2.554.087,3.524a3.686,3.686,0,0,1,.217.9,1.906,1.906,0,0,0,2.124,1.594C79.6,128.648,79.579,128.555,79.557,128.459Z" transform="translate(-67.097 -108.795)"/><path class="g" d="M80.614,146.133a2,2,0,0,1-2.5-.5c.132.453.319.884.452,1.239a3.687,3.687,0,0,1,.217.9,1.906,1.906,0,0,0,2.124,1.594c-.022-.094-.045-.188-.067-.284A21.842,21.842,0,0,1,80.614,146.133Z" transform="translate(-68.378 -129.416)"/><path class="f" d="M264.285,122.724a2.031,2.031,0,0,0-2.223.083,16.139,16.139,0,0,1,.085,5.652c-.022.1-.045.189-.067.284a1.673,1.673,0,0,0,1.9-1.594,3.685,3.685,0,0,1,.217-.9C264.564,125.278,265.326,123.742,264.285,122.724Z" transform="translate(-231.848 -108.796)"/><path class="g" d="M263.393,148.254a1.987,1.987,0,0,1-.878-.205,21.82,21.82,0,0,1-.225,2.913c-.022.1-.045.189-.067.284a1.673,1.673,0,0,0,1.9-1.594,3.682,3.682,0,0,1,.217-.9c.11-.293.256-.638.378-1a1.987,1.987,0,0,1-1.327.508Z" transform="translate(-231.991 -131.297)"/><path class="k" d="M107.357,83.7a2.638,2.638,0,0,1,2.618-2.343h1.861A10.453,10.453,0,0,0,113.714,79a24.455,24.455,0,0,0,2.607-6.93c.263-1.669.542-5.426-.643-6.761a1.273,1.273,0,0,1-.338-.809c0-.155-.014-.342-.032-.551a1,1,0,0,0-.2-.212,1.014,1.014,0,0,0-.823-.206c-6.386,1.2-9.38-1.418-10.768-3.824a1.5,1.5,0,0,0-1.158-.747,3.754,3.754,0,0,0-1.085.492C99.408,60.7,99.13,63.4,99.1,64.5a1.272,1.272,0,0,1-.338.809c-1.172,1.32-.915,5.178-.642,6.766A24.449,24.449,0,0,0,100.723,79a10.606,10.606,0,0,0,5,4.392A3.784,3.784,0,0,0,107.357,83.7Z" transform="translate(-85.95 -52.398)"/><path class="f" d="M106.79,79a24.447,24.447,0,0,1-2.606-6.925c-.273-1.588-.53-5.446.642-6.766a1.272,1.272,0,0,0,.338-.809,9.372,9.372,0,0,1,.391-2.434,8.1,8.1,0,0,1-2.033-2.36,1.5,1.5,0,0,0-1.158-.747,3.752,3.752,0,0,0-1.085.492C99.408,60.7,99.13,63.4,99.1,64.5a1.272,1.272,0,0,1-.338.809c-1.172,1.32-.915,5.178-.642,6.766A24.445,24.445,0,0,0,100.723,79a10.607,10.607,0,0,0,5,4.392,3.781,3.781,0,0,0,1.638.306,2.639,2.639,0,0,1,1.558-2.117A10.453,10.453,0,0,1,106.79,79Z" transform="translate(-85.95 -52.395)"/><path class="l" d="M212.84,258.626H184.117a2.809,2.809,0,0,0-2.8,2.8v19.945a2.809,2.809,0,0,0,2.8,2.8H212.84a2.809,2.809,0,0,0,2.8-2.8V261.427A2.809,2.809,0,0,0,212.84,258.626Z" transform="translate(-160.092 -229.832)"/><path class="h" d="M189.3,281.372V261.427a2.809,2.809,0,0,1,2.8-2.8h-7.985a2.809,2.809,0,0,0-2.8,2.8v19.945a2.809,2.809,0,0,0,2.8,2.8H192.1a2.809,2.809,0,0,1-2.8-2.8Z" transform="translate(-160.092 -229.832)"/><circle class="i" cx="2.993" cy="2.993" r="2.993" transform="translate(34.147 41.537) rotate(-45)"/><path class="m" d="M314.189,44.553c-1.849.883-4.362,2.659-4.032,5.7.515,4.754.515,14.662,5.9,14.662,4.817,0,11.344.2,12.666-4.594A27.361,27.361,0,0,0,314.189,44.553Z" transform="translate(-274.562 -39.593)"/></g></svg>